<svg xmlns="http://www.w3.org/2000/svg" width="412.65" height="282.604"><g transform="translate(-663.727 -239.113)"><path d="M975.526 271.053l15.848 20.64a1.212 1.212 0 0 0 1.936 0l.816-1.114a.342.342 0 0 0-.374-.537l-8.25-19.811a20.217 20.217 0 0 0 2.563-2.066 1.822 1.822 0 0 0-.22-2.782l-.073-.049a1.814 1.814 0 0 0-2.441.4 8.99 8.99 0 0 0-1.05 1.627l-2.294-5.524a2.042 2.042 0 0 1 .212-1.953l9.553-13.767a15.458 15.458 0 0 0 1.174-3.124c.2-1.18 0-3.393-.472-3.759s-2.652.163-3.718.716a15.222 15.222 0 0 0-2.61 2.075l-10.108 13.359a2.01 2.01 0 0 1-1.79.814l-5.963-.48a10.145 10.145 0 0 0 1.228-1.506 1.814 1.814 0 0 0-.382-2.441l-.065-.059a1.822 1.822 0 0 0-2.717.651 19.672 19.672 0 0 0-1.18 3.075l-21.357-1.726a.342.342 0 0 0-.626-.187l-.814 1.102a1.2 1.2 0 0 0 .586 1.855l24.513 8.665a.814.814 0 0 1 .382 1.18l-4.686 6.712a65.315 65.315 0 0 0-4.678 8.3.74.74 0 0 1-.683.415l-9.446-.142a.293.293 0 0 0-.521-.2l-.618.814a1.5 1.5 0 0 0 .7 2.286l7.241 2.709a.732.732 0 0 1 .456.879 14.39 14.39 0 0 0-.268 1.285.635.635 0 0 0 .919.667c.325-.171.716-.382 1.139-.659a.748.748 0 0 1 1.009.155l4.759 6.086a1.5 1.5 0 0 0 2.384 0l.618-.814a.293.293 0 0 0-.325-.456l-3.059-8.949a.732.732 0 0 1 .2-.765 64.915 64.915 0 0 0 6.411-7.013l4.938-6.509a.814.814 0 0 1 1.237 0" fill="#f9971e"/><g fill="#00a991"><path d="M969.252 481.35l14.497 3.08-3.08 14.497-4.088-.869 2.202-10.403-10.392-2.207z"/><path d="M958.377 488.414l14.497 3.08-3.08 14.497-4.088-.868 2.202-10.403-10.392-2.208z"/><path d="M947.501 495.478l14.498 3.08-3.08 14.497-4.088-.868 2.202-10.403-10.393-2.208z"/><path d="M936.626 502.543l14.498 3.08-3.08 14.497-4.097-.863 2.21-10.409-10.402-2.2z"/></g><path d="M699.493 440.672h-5.842v-5.842h-6.108v5.842h-5.842v6.108h5.842v5.842h6.108v-5.842h5.842z" fill="#f9971e"/><path d="M924.622 347.726a9.826 9.826 0 1 1 9.65-10 9.826 9.826 0 0 1-9.65 10zm-.264-15.059a2.17 2.17 0 1 0 0-.031z" fill="#fff"/><g fill="none" stroke="#f7ab1d" stroke-miterlimit="10" stroke-width="1.33"><path d="M673.031 324.73l48.426 21.979-5.184-52.92z" stroke-width="1.3301596"/><path d="M667.382 338.969l48.416 21.977-5.174-52.917z" stroke-width="1.3301596"/></g><path d="M884.743 291.699c-6.717 6.831-14.328 6.355-20.378 5.975-5.385-.323-9.647-.59-13.681 3.444s-3.806 8.315-3.444 13.7c.362 6.032.837 13.548-5.994 20.378s-14.347 6.355-20.3 5.975c-5.385-.323-9.647-.59-13.681 3.463s-3.806 8.3-3.444 13.681c.362 6.032.837 13.548-5.994 20.379s-14.423 6.412-20.455 5.975c-5.385-.323-9.7-.59-13.681 3.444a4.357 4.357 0 1 1-6.165-6.146c6.831-6.831 14.347-6.374 20.378-5.994 5.385.342 9.647.609 13.681-3.444s3.806-8.3 3.463-13.681c-.381-6.032-.856-13.548 5.975-20.379s14.347-6.355 20.378-5.994c5.385.342 9.647.609 13.681-3.444s3.806-8.3 3.463-13.681c-.381-6.032-.856-13.567 5.975-20.379s14.347-6.374 20.379-5.994c5.385.342 9.647.609 13.7-3.444a4.357 4.357 0 0 1 6.146 6.165z" fill="#00a991"/><ellipse cx="5.661" cy="5.661" rx="5.661" ry="5.661" transform="translate(836.981 400.863)" fill="#f9971e"/><path d="M871.892 479.032c-3.409.944-5.755-.612-7.619-1.851-1.662-1.098-2.976-1.97-5.01-1.424s-2.752 1.956-3.63 3.744c-.999 1.995-2.233 4.485-5.68 5.41s-5.763-.618-7.597-1.84c-1.663-1.097-2.976-1.97-5.014-1.418s-2.747 1.948-3.627 3.738c-.999 1.995-2.233 4.485-5.679 5.41s-5.795-.612-7.643-1.866c-1.662-1.098-2.993-1.982-5.011-1.424a1.609 1.609 0 1 1-.837-3.103c3.445-.923 5.767.611 7.623 1.845 1.658 1.103 2.972 1.976 5.01 1.424s2.748-1.95 3.633-3.735c.992-1.999 2.227-4.488 5.673-5.413s5.763.618 7.622 1.846c1.659 1.103 2.972 1.976 5.01 1.424s2.749-1.95 3.634-3.735c.994-1.998 2.232-4.496 5.674-5.415s5.767.611 7.623 1.845c1.659 1.104 2.972 1.976 5.016 1.428a1.61 1.61 0 0 1 .83 3.11z" fill="#f9971e"/><path d="M871.892 479.032c-3.409.944-5.755-.612-7.619-1.851-1.662-1.098-2.976-1.97-5.01-1.424s-2.752 1.956-3.63 3.744c-.999 1.995-2.233 4.485-5.68 5.41s-5.763-.618-7.597-1.84c-1.663-1.097-2.976-1.97-5.014-1.418s-2.747 1.948-3.627 3.738c-.999 1.995-2.233 4.485-5.679 5.41s-5.795-.612-7.643-1.866c-1.662-1.098-2.993-1.982-5.011-1.424a1.609 1.609 0 1 1-.837-3.103c3.445-.923 5.767.611 7.623 1.845 1.658 1.103 2.972 1.976 5.01 1.424s2.748-1.95 3.633-3.735c.992-1.999 2.227-4.488 5.673-5.413s5.763.618 7.622 1.846c1.659 1.103 2.972 1.976 5.01 1.424s2.749-1.95 3.634-3.735c.994-1.998 2.232-4.496 5.674-5.415s5.767.611 7.623 1.845c1.659 1.104 2.972 1.976 5.016 1.428a1.61 1.61 0 0 1 .83 3.11z" fill="#f9971e"/><g fill="none" stroke="#fff" stroke-miterlimit="10" stroke-width="1.33"><path d="M933.728 431.151l-11.95 23.048 25.932-1.178z" stroke-width="1.3299202"/><path d="M926.93 428.034l-11.95 23.044 25.932-1.175z" stroke-width="1.3299202"/></g><g fill="#fff"><path d="M788.972 255.324l5.301-2.818 2.819 5.3-1.499.797-2.021-3.802-3.8 2.02z"/><path d="M787.436 260.347l5.302-2.818 2.818 5.301-1.498.797-2.022-3.803-3.8 2.02z"/><path d="M785.9 265.372l5.302-2.818 2.818 5.3-1.498.797-2.022-3.802-3.8 2.019z"/><path d="M784.364 270.395l5.302-2.818 2.818 5.3-1.498.798-2.022-3.803-3.802 2.024z"/></g><path d="M1059.101 311.674c-4.138 6.497-10.208 7.396-15.032 8.11-4.291.646-7.688 1.15-10.182 4.997s-1.603 7.178-.417 11.353c1.294 4.685 2.925 10.52-1.305 17.036s-10.224 7.4-14.972 8.097c-4.291.646-7.688 1.15-10.184 5.013s-1.606 7.163-.42 11.34c1.294 4.684 2.926 10.52-1.305 17.035s-10.272 7.457-15.092 8.122c-4.291.647-7.733 1.16-10.187 4.998a3.505 3.505 0 1 1-5.878-3.803c4.23-6.517 10.22-7.416 15.03-8.125 4.293-.631 7.69-1.135 10.186-4.998s1.606-7.163.436-11.343c-1.309-4.681-2.941-10.516 1.29-17.032s10.224-7.4 15.03-8.124c4.294-.631 7.69-1.135 10.186-4.998s1.606-7.163.436-11.343c-1.308-4.681-2.944-10.53 1.29-17.032s10.213-7.414 15.022-8.124c4.294-.63 7.691-1.135 10.202-5a3.505 3.505 0 0 1 5.866 3.82z" fill="#f9971e"/><path d="M1050.734 392.781h-3.951v-3.951h-4.131v3.951h-3.951v4.131h3.951v3.951h4.131v-3.951h3.951z" fill="#00a991"/><path d="M1059.101 311.674c-4.138 6.497-10.208 7.396-15.032 8.11-4.291.646-7.688 1.15-10.182 4.997s-1.603 7.178-.417 11.353c1.294 4.685 2.925 10.52-1.305 17.036s-10.224 7.4-14.972 8.097c-4.291.646-7.688 1.15-10.184 5.013s-1.606 7.163-.42 11.34c1.294 4.684 2.926 10.52-1.305 17.035s-10.272 7.457-15.092 8.122c-4.291.647-7.733 1.16-10.187 4.998a3.505 3.505 0 1 1-5.878-3.803c4.23-6.517 10.22-7.416 15.03-8.125 4.293-.631 7.69-1.135 10.186-4.998s1.606-7.163.436-11.343c-1.309-4.681-2.941-10.516 1.29-17.032s10.224-7.4 15.03-8.124c4.294-.631 7.69-1.135 10.186-4.998s1.606-7.163.436-11.343c-1.308-4.681-2.944-10.53 1.29-17.032s10.213-7.414 15.022-8.124c4.294-.63 7.691-1.135 10.202-5a3.505 3.505 0 0 1 5.866 3.82z" fill="#f9971e"/><path d="M772.212 450.966c-2.49 1.979-4.978 1.514-6.956 1.14-1.762-.325-3.153-.59-4.648.58s-1.59 2.59-1.689 4.379c-.125 2-.273 4.502-2.8 6.472s-4.985 1.513-6.932 1.147c-1.761-.324-3.153-.59-4.648.587s-1.59 2.58-1.689 4.369c-.125 2-.273 4.502-2.8 6.472s-5.011 1.528-6.98 1.14c-1.762-.324-3.173-.591-4.648.581a1.447 1.447 0 1 1-1.782-2.275c2.528-1.975 4.986-1.52 6.958-1.15 1.76.331 3.153.589 4.647-.581s1.59-2.58 1.695-4.368c.119-2.002.267-4.504 2.794-6.473s4.985-1.514 6.957-1.15c1.761.33 3.154.589 4.648-.581s1.59-2.58 1.695-4.368c.119-2.002.267-4.504 2.794-6.473s4.985-1.518 6.956-1.148c1.76.33 3.153.589 4.654-.58a1.447 1.447 0 0 1 1.775 2.28z" fill="#fff"/><path d="M772.212 450.966c-2.49 1.979-4.978 1.514-6.956 1.14-1.762-.325-3.153-.59-4.648.58s-1.59 2.59-1.689 4.379c-.125 2-.273 4.502-2.8 6.472s-4.985 1.513-6.932 1.147c-1.761-.324-3.153-.59-4.648.587s-1.59 2.58-1.689 4.369c-.125 2-.273 4.502-2.8 6.472s-5.011 1.528-6.98 1.14c-1.762-.324-3.173-.591-4.648.581a1.447 1.447 0 1 1-1.782-2.275c2.528-1.975 4.986-1.52 6.958-1.15 1.76.331 3.153.589 4.647-.581s1.59-2.58 1.695-4.368c.119-2.002.267-4.504 2.794-6.473s4.985-1.514 6.957-1.15c1.761.33 3.154.589 4.648-.581s1.59-2.58 1.695-4.368c.119-2.002.267-4.504 2.794-6.473s4.985-1.518 6.956-1.148c1.76.33 3.153.589 4.654-.58a1.447 1.447 0 0 1 1.775 2.28z" fill="#fff"/><ellipse cx="3.161" cy="3.161" rx="3.161" ry="3.161" transform="translate(664.981 396.863)" fill="#fff"/><ellipse cx="3.161" cy="3.161" rx="3.161" ry="3.161" transform="translate(772.981 491.863)" fill="#00a991"/></g></svg>
