<svg xmlns="http://www.w3.org/2000/svg" width="412.65" height="282.604" viewBox="0 0 412.65 282.604">
  <g id="Group_19" data-name="Group 19" transform="translate(-663.727 -239.113)">
    <g id="Datový_zdroj_21" data-name="Datový zdroj 21" transform="translate(942.118 239.113)">
      <g id="Vrstva_8" data-name="Vrstva 8" transform="translate(0 0)">
        <path id="Path_52" data-name="Path 52" d="M33.4,31.941l15.848,20.64a1.212,1.212,0,0,0,1.936,0L52,51.467a.342.342,0,0,0-.374-.537l-8.25-19.811a20.217,20.217,0,0,0,2.563-2.066,1.822,1.822,0,0,0-.22-2.782l-.073-.049a1.814,1.814,0,0,0-2.441.4,8.99,8.99,0,0,0-1.05,1.627l-2.294-5.524a2.042,2.042,0,0,1,.212-1.953L49.626,7.005A15.458,15.458,0,0,0,50.8,3.881c.2-1.18,0-3.393-.472-3.759s-2.652.163-3.718.716A15.222,15.222,0,0,0,44,2.913L33.892,16.272a2.01,2.01,0,0,1-1.79.814l-5.963-.48A10.145,10.145,0,0,0,27.367,15.1a1.814,1.814,0,0,0-.382-2.441L26.92,12.6a1.822,1.822,0,0,0-2.717.651,19.672,19.672,0,0,0-1.18,3.075L1.666,14.6a.342.342,0,0,0-.626-.187L.226,15.515A1.2,1.2,0,0,0,.812,17.37l24.513,8.665a.814.814,0,0,1,.382,1.18l-4.686,6.712a65.315,65.315,0,0,0-4.678,8.3.74.74,0,0,1-.683.415L6.214,42.5a.293.293,0,0,0-.521-.2l-.618.814a1.5,1.5,0,0,0,.7,2.286l7.241,2.709a.732.732,0,0,1,.456.879c-.122.488-.212.919-.268,1.285a.635.635,0,0,0,.919.667c.325-.171.716-.382,1.139-.659a.748.748,0,0,1,1.009.155l4.759,6.086a1.5,1.5,0,0,0,2.384,0l.618-.814a.293.293,0,0,0-.325-.456l-3.059-8.949a.732.732,0,0,1,.2-.765,64.915,64.915,0,0,0,6.411-7.013l4.938-6.509a.814.814,0,0,1,1.237,0" transform="translate(0.008 -0.001)" fill="#f9971e"/>
      </g>
    </g>
    <g id="Datový_zdroj_22" data-name="Datový zdroj 22" transform="matrix(-0.839, 0.545, -0.545, -0.839, 989.458, 493.218)">
      <g id="Vrstva_8-2" data-name="Vrstva 8">
        <path id="Path_53" data-name="Path 53" d="M10.475,20.95,0,10.475,10.475,0l2.954,2.954L5.919,10.475l7.509,7.509Z" fill="#00a991"/>
        <path id="Path_54" data-name="Path 54" d="M10.475,20.95,0,10.475,10.475,0l2.954,2.954L5.919,10.475l7.509,7.509Z" transform="translate(12.962 0)" fill="#00a991"/>
        <path id="Path_55" data-name="Path 55" d="M10.475,20.95,0,10.475,10.475,0l2.954,2.954L5.919,10.475l7.509,7.509Z" transform="translate(25.924 0)" fill="#00a991"/>
        <path id="Path_56" data-name="Path 56" d="M10.475,20.95,0,10.475,10.475,0,13.44,2.954,5.919,10.475l7.521,7.509Z" transform="translate(38.886 0)" fill="#00a991"/>
      </g>
    </g>
    <g id="Datový_zdroj_23" data-name="Datový zdroj 23" transform="translate(681.701 434.83)">
      <g id="Vrstva_8-3" data-name="Vrstva 8">
        <path id="Path_57" data-name="Path 57" d="M17.792,5.842H11.95V0H5.842V5.842H0V11.95H5.842v5.842H11.95V11.95h5.842Z" fill="#f9971e"/>
      </g>
    </g>
    <g id="Datový_zdroj_24" data-name="Datový zdroj 24" transform="translate(914.621 328.075)">
      <g id="Vrstva_8-4" data-name="Vrstva 8" transform="translate(0 0)">
        <path id="Path_58" data-name="Path 58" d="M9.993,19.643a9.826,9.826,0,1,1,9.65-10A9.826,9.826,0,0,1,9.993,19.643ZM9.729,4.584a2.17,2.17,0,1,0,0-.031Z" transform="translate(0.008 0.008)" fill="#fff"/>
      </g>
    </g>
    <g id="Datový_zdroj_19" data-name="Datový zdroj 19" transform="matrix(-0.259, 0.966, -0.966, -0.259, 734.346, 298.635)">
      <g id="Vrstva_8-5" data-name="Vrstva 8" transform="translate(0 0)">
        <path id="Path_59" data-name="Path 59" d="M41.078,52.459,49.766,0,0,18.709Z" fill="none" stroke="#f7ab1d" stroke-miterlimit="10" stroke-width="1.33"/>
        <path id="Path_60" data-name="Path 60" d="M41.078,52.45,49.766,0,0,18.7Z" transform="translate(15.215 1.778)" fill="none" stroke="#f7ab1d" stroke-miterlimit="10" stroke-width="1.33"/>
      </g>
    </g>
    <g id="Datový_zdroj_20" data-name="Datový zdroj 20" transform="translate(756.106 284.403)">
      <g id="Vrstva_8-6" data-name="Vrstva 8" transform="translate(0 0)">
        <path id="Path_61" data-name="Path 61" d="M128.561,7.372c-6.717,6.831-14.328,6.355-20.378,5.975-5.385-.323-9.647-.59-13.681,3.444s-3.806,8.315-3.444,13.7c.362,6.032.837,13.548-5.994,20.378s-14.347,6.355-20.3,5.975c-5.385-.323-9.647-.59-13.681,3.463s-3.806,8.3-3.444,13.681c.362,6.032.837,13.548-5.994,20.379s-14.423,6.412-20.455,5.975c-5.385-.323-9.7-.59-13.681,3.444a4.357,4.357,0,1,1-6.165-6.146c6.831-6.831,14.347-6.374,20.378-5.994,5.385.342,9.647.609,13.681-3.444s3.806-8.3,3.463-13.681c-.381-6.032-.856-13.548,5.975-20.379s14.347-6.355,20.378-5.994c5.385.342,9.647.609,13.681-3.444s3.806-8.3,3.463-13.681c-.381-6.032-.856-13.567,5.975-20.379s14.347-6.374,20.379-5.994c5.385.342,9.647.609,13.7-3.444a4.357,4.357,0,0,1,6.146,6.165Z" transform="translate(0.076 -0.076)" fill="#00a991"/>
      </g>
    </g>
    <ellipse id="Ellipse_16" data-name="Ellipse 16" cx="5.661" cy="5.661" rx="5.661" ry="5.661" transform="translate(836.981 400.863)" fill="#f9971e"/>
    <g id="Datový_zdroj_20-2" data-name="Datový zdroj 20" transform="translate(832.103 452.949) rotate(30)">
      <g id="Vrstva_8-7" data-name="Vrstva 8" transform="translate(0 0)">
        <path id="Path_61-2" data-name="Path 61" d="M47.5,2.694c-2.48,2.522-5.29,2.347-7.524,2.206-1.988-.119-3.562-.218-5.051,1.272s-1.405,3.07-1.272,5.058c.133,2.227.309,5-2.213,7.524s-5.3,2.347-7.5,2.206c-1.988-.119-3.562-.218-5.051,1.279S17.484,25.3,17.617,27.29c.133,2.227.309,5-2.213,7.524s-5.325,2.368-7.552,2.206C5.863,36.9,4.269,36.8,2.8,38.292A1.609,1.609,0,1,1,.524,36.023c2.522-2.522,5.3-2.354,7.524-2.213,1.988.126,3.562.225,5.051-1.272s1.405-3.063,1.279-5.051c-.141-2.227-.316-5,2.206-7.524s5.3-2.347,7.524-2.213c1.988.126,3.562.225,5.051-1.272s1.405-3.063,1.279-5.051C30.3,9.2,30.123,6.417,32.645,3.9s5.3-2.354,7.524-2.213c1.988.126,3.562.225,5.058-1.272A1.609,1.609,0,0,1,47.5,2.694Z" fill="#f9971e"/>
      </g>
      <g id="Vrstva_8-8" data-name="Vrstva 8" transform="translate(0 0)">
        <path id="Path_61-3" data-name="Path 61" d="M47.5,2.694c-2.48,2.522-5.29,2.347-7.524,2.206-1.988-.119-3.562-.218-5.051,1.272s-1.405,3.07-1.272,5.058c.133,2.227.309,5-2.213,7.524s-5.3,2.347-7.5,2.206c-1.988-.119-3.562-.218-5.051,1.279S17.484,25.3,17.617,27.29c.133,2.227.309,5-2.213,7.524s-5.325,2.368-7.552,2.206C5.863,36.9,4.269,36.8,2.8,38.292A1.609,1.609,0,1,1,.524,36.023c2.522-2.522,5.3-2.354,7.524-2.213,1.988.126,3.562.225,5.051-1.272s1.405-3.063,1.279-5.051c-.141-2.227-.316-5,2.206-7.524s5.3-2.347,7.524-2.213c1.988.126,3.562.225,5.051-1.272s1.405-3.063,1.279-5.051C30.3,9.2,30.123,6.417,32.645,3.9s5.3-2.354,7.524-2.213c1.988.126,3.562.225,5.058-1.272A1.609,1.609,0,0,1,47.5,2.694Z" fill="#f9971e"/>
      </g>
    </g>
    <g id="Datový_zdroj_19-2" data-name="Datový zdroj 19" transform="matrix(-0.951, -0.309, 0.309, -0.951, 944.887, 461.708)">
      <g id="Vrstva_8-9" data-name="Vrstva 8" transform="translate(0 0)">
        <path id="Path_59-2" data-name="Path 59" d="M20.057,25.614,24.3,0,0,9.135Z" fill="none" stroke="#fff" stroke-miterlimit="10" stroke-width="1.33"/>
        <path id="Path_60-2" data-name="Path 60" d="M20.057,25.61,24.3,0,0,9.131Z" transform="translate(7.429 0.868)" fill="none" stroke="#fff" stroke-miterlimit="10" stroke-width="1.33"/>
      </g>
    </g>
    <g id="Datový_zdroj_22-2" data-name="Datový zdroj 22" transform="translate(798.333 253.747) rotate(107)">
      <g id="Vrstva_8-10" data-name="Vrstva 8">
        <path id="Path_53-2" data-name="Path 53" d="M4.245,8.491,0,4.245,4.245,0l1.2,1.2L2.4,4.245,5.442,7.289Z" fill="#fff"/>
        <path id="Path_54-2" data-name="Path 54" d="M4.245,8.491,0,4.245,4.245,0l1.2,1.2L2.4,4.245,5.442,7.289Z" transform="translate(5.253 0)" fill="#fff"/>
        <path id="Path_55-2" data-name="Path 55" d="M4.245,8.491,0,4.245,4.245,0l1.2,1.2L2.4,4.245,5.442,7.289Z" transform="translate(10.507 0)" fill="#fff"/>
        <path id="Path_56-2" data-name="Path 56" d="M4.245,8.491,0,4.245,4.245,0l1.2,1.2L2.4,4.245,5.447,7.289Z" transform="translate(15.76 0)" fill="#fff"/>
      </g>
    </g>
    <g id="Datový_zdroj_20-3" data-name="Datový zdroj 20" transform="matrix(0.978, -0.208, 0.208, 0.978, 956.68, 327.457)">
      <g id="Vrstva_8-11" data-name="Vrstva 8" transform="translate(0 0)">
        <path id="Path_61-4" data-name="Path 61" d="M103.477,5.869c-5.4,5.495-11.525,5.112-16.393,4.806-4.332-.26-7.76-.474-11,2.77s-3.061,6.689-2.77,11.02c.291,4.852.673,10.9-4.821,16.393s-11.541,5.112-16.331,4.806c-4.332-.26-7.76-.474-11.005,2.786s-3.061,6.673-2.77,11.005c.291,4.852.673,10.9-4.821,16.393s-11.6,5.158-16.454,4.806c-4.332-.26-7.806-.474-11.005,2.77a3.505,3.505,0,1,1-4.959-4.944c5.495-5.495,11.541-5.128,16.393-4.821,4.332.276,7.76.49,11.005-2.77s3.061-6.673,2.786-11.005c-.306-4.852-.689-10.9,4.806-16.393s11.541-5.112,16.393-4.821c4.332.276,7.76.49,11.005-2.77s3.061-6.673,2.786-11.005c-.306-4.852-.689-10.913,4.806-16.393S82.661,3.374,87.513,3.68c4.332.276,7.76.49,11.02-2.77a3.505,3.505,0,0,1,4.944,4.959Z" fill="#f9971e"/>
      </g>
    </g>
    <g id="Datový_zdroj_23-2" data-name="Datový zdroj 23" transform="translate(1038.701 388.83)">
      <g id="Vrstva_8-12" data-name="Vrstva 8">
        <path id="Path_57-2" data-name="Path 57" d="M12.033,3.951H8.082V0H3.951V3.951H0V8.082H3.951v3.951H8.082V8.082h3.951Z" fill="#00a991"/>
      </g>
    </g>
    <g id="Datový_zdroj_20-4" data-name="Datový zdroj 20" transform="matrix(0.978, -0.208, 0.208, 0.978, 956.68, 327.457)">
      <g id="Vrstva_8-13" data-name="Vrstva 8" transform="translate(0 0)">
        <path id="Path_61-5" data-name="Path 61" d="M103.477,5.869c-5.4,5.495-11.525,5.112-16.393,4.806-4.332-.26-7.76-.474-11,2.77s-3.061,6.689-2.77,11.02c.291,4.852.673,10.9-4.821,16.393s-11.541,5.112-16.331,4.806c-4.332-.26-7.76-.474-11.005,2.786s-3.061,6.673-2.77,11.005c.291,4.852.673,10.9-4.821,16.393s-11.6,5.158-16.454,4.806c-4.332-.26-7.806-.474-11.005,2.77a3.505,3.505,0,1,1-4.959-4.944c5.495-5.495,11.541-5.128,16.393-4.821,4.332.276,7.76.49,11.005-2.77s3.061-6.673,2.786-11.005c-.306-4.852-.689-10.9,4.806-16.393s11.541-5.112,16.393-4.821c4.332.276,7.76.49,11.005-2.77s3.061-6.673,2.786-11.005c-.306-4.852-.689-10.913,4.806-16.393S82.661,3.374,87.513,3.68c4.332.276,7.76.49,11.02-2.77a3.505,3.505,0,0,1,4.944,4.959Z" fill="#f9971e"/>
      </g>
    </g>
    <g id="Datový_zdroj_20-5" data-name="Datový zdroj 20" transform="matrix(0.993, 0.122, -0.122, 0.993, 730.122, 443.354)">
      <g id="Vrstva_8-14" data-name="Vrstva 8" transform="translate(0 0)">
        <path id="Path_61-6" data-name="Path 61" d="M42.684,2.421C40.456,4.688,37.93,4.53,35.922,4.4c-1.787-.107-3.2-.2-4.54,1.143S30.12,8.305,30.24,10.092c.12,2,.278,4.5-1.989,6.762s-4.761,2.109-6.737,1.983c-1.787-.107-3.2-.2-4.54,1.149s-1.263,2.753-1.143,4.54c.12,2,.278,4.5-1.989,6.762S9.057,33.415,7.056,33.27c-1.787-.107-3.22-.2-4.54,1.143A1.446,1.446,0,1,1,.471,32.373c2.267-2.267,4.761-2.115,6.762-1.989,1.787.114,3.2.2,4.54-1.143s1.263-2.753,1.149-4.54c-.126-2-.284-4.5,1.983-6.762s4.761-2.109,6.762-1.989c1.787.114,3.2.2,4.54-1.143s1.263-2.753,1.149-4.54c-.126-2-.284-4.5,1.983-6.762S34.1,1.392,36.1,1.518c1.787.114,3.2.2,4.546-1.143a1.446,1.446,0,0,1,2.039,2.046Z" fill="#fff"/>
      </g>
    </g>
    <g id="Datový_zdroj_20-6" data-name="Datový zdroj 20" transform="matrix(0.993, 0.122, -0.122, 0.993, 730.122, 443.354)">
      <g id="Vrstva_8-15" data-name="Vrstva 8" transform="translate(0 0)">
        <path id="Path_61-7" data-name="Path 61" d="M42.684,2.421C40.456,4.688,37.93,4.53,35.922,4.4c-1.787-.107-3.2-.2-4.54,1.143S30.12,8.305,30.24,10.092c.12,2,.278,4.5-1.989,6.762s-4.761,2.109-6.737,1.983c-1.787-.107-3.2-.2-4.54,1.149s-1.263,2.753-1.143,4.54c.12,2,.278,4.5-1.989,6.762S9.057,33.415,7.056,33.27c-1.787-.107-3.22-.2-4.54,1.143A1.446,1.446,0,1,1,.471,32.373c2.267-2.267,4.761-2.115,6.762-1.989,1.787.114,3.2.2,4.54-1.143s1.263-2.753,1.149-4.54c-.126-2-.284-4.5,1.983-6.762s4.761-2.109,6.762-1.989c1.787.114,3.2.2,4.54-1.143s1.263-2.753,1.149-4.54c-.126-2-.284-4.5,1.983-6.762S34.1,1.392,36.1,1.518c1.787.114,3.2.2,4.546-1.143a1.446,1.446,0,0,1,2.039,2.046Z" fill="#fff"/>
      </g>
    </g>
    <ellipse id="Ellipse_17" data-name="Ellipse 17" cx="3.161" cy="3.161" rx="3.161" ry="3.161" transform="translate(664.981 396.863)" fill="#fff"/>
    <ellipse id="Ellipse_18" data-name="Ellipse 18" cx="3.161" cy="3.161" rx="3.161" ry="3.161" transform="translate(772.981 491.863)" fill="#00a991"/>
  </g>
</svg>
