<svg xmlns="http://www.w3.org/2000/svg" width="122" height="98" viewBox="0 0 122 98">
  <g fill="none" fill-rule="evenodd" transform="translate(0 -1)">
    <path fill="#00A991" fill-rule="nonzero" d="M120.187 7.76c-6.223 6.329-13.275 5.888-18.881 5.536-4.989-.3-8.938-.547-12.676 3.191-3.738 3.738-3.526 7.7-3.191 12.693.335 5.589.776 12.552-5.553 18.881-6.329 6.329-13.293 5.889-18.812 5.539-4.989-.3-8.938-.547-12.676 3.209-3.738 3.756-3.526 7.687-3.191 12.676.335 5.589.776 12.552-5.553 18.881C33.325 94.695 26.291 94.3 20.7 93.9c-4.989-.3-8.991-.547-12.676 3.191A4.037 4.037 0 1 1 2.315 91.4c6.329-6.329 13.293-5.906 18.881-5.553 4.989.317 8.938.564 12.676-3.191 3.738-3.755 3.528-7.692 3.208-12.681-.353-5.589-.793-12.552 5.536-18.881 6.329-6.329 13.293-5.888 18.884-5.554 4.989.317 8.938.564 12.676-3.191 3.738-3.755 3.526-7.687 3.209-12.676-.353-5.589-.793-12.57 5.536-18.881s13.29-5.906 18.879-5.553c4.989.317 8.938.564 12.693-3.191 1.5965-1.4499 4.0506-1.389 5.5732.1384 1.5225 1.5274 1.5757 3.9817.1208 5.5736z"/>
    <path fill="#F9971E" fill-rule="nonzero" d="M69.964 86.996c-5.5217.098-10.0776-4.2988-10.1758-9.8206-.0983-5.5218 4.2983-10.0778 9.82-10.1763 5.5219-.0984 10.078 4.298 10.1767 9.8198a10 10 0 0 1-9.8208 10.177zm-5.1775-9.9628c.0197 2.7544 2.2634 4.9741 5.0178 4.9643 2.7545-.0099 4.9822-2.2455 4.9822-5 0-2.7544-2.2277-4.9901-4.9822-5-2.7544-.0098-4.998 2.21-5.0178 4.9643v.0714z"/>
    <path fill="#5F738C" fill-rule="nonzero" d="M63.899 28.703h-3.951v-3.951h-4.131v3.951h-3.951v4.131h3.951v3.951h4.131v-3.951h3.951z"/>
    <path fill="#F9971E" fill-rule="nonzero" d="M19.0786 13.6979l7.3814-.1888.0709 7.3835-2.081.0532-.0555-5.2972-5.2902.1362-.0256-2.087zm-4.5232 4.685l7.3814-.1887.0708 7.3835-2.081.0532-.0554-5.2972-5.2903.1362-.0255-2.087zm-4.5232 4.6851l7.3814-.1887.0708 7.3835-2.081.0532-.0554-5.2972-5.2903.1362-.0255-2.087zm-4.5233 4.6851l7.3815-.1887.0708 7.3835-2.085.0575-.0514-5.3015-5.2949.141-.021-2.0918z"/>
    <circle cx="19" cy="70" r="5" fill="#252A31"/>
  </g>
</svg>