<svg xmlns="http://www.w3.org/2000/svg" width="134.337" height="197.547" viewBox="0 0 134.337 197.547">
  <g id="Group_67" data-name="Group 67" transform="translate(-3202.663 -9099.453)">
    <circle id="Ellipse_51" data-name="Ellipse 51" cx="65" cy="65" r="65" transform="translate(3207 9167)" fill="#f5f7f9"/>
    <g id="Datový_zdroj_1" data-name="Datový zdroj 1" transform="translate(3202.663 9099.453)">
      <g id="Vrstva_3" data-name="Vrstva 3">
        <path id="Path_29" data-name="Path 29" d="M8.628,4.314A4.314,4.314,0,1,1,4.314,0,4.314,4.314,0,0,1,8.628,4.314Z" fill="#e5eaef"/>
        <path id="Path_30" data-name="Path 30" d="M25.118,4.314A4.314,4.314,0,1,1,20.8,0a4.314,4.314,0,0,1,4.314,4.314Z" transform="translate(4.62 0)" fill="#e5eaef"/>
        <path id="Path_31" data-name="Path 31" d="M41.608,4.314A4.314,4.314,0,1,1,37.294,0a4.314,4.314,0,0,1,4.314,4.314Z" transform="translate(9.241)" fill="#e5eaef"/>
        <path id="Path_32" data-name="Path 32" d="M58.1,4.314A4.314,4.314,0,1,1,53.784,0,4.314,4.314,0,0,1,58.1,4.314Z" transform="translate(13.861)" fill="#e5eaef"/>
        <path id="Path_33" data-name="Path 33" d="M74.588,4.314A4.314,4.314,0,1,1,70.274,0a4.314,4.314,0,0,1,4.314,4.314Z" transform="translate(18.481)" fill="#e5eaef"/>
        <path id="Path_34" data-name="Path 34" d="M91.078,4.314A4.314,4.314,0,1,1,86.764,0a4.314,4.314,0,0,1,4.314,4.314Z" transform="translate(23.102)" fill="#e5eaef"/>
        <ellipse id="Ellipse_8" data-name="Ellipse 8" cx="4.314" cy="4.314" rx="4.314" ry="4.314" transform="translate(0 21.392)" fill="#e5eaef"/>
        <path id="Path_35" data-name="Path 35" d="M25.118,21.024A4.314,4.314,0,1,1,20.8,16.71a4.314,4.314,0,0,1,4.314,4.314Z" transform="translate(4.62 4.682)" fill="#e5eaef"/>
        <path id="Path_36" data-name="Path 36" d="M41.608,21.024a4.314,4.314,0,1,1-4.314-4.314A4.314,4.314,0,0,1,41.608,21.024Z" transform="translate(9.241 4.682)" fill="#e5eaef"/>
        <ellipse id="Ellipse_9" data-name="Ellipse 9" cx="4.314" cy="4.314" rx="4.314" ry="4.314" transform="translate(63.331 21.392)" fill="#e5eaef"/>
        <ellipse id="Ellipse_10" data-name="Ellipse 10" cx="4.314" cy="4.314" rx="4.314" ry="4.314" transform="translate(84.441 21.392)" fill="#e5eaef"/>
        <ellipse id="Ellipse_11" data-name="Ellipse 11" cx="4.314" cy="4.314" rx="4.314" ry="4.314" transform="translate(105.551 21.392)" fill="#e5eaef"/>
        <path id="Path_37" data-name="Path 37" d="M8.628,37.734A4.314,4.314,0,1,1,4.314,33.42,4.314,4.314,0,0,1,8.628,37.734Z" transform="translate(0 9.364)" fill="#e5eaef"/>
        <path id="Path_38" data-name="Path 38" d="M25.118,37.734A4.314,4.314,0,1,1,20.8,33.42,4.314,4.314,0,0,1,25.118,37.734Z" transform="translate(4.62 9.364)" fill="#e5eaef"/>
        <path id="Path_39" data-name="Path 39" d="M41.608,37.734a4.314,4.314,0,1,1-4.314-4.314A4.314,4.314,0,0,1,41.608,37.734Z" transform="translate(9.241 9.364)" fill="#e5eaef"/>
        <path id="Path_40" data-name="Path 40" d="M58.1,37.734a4.314,4.314,0,1,1-4.314-4.314A4.314,4.314,0,0,1,58.1,37.734Z" transform="translate(13.861 9.364)" fill="#e5eaef"/>
        <path id="Path_41" data-name="Path 41" d="M74.588,37.734a4.314,4.314,0,1,1-4.314-4.314,4.314,4.314,0,0,1,4.314,4.314Z" transform="translate(18.481 9.364)" fill="#e5eaef"/>
        <path id="Path_42" data-name="Path 42" d="M91.078,37.734a4.314,4.314,0,1,1-4.314-4.314,4.314,4.314,0,0,1,4.314,4.314Z" transform="translate(23.102 9.364)" fill="#e5eaef"/>
        <path id="Path_43" data-name="Path 43" d="M8.628,54.444A4.314,4.314,0,1,1,4.314,50.13a4.314,4.314,0,0,1,4.314,4.314Z" transform="translate(0 14.046)" fill="#e5eaef"/>
        <path id="Path_44" data-name="Path 44" d="M25.118,54.444A4.314,4.314,0,1,1,20.8,50.13a4.314,4.314,0,0,1,4.314,4.314Z" transform="translate(4.62 14.046)" fill="#e5eaef"/>
        <path id="Path_45" data-name="Path 45" d="M41.608,54.444a4.314,4.314,0,1,1-4.314-4.314,4.314,4.314,0,0,1,4.314,4.314Z" transform="translate(9.241 14.046)" fill="#e5eaef"/>
        <path id="Path_46" data-name="Path 46" d="M58.1,54.444a4.314,4.314,0,1,1-4.314-4.314A4.314,4.314,0,0,1,58.1,54.444Z" transform="translate(13.861 14.046)" fill="#e5eaef"/>
        <path id="Path_47" data-name="Path 47" d="M74.588,54.444a4.314,4.314,0,1,1-4.314-4.314,4.314,4.314,0,0,1,4.314,4.314Z" transform="translate(18.481 14.046)" fill="#e5eaef"/>
        <path id="Path_48" data-name="Path 48" d="M91.078,54.444a4.314,4.314,0,1,1-4.314-4.314,4.314,4.314,0,0,1,4.314,4.314Z" transform="translate(23.102 14.046)" fill="#e5eaef"/>
        <ellipse id="Ellipse_12" data-name="Ellipse 12" cx="4.314" cy="4.314" rx="4.314" ry="4.314" transform="translate(0 85.568)" fill="#e5eaef"/>
        <path id="Path_49" data-name="Path 49" d="M25.118,71.154A4.314,4.314,0,1,1,20.8,66.84,4.314,4.314,0,0,1,25.118,71.154Z" transform="translate(4.62 18.728)" fill="#e5eaef"/>
        <path id="Path_50" data-name="Path 50" d="M41.608,71.154a4.314,4.314,0,1,1-4.314-4.314A4.314,4.314,0,0,1,41.608,71.154Z" transform="translate(9.241 18.728)" fill="#e5eaef"/>
        <ellipse id="Ellipse_13" data-name="Ellipse 13" cx="4.314" cy="4.314" rx="4.314" ry="4.314" transform="translate(63.331 85.568)" fill="#e5eaef"/>
        <ellipse id="Ellipse_14" data-name="Ellipse 14" cx="4.314" cy="4.314" rx="4.314" ry="4.314" transform="translate(84.441 85.568)" fill="#e5eaef"/>
        <ellipse id="Ellipse_15" data-name="Ellipse 15" cx="4.314" cy="4.314" rx="4.314" ry="4.314" transform="translate(105.551 85.568)" fill="#e5eaef"/>
      </g>
    </g>
    <g id="Datový_zdroj_1-2" data-name="Datový zdroj 1" transform="translate(3202.663 9184.067)">
      <g id="Vrstva_3-2" data-name="Vrstva 3">
        <path id="Path_29-2" data-name="Path 29" d="M8.628,4.314A4.314,4.314,0,1,1,4.314,0,4.314,4.314,0,0,1,8.628,4.314Z" fill="#e5eaef"/>
        <path id="Path_30-2" data-name="Path 30" d="M25.118,4.314A4.314,4.314,0,1,1,20.8,0a4.314,4.314,0,0,1,4.314,4.314Z" transform="translate(4.62 0)" fill="#e5eaef"/>
        <path id="Path_31-2" data-name="Path 31" d="M41.608,4.314A4.314,4.314,0,1,1,37.294,0a4.314,4.314,0,0,1,4.314,4.314Z" transform="translate(9.241)" fill="#e5eaef"/>
        <path id="Path_32-2" data-name="Path 32" d="M58.1,4.314A4.314,4.314,0,1,1,53.784,0,4.314,4.314,0,0,1,58.1,4.314Z" transform="translate(13.861)" fill="#e5eaef"/>
        <path id="Path_33-2" data-name="Path 33" d="M74.588,4.314A4.314,4.314,0,1,1,70.274,0a4.314,4.314,0,0,1,4.314,4.314Z" transform="translate(18.481)" fill="#e5eaef"/>
        <path id="Path_34-2" data-name="Path 34" d="M91.078,4.314A4.314,4.314,0,1,1,86.764,0a4.314,4.314,0,0,1,4.314,4.314Z" transform="translate(23.102)" fill="#e5eaef"/>
        <ellipse id="Ellipse_8-2" data-name="Ellipse 8" cx="4.314" cy="4.314" rx="4.314" ry="4.314" transform="translate(0 21.392)" fill="#e5eaef"/>
        <path id="Path_35-2" data-name="Path 35" d="M25.118,21.024A4.314,4.314,0,1,1,20.8,16.71a4.314,4.314,0,0,1,4.314,4.314Z" transform="translate(4.62 4.682)" fill="#e5eaef"/>
        <path id="Path_36-2" data-name="Path 36" d="M41.608,21.024a4.314,4.314,0,1,1-4.314-4.314A4.314,4.314,0,0,1,41.608,21.024Z" transform="translate(9.241 4.682)" fill="#e5eaef"/>
        <ellipse id="Ellipse_9-2" data-name="Ellipse 9" cx="4.314" cy="4.314" rx="4.314" ry="4.314" transform="translate(63.331 21.392)" fill="#e5eaef"/>
        <ellipse id="Ellipse_10-2" data-name="Ellipse 10" cx="4.314" cy="4.314" rx="4.314" ry="4.314" transform="translate(84.441 21.392)" fill="#e5eaef"/>
        <ellipse id="Ellipse_11-2" data-name="Ellipse 11" cx="4.314" cy="4.314" rx="4.314" ry="4.314" transform="translate(105.551 21.392)" fill="#e5eaef"/>
        <path id="Path_37-2" data-name="Path 37" d="M8.628,37.734A4.314,4.314,0,1,1,4.314,33.42,4.314,4.314,0,0,1,8.628,37.734Z" transform="translate(0 9.364)" fill="#e5eaef"/>
        <path id="Path_38-2" data-name="Path 38" d="M25.118,37.734A4.314,4.314,0,1,1,20.8,33.42,4.314,4.314,0,0,1,25.118,37.734Z" transform="translate(4.62 9.364)" fill="#e5eaef"/>
        <path id="Path_39-2" data-name="Path 39" d="M41.608,37.734a4.314,4.314,0,1,1-4.314-4.314A4.314,4.314,0,0,1,41.608,37.734Z" transform="translate(9.241 9.364)" fill="#e5eaef"/>
        <path id="Path_40-2" data-name="Path 40" d="M58.1,37.734a4.314,4.314,0,1,1-4.314-4.314A4.314,4.314,0,0,1,58.1,37.734Z" transform="translate(13.861 9.364)" fill="#e5eaef"/>
        <path id="Path_41-2" data-name="Path 41" d="M74.588,37.734a4.314,4.314,0,1,1-4.314-4.314,4.314,4.314,0,0,1,4.314,4.314Z" transform="translate(18.481 9.364)" fill="#e5eaef"/>
        <path id="Path_42-2" data-name="Path 42" d="M91.078,37.734a4.314,4.314,0,1,1-4.314-4.314,4.314,4.314,0,0,1,4.314,4.314Z" transform="translate(23.102 9.364)" fill="#e5eaef"/>
        <path id="Path_43-2" data-name="Path 43" d="M8.628,54.444A4.314,4.314,0,1,1,4.314,50.13a4.314,4.314,0,0,1,4.314,4.314Z" transform="translate(0 14.046)" fill="#e5eaef"/>
        <path id="Path_44-2" data-name="Path 44" d="M25.118,54.444A4.314,4.314,0,1,1,20.8,50.13a4.314,4.314,0,0,1,4.314,4.314Z" transform="translate(4.62 14.046)" fill="#e5eaef"/>
        <path id="Path_45-2" data-name="Path 45" d="M41.608,54.444a4.314,4.314,0,1,1-4.314-4.314,4.314,4.314,0,0,1,4.314,4.314Z" transform="translate(9.241 14.046)" fill="#e5eaef"/>
        <path id="Path_46-2" data-name="Path 46" d="M58.1,54.444a4.314,4.314,0,1,1-4.314-4.314A4.314,4.314,0,0,1,58.1,54.444Z" transform="translate(13.861 14.046)" fill="#e5eaef"/>
        <path id="Path_47-2" data-name="Path 47" d="M74.588,54.444a4.314,4.314,0,1,1-4.314-4.314,4.314,4.314,0,0,1,4.314,4.314Z" transform="translate(18.481 14.046)" fill="#e5eaef"/>
        <path id="Path_48-2" data-name="Path 48" d="M91.078,54.444a4.314,4.314,0,1,1-4.314-4.314,4.314,4.314,0,0,1,4.314,4.314Z" transform="translate(23.102 14.046)" fill="#e5eaef"/>
        <ellipse id="Ellipse_12-2" data-name="Ellipse 12" cx="4.314" cy="4.314" rx="4.314" ry="4.314" transform="translate(0 85.568)" fill="#e5eaef"/>
        <path id="Path_49-2" data-name="Path 49" d="M25.118,71.154A4.314,4.314,0,1,1,20.8,66.84,4.314,4.314,0,0,1,25.118,71.154Z" transform="translate(4.62 18.728)" fill="#e5eaef"/>
        <path id="Path_50-2" data-name="Path 50" d="M41.608,71.154a4.314,4.314,0,1,1-4.314-4.314A4.314,4.314,0,0,1,41.608,71.154Z" transform="translate(9.241 18.728)" fill="#e5eaef"/>
        <ellipse id="Ellipse_13-2" data-name="Ellipse 13" cx="4.314" cy="4.314" rx="4.314" ry="4.314" transform="translate(63.331 85.568)" fill="#e5eaef"/>
        <ellipse id="Ellipse_14-2" data-name="Ellipse 14" cx="4.314" cy="4.314" rx="4.314" ry="4.314" transform="translate(84.441 85.568)" fill="#e5eaef"/>
        <ellipse id="Ellipse_15-2" data-name="Ellipse 15" cx="4.314" cy="4.314" rx="4.314" ry="4.314" transform="translate(105.551 85.568)" fill="#e5eaef"/>
      </g>
    </g>
  </g>
</svg>
