<svg xmlns="http://www.w3.org/2000/svg" width="67.89" height="56.008"><path d="M5.13 2.565A2.565 2.565 0 1 1 2.565 0 2.565 2.565 0 0 1 5.13 2.565zM17.682 2.565A2.565 2.565 0 1 1 15.117 0a2.565 2.565 0 0 1 2.565 2.565zM30.234 2.565A2.565 2.565 0 1 1 27.669 0a2.565 2.565 0 0 1 2.565 2.565zM42.786 2.565A2.565 2.565 0 1 1 40.221 0a2.565 2.565 0 0 1 2.565 2.565zM55.338 2.565A2.565 2.565 0 1 1 52.773 0a2.565 2.565 0 0 1 2.565 2.565zM67.89 2.565A2.565 2.565 0 1 1 65.325 0a2.565 2.565 0 0 1 2.565 2.565z" fill="#fff"/><circle cx="2.565" cy="2.565" r="2.565" transform="translate(0 12.719)" fill="#fff"/><path d="M17.682 15.284a2.565 2.565 0 1 1-2.565-2.565 2.565 2.565 0 0 1 2.565 2.565zM30.234 15.284a2.565 2.565 0 1 1-2.565-2.565 2.565 2.565 0 0 1 2.565 2.565z" fill="#fff"/><circle cx="2.565" cy="2.565" r="2.565" transform="translate(37.656 12.719)" fill="#fff"/><circle cx="2.565" cy="2.565" r="2.565" transform="translate(50.208 12.719)" fill="#fff"/><circle cx="2.565" cy="2.565" r="2.565" transform="translate(62.76 12.719)" fill="#fff"/><path d="M5.13 28.004a2.565 2.565 0 1 1-2.565-2.565 2.565 2.565 0 0 1 2.565 2.565zM17.682 28.004a2.565 2.565 0 1 1-2.565-2.565 2.565 2.565 0 0 1 2.565 2.565zM30.234 28.004a2.565 2.565 0 1 1-2.565-2.565 2.565 2.565 0 0 1 2.565 2.565zM42.786 28.004a2.565 2.565 0 1 1-2.565-2.565 2.565 2.565 0 0 1 2.565 2.565zM55.338 28.004a2.565 2.565 0 1 1-2.565-2.565 2.565 2.565 0 0 1 2.565 2.565zM67.89 28.004a2.565 2.565 0 1 1-2.565-2.565 2.565 2.565 0 0 1 2.565 2.565zM5.13 40.728a2.565 2.565 0 1 1-2.565-2.57 2.565 2.565 0 0 1 2.565 2.57zM17.682 40.728a2.565 2.565 0 1 1-2.565-2.565 2.565 2.565 0 0 1 2.565 2.565zM30.234 40.728a2.565 2.565 0 1 1-2.565-2.565 2.565 2.565 0 0 1 2.565 2.565zM42.786 40.728a2.565 2.565 0 1 1-2.565-2.565 2.565 2.565 0 0 1 2.565 2.565zM55.338 40.728a2.565 2.565 0 1 1-2.565-2.565 2.565 2.565 0 0 1 2.565 2.565zM67.89 40.728a2.565 2.565 0 1 1-2.565-2.565 2.565 2.565 0 0 1 2.565 2.565z" fill="#fff"/><circle cx="2.565" cy="2.565" r="2.565" transform="translate(0 50.878)" fill="#fff"/><path d="M17.682 53.443a2.565 2.565 0 1 1-2.565-2.565 2.565 2.565 0 0 1 2.565 2.565zM30.234 53.443a2.565 2.565 0 1 1-2.565-2.565 2.565 2.565 0 0 1 2.565 2.565z" fill="#fff"/><circle cx="2.565" cy="2.565" r="2.565" transform="translate(37.656 50.878)" fill="#fff"/><circle cx="2.565" cy="2.565" r="2.565" transform="translate(50.208 50.878)" fill="#fff"/><circle cx="2.565" cy="2.565" r="2.565" transform="translate(62.76 50.878)" fill="#fff"/></svg>
