<svg height="56.008" width="67.89" xmlns="http://www.w3.org/2000/svg"><g fill="#E5EAEF"><path d="m5.13 2.565a2.565 2.565 0 1 1 -2.565-2.565 2.565 2.565 0 0 1 2.565 2.565zm12.552 0a2.565 2.565 0 1 1 -2.565-2.565 2.565 2.565 0 0 1 2.565 2.565zm12.552 0a2.565 2.565 0 1 1 -2.565-2.565 2.565 2.565 0 0 1 2.565 2.565zm12.552 0a2.565 2.565 0 1 1 -2.565-2.565 2.565 2.565 0 0 1 2.565 2.565zm12.552 0a2.565 2.565 0 1 1 -2.565-2.565 2.565 2.565 0 0 1 2.565 2.565zm12.552 0a2.565 2.565 0 1 1 -2.565-2.565 2.565 2.565 0 0 1 2.565 2.565z"/><circle cx="2.565" cy="15.284" r="2.565"/><path d="m17.682 15.284a2.565 2.565 0 1 1 -2.565-2.565 2.565 2.565 0 0 1 2.565 2.565zm12.552 0a2.565 2.565 0 1 1 -2.565-2.565 2.565 2.565 0 0 1 2.565 2.565z"/><circle cx="40.221" cy="15.284" r="2.565"/><circle cx="52.773" cy="15.284" r="2.565"/><circle cx="65.325" cy="15.284" r="2.565"/><path d="m5.13 28.004a2.565 2.565 0 1 1 -2.565-2.565 2.565 2.565 0 0 1 2.565 2.565zm12.552 0a2.565 2.565 0 1 1 -2.565-2.565 2.565 2.565 0 0 1 2.565 2.565zm12.552 0a2.565 2.565 0 1 1 -2.565-2.565 2.565 2.565 0 0 1 2.565 2.565zm12.552 0a2.565 2.565 0 1 1 -2.565-2.565 2.565 2.565 0 0 1 2.565 2.565zm12.552 0a2.565 2.565 0 1 1 -2.565-2.565 2.565 2.565 0 0 1 2.565 2.565zm12.552 0a2.565 2.565 0 1 1 -2.565-2.565 2.565 2.565 0 0 1 2.565 2.565zm-62.76 12.724a2.565 2.565 0 1 1 -2.565-2.57 2.565 2.565 0 0 1 2.565 2.57zm12.552 0a2.565 2.565 0 1 1 -2.565-2.565 2.565 2.565 0 0 1 2.565 2.565zm12.552 0a2.565 2.565 0 1 1 -2.565-2.565 2.565 2.565 0 0 1 2.565 2.565zm12.552 0a2.565 2.565 0 1 1 -2.565-2.565 2.565 2.565 0 0 1 2.565 2.565zm12.552 0a2.565 2.565 0 1 1 -2.565-2.565 2.565 2.565 0 0 1 2.565 2.565zm12.552 0a2.565 2.565 0 1 1 -2.565-2.565 2.565 2.565 0 0 1 2.565 2.565z"/><circle cx="2.565" cy="53.443" r="2.565"/><path d="m17.682 53.443a2.565 2.565 0 1 1 -2.565-2.565 2.565 2.565 0 0 1 2.565 2.565zm12.552 0a2.565 2.565 0 1 1 -2.565-2.565 2.565 2.565 0 0 1 2.565 2.565z"/><circle cx="40.221" cy="53.443" r="2.565"/><circle cx="52.773" cy="53.443" r="2.565"/><circle cx="65.325" cy="53.443" r="2.565"/></g></svg>
