<svg xmlns="http://www.w3.org/2000/svg" width="1369" height="577" viewBox="0 0 1369 577">
  <g fill="none" fill-rule="evenodd" transform="translate(-1 -1)">
    <g fill="#CAD5DF" fill-rule="nonzero" transform="translate(823.932 276.572)">
      <path d="M5.718 2.859c0 1.579-1.28 2.859-2.859 2.859S0 4.438 0 2.859 1.28 0 2.859 0a2.859 2.859 0 0 1 2.859 2.859zM19.709 2.859c0 1.579-1.28 2.859-2.859 2.859s-2.859-1.28-2.859-2.859S15.271 0 16.85 0s2.859 1.28 2.859 2.859zM33.702 2.859c0 1.5787-1.2796 2.8586-2.8583 2.859-1.5788.0004-2.859-1.279-2.8597-2.8577C27.9833 1.2816 29.2623.0011 30.841 0a2.859 2.859 0 0 1 2.861 2.859zM47.69 2.859c0 1.579-1.28 2.859-2.859 2.859s-2.859-1.28-2.859-2.859S43.252 0 44.831 0s2.859 1.28 2.859 2.859zM61.681 2.859c0 1.579-1.28 2.859-2.859 2.859s-2.859-1.28-2.859-2.859S57.243 0 58.822 0s2.859 1.28 2.859 2.859zM75.672 2.859c0 1.579-1.28 2.859-2.859 2.859s-2.859-1.28-2.859-2.859S71.234 0 72.813 0s2.859 1.28 2.859 2.859z"/>
      <circle cx="2.859" cy="17.036" r="2.859"/>
      <path d="M19.709 17.036a2.859 2.859 0 1 1-5.718 0 2.859 2.859 0 0 1 5.718 0zM33.702 17.036a2.859 2.859 0 1 1-2.859-2.859c1.579 0 2.859 1.28 2.859 2.859z"/>
      <circle cx="44.831" cy="17.036" r="2.859"/>
      <circle cx="58.822" cy="17.036" r="2.859"/>
      <circle cx="72.813" cy="17.036" r="2.859"/>
      <path d="M5.718 31.214c0 1.579-1.28 2.859-2.859 2.859S0 32.793 0 31.214s1.28-2.859 2.859-2.859a2.859 2.859 0 0 1 2.859 2.859zM19.709 31.214c0 1.579-1.28 2.859-2.859 2.859s-2.859-1.28-2.859-2.859 1.28-2.859 2.859-2.859 2.859 1.28 2.859 2.859zM33.702 31.214c0 1.579-1.28 2.859-2.859 2.859s-2.859-1.28-2.859-2.859 1.28-2.859 2.859-2.859 2.859 1.28 2.859 2.859zM47.69 31.214c0 1.579-1.28 2.859-2.859 2.859s-2.859-1.28-2.859-2.859 1.28-2.859 2.859-2.859a2.859 2.859 0 0 1 2.859 2.859zM61.681 31.214c0 1.579-1.28 2.859-2.859 2.859s-2.859-1.28-2.859-2.859 1.28-2.859 2.859-2.859 2.859 1.28 2.859 2.859zM75.672 31.214c0 1.579-1.28 2.859-2.859 2.859s-2.859-1.28-2.859-2.859 1.28-2.859 2.859-2.859 2.859 1.28 2.859 2.859zM5.718 45.391c0 1.579-1.28 2.859-2.859 2.859S0 46.97 0 45.391s1.28-2.859 2.859-2.859a2.859 2.859 0 0 1 2.859 2.859zM19.709 45.391c0 1.579-1.28 2.859-2.859 2.859s-2.859-1.28-2.859-2.859 1.28-2.859 2.859-2.859 2.859 1.28 2.859 2.859zM33.702 45.391c0 1.579-1.28 2.859-2.859 2.859s-2.859-1.28-2.859-2.859 1.28-2.859 2.859-2.859 2.859 1.28 2.859 2.859zM47.69 45.391c0 1.579-1.28 2.859-2.859 2.859s-2.859-1.28-2.859-2.859 1.28-2.859 2.859-2.859 2.859 1.28 2.859 2.859zM61.681 45.391c0 1.579-1.28 2.859-2.859 2.859s-2.859-1.28-2.859-2.859 1.28-2.859 2.859-2.859 2.859 1.28 2.859 2.859zM75.672 45.391c0 1.579-1.28 2.859-2.859 2.859s-2.859-1.28-2.859-2.859 1.28-2.859 2.859-2.859 2.859 1.28 2.859 2.859z"/>
      <circle cx="2.859" cy="59.569" r="2.859"/>
      <path d="M19.709 59.57a2.859 2.859 0 1 1-2.859-2.859c1.579 0 2.859 1.28 2.859 2.859zM33.702 59.57a2.859 2.859 0 1 1-2.859-2.859c1.579 0 2.859 1.28 2.859 2.859z"/>
      <circle cx="44.831" cy="59.569" r="2.859"/>
      <circle cx="58.822" cy="59.569" r="2.859"/>
      <circle cx="72.813" cy="59.569" r="2.859"/>
    </g>
    <g fill="#CAD5DF" fill-rule="nonzero" transform="translate(1073.932 316.572)">
      <path d="M5.718 2.859c0 1.579-1.28 2.859-2.859 2.859S0 4.438 0 2.859 1.28 0 2.859 0a2.859 2.859 0 0 1 2.859 2.859zM19.709 2.859c0 1.579-1.28 2.859-2.859 2.859s-2.859-1.28-2.859-2.859S15.271 0 16.85 0s2.859 1.28 2.859 2.859zM33.702 2.859c0 1.5787-1.2796 2.8586-2.8583 2.859-1.5788.0004-2.859-1.279-2.8597-2.8577C27.9833 1.2816 29.2623.0011 30.841 0a2.859 2.859 0 0 1 2.861 2.859zM47.69 2.859c0 1.579-1.28 2.859-2.859 2.859s-2.859-1.28-2.859-2.859S43.252 0 44.831 0s2.859 1.28 2.859 2.859zM61.681 2.859c0 1.579-1.28 2.859-2.859 2.859s-2.859-1.28-2.859-2.859S57.243 0 58.822 0s2.859 1.28 2.859 2.859zM75.672 2.859c0 1.579-1.28 2.859-2.859 2.859s-2.859-1.28-2.859-2.859S71.234 0 72.813 0s2.859 1.28 2.859 2.859z"/>
      <circle cx="2.859" cy="17.036" r="2.859"/>
      <path d="M19.709 17.036a2.859 2.859 0 1 1-5.718 0 2.859 2.859 0 0 1 5.718 0zM33.702 17.036a2.859 2.859 0 1 1-2.859-2.859c1.579 0 2.859 1.28 2.859 2.859z"/>
      <circle cx="44.831" cy="17.036" r="2.859"/>
      <circle cx="58.822" cy="17.036" r="2.859"/>
      <circle cx="72.813" cy="17.036" r="2.859"/>
      <path d="M5.718 31.214c0 1.579-1.28 2.859-2.859 2.859S0 32.793 0 31.214s1.28-2.859 2.859-2.859a2.859 2.859 0 0 1 2.859 2.859zM19.709 31.214c0 1.579-1.28 2.859-2.859 2.859s-2.859-1.28-2.859-2.859 1.28-2.859 2.859-2.859 2.859 1.28 2.859 2.859zM33.702 31.214c0 1.579-1.28 2.859-2.859 2.859s-2.859-1.28-2.859-2.859 1.28-2.859 2.859-2.859 2.859 1.28 2.859 2.859zM47.69 31.214c0 1.579-1.28 2.859-2.859 2.859s-2.859-1.28-2.859-2.859 1.28-2.859 2.859-2.859a2.859 2.859 0 0 1 2.859 2.859zM61.681 31.214c0 1.579-1.28 2.859-2.859 2.859s-2.859-1.28-2.859-2.859 1.28-2.859 2.859-2.859 2.859 1.28 2.859 2.859zM75.672 31.214c0 1.579-1.28 2.859-2.859 2.859s-2.859-1.28-2.859-2.859 1.28-2.859 2.859-2.859 2.859 1.28 2.859 2.859zM5.718 45.391c0 1.579-1.28 2.859-2.859 2.859S0 46.97 0 45.391s1.28-2.859 2.859-2.859a2.859 2.859 0 0 1 2.859 2.859zM19.709 45.391c0 1.579-1.28 2.859-2.859 2.859s-2.859-1.28-2.859-2.859 1.28-2.859 2.859-2.859 2.859 1.28 2.859 2.859zM33.702 45.391c0 1.579-1.28 2.859-2.859 2.859s-2.859-1.28-2.859-2.859 1.28-2.859 2.859-2.859 2.859 1.28 2.859 2.859zM47.69 45.391c0 1.579-1.28 2.859-2.859 2.859s-2.859-1.28-2.859-2.859 1.28-2.859 2.859-2.859 2.859 1.28 2.859 2.859zM61.681 45.391c0 1.579-1.28 2.859-2.859 2.859s-2.859-1.28-2.859-2.859 1.28-2.859 2.859-2.859 2.859 1.28 2.859 2.859zM75.672 45.391c0 1.579-1.28 2.859-2.859 2.859s-2.859-1.28-2.859-2.859 1.28-2.859 2.859-2.859 2.859 1.28 2.859 2.859z"/>
      <circle cx="2.859" cy="59.569" r="2.859"/>
      <path d="M19.709 59.57a2.859 2.859 0 1 1-2.859-2.859c1.579 0 2.859 1.28 2.859 2.859zM33.702 59.57a2.859 2.859 0 1 1-2.859-2.859c1.579 0 2.859 1.28 2.859 2.859z"/>
      <circle cx="44.831" cy="59.569" r="2.859"/>
      <circle cx="58.822" cy="59.569" r="2.859"/>
      <circle cx="72.813" cy="59.569" r="2.859"/>
    </g>
    <g fill="#CAD5DF" fill-rule="nonzero" transform="translate(349.932 222.98)">
      <path d="M3.3 1.65c0 .9113-.7387 1.65-1.65 1.65C.7387 3.3 0 2.5613 0 1.65 0 .7387.7387 0 1.65 0A1.65 1.65 0 0 1 3.3 1.65zM11.371 1.65A1.65 1.65 0 1 1 9.722 0c.9113 0 1.65.7387 1.65 1.65h-.001zM19.444 1.65A1.65 1.65 0 1 1 17.795 0c.9113 0 1.65.7387 1.65 1.65h-.001zM27.516 1.65A1.65 1.65 0 1 1 25.867 0c.9113 0 1.65.7387 1.65 1.65h-.001zM35.588 1.65A1.65 1.65 0 1 1 33.939 0c.9113 0 1.65.7387 1.65 1.65h-.001zM43.661 1.65A1.65 1.65 0 1 1 42.012 0c.9113 0 1.65.7387 1.65 1.65h-.001z"/>
      <circle cx="1.65" cy="9.83" r="1.65"/>
      <path d="M11.371 9.83a1.65 1.65 0 1 1-1.65-1.65c.9113 0 1.65.7387 1.65 1.65zM19.444 9.83a1.65 1.65 0 1 1-1.65-1.65c.9113 0 1.65.7387 1.65 1.65z"/>
      <circle cx="25.867" cy="9.83" r="1.65"/>
      <circle cx="33.939" cy="9.83" r="1.65"/>
      <circle cx="42.012" cy="9.83" r="1.65"/>
      <path d="M3.3 18.01a1.65 1.65 0 1 1-1.65-1.65c.9113 0 1.65.7387 1.65 1.65zM11.371 18.01a1.65 1.65 0 1 1-1.65-1.65c.9113 0 1.65.7387 1.65 1.65zM19.444 18.01a1.65 1.65 0 1 1-1.65-1.65c.9113 0 1.65.7387 1.65 1.65zM27.516 18.01a1.65 1.65 0 1 1-1.65-1.65c.9113 0 1.65.7387 1.65 1.65zM35.588 18.01a1.65 1.65 0 1 1-1.65-1.65c.9113 0 1.65.7387 1.65 1.65zM43.661 18.01c0 .9113-.7387 1.65-1.65 1.65-.9113 0-1.65-.7387-1.65-1.65 0-.9113.7387-1.65 1.65-1.65a1.65 1.65 0 0 1 1.65 1.65zM3.3 26.19c0 .9113-.7387 1.65-1.65 1.65-.9113 0-1.65-.7387-1.65-1.65 0-.9113.7387-1.65 1.65-1.65a1.65 1.65 0 0 1 1.65 1.65zM11.371 26.19c0 .9113-.7387 1.65-1.65 1.65-.9113 0-1.65-.7387-1.65-1.65 0-.9113.7387-1.65 1.65-1.65.9113 0 1.65.7387 1.65 1.65zM19.444 26.19c0 .9113-.7387 1.65-1.65 1.65-.9113 0-1.65-.7387-1.65-1.65 0-.9113.7387-1.65 1.65-1.65.9113 0 1.65.7387 1.65 1.65zM27.516 26.19c0 .9113-.7387 1.65-1.65 1.65-.9113 0-1.65-.7387-1.65-1.65 0-.9113.7387-1.65 1.65-1.65.9113 0 1.65.7387 1.65 1.65zM35.588 26.19c0 .9113-.7387 1.65-1.65 1.65-.9113 0-1.65-.7387-1.65-1.65 0-.9113.7387-1.65 1.65-1.65.9113 0 1.65.7387 1.65 1.65zM43.661 26.19c0 .9113-.7387 1.65-1.65 1.65-.9113 0-1.65-.7387-1.65-1.65 0-.9113.7387-1.65 1.65-1.65a1.65 1.65 0 0 1 1.65 1.65z"/>
      <circle cx="1.65" cy="34.37" r="1.65"/>
      <path d="M11.371 34.37c0 .9113-.7387 1.65-1.65 1.65-.9113 0-1.65-.7387-1.65-1.65 0-.9113.7387-1.65 1.65-1.65a1.65 1.65 0 0 1 1.65 1.65zM19.444 34.37c0 .9113-.7387 1.65-1.65 1.65-.9113 0-1.65-.7387-1.65-1.65 0-.9113.7387-1.65 1.65-1.65a1.65 1.65 0 0 1 1.65 1.65z"/>
      <circle cx="25.867" cy="34.37" r="1.65"/>
      <circle cx="33.939" cy="34.37" r="1.65"/>
      <circle cx="42.012" cy="34.37" r="1.65"/>
    </g>
    <g fill="#CAD5DF" fill-rule="nonzero" transform="translate(349.932 222.98)">
      <path d="M3.3 1.65c0 .9113-.7387 1.65-1.65 1.65C.7387 3.3 0 2.5613 0 1.65 0 .7387.7387 0 1.65 0A1.65 1.65 0 0 1 3.3 1.65zM11.371 1.65A1.65 1.65 0 1 1 9.722 0c.9113 0 1.65.7387 1.65 1.65h-.001zM19.444 1.65A1.65 1.65 0 1 1 17.795 0c.9113 0 1.65.7387 1.65 1.65h-.001zM27.516 1.65A1.65 1.65 0 1 1 25.867 0c.9113 0 1.65.7387 1.65 1.65h-.001zM35.588 1.65A1.65 1.65 0 1 1 33.939 0c.9113 0 1.65.7387 1.65 1.65h-.001zM43.661 1.65A1.65 1.65 0 1 1 42.012 0c.9113 0 1.65.7387 1.65 1.65h-.001z"/>
      <circle cx="1.65" cy="9.83" r="1.65"/>
      <path d="M11.371 9.83a1.65 1.65 0 1 1-1.65-1.65c.9113 0 1.65.7387 1.65 1.65zM19.444 9.83a1.65 1.65 0 1 1-1.65-1.65c.9113 0 1.65.7387 1.65 1.65z"/>
      <circle cx="25.867" cy="9.83" r="1.65"/>
      <circle cx="33.939" cy="9.83" r="1.65"/>
      <circle cx="42.012" cy="9.83" r="1.65"/>
      <path d="M3.3 18.01a1.65 1.65 0 1 1-1.65-1.65c.9113 0 1.65.7387 1.65 1.65zM11.371 18.01a1.65 1.65 0 1 1-1.65-1.65c.9113 0 1.65.7387 1.65 1.65zM19.444 18.01a1.65 1.65 0 1 1-1.65-1.65c.9113 0 1.65.7387 1.65 1.65zM27.516 18.01a1.65 1.65 0 1 1-1.65-1.65c.9113 0 1.65.7387 1.65 1.65zM35.588 18.01a1.65 1.65 0 1 1-1.65-1.65c.9113 0 1.65.7387 1.65 1.65zM43.661 18.01c0 .9113-.7387 1.65-1.65 1.65-.9113 0-1.65-.7387-1.65-1.65 0-.9113.7387-1.65 1.65-1.65a1.65 1.65 0 0 1 1.65 1.65zM3.3 26.19c0 .9113-.7387 1.65-1.65 1.65-.9113 0-1.65-.7387-1.65-1.65 0-.9113.7387-1.65 1.65-1.65a1.65 1.65 0 0 1 1.65 1.65zM11.371 26.19c0 .9113-.7387 1.65-1.65 1.65-.9113 0-1.65-.7387-1.65-1.65 0-.9113.7387-1.65 1.65-1.65.9113 0 1.65.7387 1.65 1.65zM19.444 26.19c0 .9113-.7387 1.65-1.65 1.65-.9113 0-1.65-.7387-1.65-1.65 0-.9113.7387-1.65 1.65-1.65.9113 0 1.65.7387 1.65 1.65zM27.516 26.19c0 .9113-.7387 1.65-1.65 1.65-.9113 0-1.65-.7387-1.65-1.65 0-.9113.7387-1.65 1.65-1.65.9113 0 1.65.7387 1.65 1.65zM35.588 26.19c0 .9113-.7387 1.65-1.65 1.65-.9113 0-1.65-.7387-1.65-1.65 0-.9113.7387-1.65 1.65-1.65.9113 0 1.65.7387 1.65 1.65zM43.661 26.19c0 .9113-.7387 1.65-1.65 1.65-.9113 0-1.65-.7387-1.65-1.65 0-.9113.7387-1.65 1.65-1.65a1.65 1.65 0 0 1 1.65 1.65z"/>
      <circle cx="1.65" cy="34.37" r="1.65"/>
      <path d="M11.371 34.37c0 .9113-.7387 1.65-1.65 1.65-.9113 0-1.65-.7387-1.65-1.65 0-.9113.7387-1.65 1.65-1.65a1.65 1.65 0 0 1 1.65 1.65zM19.444 34.37c0 .9113-.7387 1.65-1.65 1.65-.9113 0-1.65-.7387-1.65-1.65 0-.9113.7387-1.65 1.65-1.65a1.65 1.65 0 0 1 1.65 1.65z"/>
      <circle cx="25.867" cy="34.37" r="1.65"/>
      <circle cx="33.939" cy="34.37" r="1.65"/>
      <circle cx="42.012" cy="34.37" r="1.65"/>
    </g>
    <path fill="#FFF" fill-rule="nonzero" d="M372.432 382V244.423H241.388v48.642h77.319c-3.267 14.52-21.054 42.108-63.525 42.108-41.745 0-77.319-27.951-77.319-81.675 0-57.354 41.019-80.586 75.867-80.586 42.834 0 59.895 29.04 63.888 45.012l55.176-19.239c-11.253-35.937-45.375-79.5-119.064-79.5-72.6 0-133.947 53.361-133.947 134.31 0 81.312 58.806 133.947 130.317 133.947 36.663 0 60.984-15.246 72.237-31.581l3.63 26.139h46.465zm99.825 0V119.188h-55.176V382h55.176zm131.405-45.375c-20.691 0-40.656-14.883-40.656-45.012 0-30.492 19.965-44.649 40.656-44.649 21.054 0 40.656 14.157 40.656 44.649s-19.602 45.012-40.656 45.012zm0-140.481c-53.724 0-95.832 39.567-95.832 95.469 0 55.902 42.108 95.832 95.832 95.832 54.087 0 95.832-39.93 95.832-95.832 0-55.902-41.745-95.469-95.832-95.469zM788.432 382v-20.328c8.349 13.794 26.862 24.321 50.82 24.321 50.457 0 86.031-39.567 86.031-94.743 0-54.087-31.581-94.017-83.853-94.017-24.684 0-44.649 10.164-52.272 21.417v-99.462h-54.09V382h53.364zm81.675-90.387c0 30.129-19.239 45.012-40.656 45.012-21.417 0-41.019-15.246-41.019-45.012 0-30.492 19.6-44.649 41.019-44.649 21.419 0 40.653 14.157 40.653 44.649h.003zm79.86 40.656c0 28.677 22.869 54.813 62.436 54.813 23.958 0 41.382-10.164 50.82-25.41-.003 12.342 1.449 18.876 1.809 20.328h49.731a177.2879 177.2879 0 0 1-2.178-27.951V265.84c0-37.026-21.417-69.7-79.86-69.7-53 0-76.956 34.122-79.134 59.9l47.916 9.8c1.089-13.431 11.616-26.5 30.855-26.5 17.424 0 26.5 9.075 26.5 19.6 0 6.171-3.267 10.89-13.068 12.342l-42.471 6.534c-29.764 4.359-53.359 22.509-53.359 54.453h.003zm75.865 14.883c-15.246 0-21.417-9.075-21.417-18.513 0-12.705 8.712-18.15 20.328-19.965l34.122-5.445v7.986c-.001 27.951-16.699 35.937-33.033 35.937zm188.4 34.848V119.188h-55.18V382h55.18z"/>
    <g transform="rotate(-90 796.212 -447.977)">
      <g fill="#F9971E" fill-rule="nonzero">
        <path d="M183.5933 102.1896l-1.9474 7.2709-7.2714-1.9484.549-2.049 5.2184 1.3924 1.3963-5.2114z"/>
        <path d="M180.3003 96.486l-1.9474 7.2709-7.2714-1.9484.549-2.049 5.2184 1.3924 1.3963-5.2114z"/>
        <path d="M177.0068 90.7815l-1.9474 7.2708-7.2714-1.9483.549-2.049 5.2184 1.3923 1.3963-5.2113z"/>
        <path d="M173.7138 85.0779l-1.9474 7.2708-7.2714-1.9483.546-2.0543 5.2214 1.3976 1.3933-5.2166z"/>
      </g>
      <path fill="#F9971E" fill-rule="nonzero" d="M18.518 96.456h-2.969v-2.969h-3.1v2.969H9.477v3.1h2.969v2.972h3.1v-2.969h2.972z"/>
      <path fill="#FFF" fill-rule="nonzero" d="M132.921 49.2409a5 5 0 1 1 4.9109-5.085c.0474 2.76-2.1509 5.0362-4.9108 5.085zm-3.0884-4.9774c.012 1.6525 1.3583 2.9842 3.0109 2.9782 1.6526-.006 2.9891-1.3474 2.9891-3 0-1.6527-1.3365-2.994-2.9891-3-1.6526-.006-2.9989 1.3256-3.0109 2.9781v.0437z"/>
      <g stroke="#F7AB1D" stroke-width="1.3302">
        <path d="M5.0722 37.5404l24.6062 11.1688-2.6342-26.8905z"/>
        <path d="M2.2014 44.7757l24.6024 11.1678-2.6274-26.8887z"/>
      </g>
      <path fill="#00A991" fill-rule="nonzero" d="M116.3761 60.3113c-4.7124-1.2203-6.4364-4.6902-7.8067-7.4497-1.226-2.4515-2.1902-4.3936-4.9916-5.1457-2.8013-.752-4.626.4377-6.9034 1.965-2.5623 1.6919-5.7492 3.81-10.4906 2.5396-4.7415-1.2705-6.4414-4.6988-7.7873-7.416-1.226-2.4514-2.1902-4.3935-5.0002-5.1405-2.81-.7471-4.6173.4326-6.8956 1.9604-2.5624 1.6919-5.7492 3.81-10.4907 2.5396-4.7415-1.2705-6.4855-4.7172-7.8258-7.4826-1.226-2.4514-2.2057-4.4204-4.9915-5.1456a2.214 2.214 0 1 1 1.1386-4.2739c4.7415 1.2705 6.45 4.6938 7.8154 7.4447 1.2173 2.4564 2.1824 4.398 4.9915 5.1456 2.8092.7476 4.6173-.4326 6.9007-1.9518 2.5578-1.6996 5.7442-3.8187 10.4857-2.5482 4.7414 1.2704 6.4413 4.6988 7.8154 7.4447 1.2173 2.4564 2.1824 4.398 4.9915 5.1456 2.8092.7475 4.6182-.4331 6.9006-1.9518 2.558-1.6974 5.7507-3.8236 10.4843-2.5486 4.7337 1.275 6.4501 4.6938 7.8155 7.4447 1.2173 2.4564 2.1824 4.398 4.996 5.1534 1.129.3587 1.7756 1.5426 1.4672 2.6864-.3084 1.1439-1.4626 1.8422-2.619 1.5847z"/>
      <circle cx="91.257" cy="79.103" r="2.877" fill="#F9971E" fill-rule="nonzero"/>
      <g fill="#F9971E" fill-rule="nonzero">
        <path d="M106.119 115.946a4.393 4.393 0 0 1-3.8722-.9411 2.892 2.892 0 0 0-2.546-.724 2.879 2.879 0 0 0-1.8445 1.9026 4.426 4.426 0 0 1-2.8854 2.7497 4.395 4.395 0 0 1-3.8592-.9337 2.884 2.884 0 0 0-2.5459-.7204 2.874 2.874 0 0 0-1.843 1.9 4.426 4.426 0 0 1-2.8857 2.7484 4.406 4.406 0 0 1-3.8857-.9478 2.884 2.884 0 0 0-2.546-.724.8185.8185 0 1 1-.423-1.5814 4.415 4.415 0 0 1 3.8716.942 2.872 2.872 0 0 0 2.5461.724 2.886 2.886 0 0 0 1.8464-1.898 4.411 4.411 0 0 1 2.8824-2.7503 4.426 4.426 0 0 1 3.8724.9367 2.872 2.872 0 0 0 2.5461.724 2.886 2.886 0 0 0 1.8464-1.898 4.409 4.409 0 0 1 2.8823-2.7504 4.426 4.426 0 0 1 3.8733.9372 2.881 2.881 0 0 0 2.5487.7256.818.818 0 0 1 .42 1.5785l.001.0005z"/>
        <path d="M106.119 115.946a4.393 4.393 0 0 1-3.8722-.9411 2.892 2.892 0 0 0-2.546-.724 2.879 2.879 0 0 0-1.8445 1.9026 4.426 4.426 0 0 1-2.8854 2.7497 4.395 4.395 0 0 1-3.8592-.9337 2.884 2.884 0 0 0-2.5459-.7204 2.874 2.874 0 0 0-1.843 1.9 4.426 4.426 0 0 1-2.8857 2.7484 4.406 4.406 0 0 1-3.8857-.9478 2.884 2.884 0 0 0-2.546-.724.8185.8185 0 1 1-.423-1.5814 4.415 4.415 0 0 1 3.8716.942 2.872 2.872 0 0 0 2.5461.724 2.886 2.886 0 0 0 1.8464-1.898 4.411 4.411 0 0 1 2.8824-2.7503 4.426 4.426 0 0 1 3.8724.9367 2.872 2.872 0 0 0 2.5461.724 2.886 2.886 0 0 0 1.8464-1.898 4.409 4.409 0 0 1 2.8823-2.7504 4.426 4.426 0 0 1 3.8733.9372 2.881 2.881 0 0 0 2.5487.7256.818.818 0 0 1 .42 1.5785l.001.0005z"/>
      </g>
      <g stroke="#FFF" stroke-width="1.3299">
        <path d="M137.54 91.6174l-6.071 11.7114 13.1764-.5993z"/>
        <path d="M134.0857 90.0334l-6.0705 11.7095 13.1758-.5974z"/>
      </g>
      <g fill="#FFF" fill-rule="nonzero">
        <path d="M63.9859 2.2725L66.6793.8404l1.432 2.6933-.7591.4037-1.0294-1.9313-1.9278 1.0283z"/>
        <path d="M63.2055 4.8248l2.6934-1.432L67.331 6.086l-.7592.4037-1.0293-1.9313-1.9279 1.0282z"/>
        <path d="M62.4249 7.3782l2.6934-1.4321 1.432 2.6934-.7591.4036-1.0293-1.9313-1.9279 1.0283z"/>
        <path d="M61.6445 9.9305l2.6934-1.432 1.4321 2.6933-.76.4066-1.0285-1.9342-1.9284 1.0302z"/>
      </g>
      <path fill="#00A991" fill-rule="nonzero" d="M190.428 79.418h-2.007V77.41h-2.1v2.008h-2.007v2.1h2.008v2.006h2.1v-2.007h2.006z"/>
      <path fill="#F9971E" fill-rule="nonzero" d="M204.2429 74.8146c-3.408-1.9286-4.0283-4.9835-4.5165-7.4143-.4423-2.1594-.7884-3.8714-2.8084-5.0372-2.02-1.1659-3.6874-.6225-5.7743.0903-2.3429.7814-5.2611 1.7647-8.6813-.2093-3.4202-1.974-4.0304-4.9912-4.5087-7.3853-.4423-2.1594-.7884-3.8714-2.8162-5.0351-2.0277-1.1638-3.6772-.6232-5.7658.087-2.3429.7814-5.2612 1.7647-8.6814-.2093-3.4202-1.974-4.06-5.0205-4.5244-7.4442-.4423-2.1594-.7947-3.8946-2.8085-5.0372a1.7812 1.7812 0 1 1 1.7747-3.082c3.4202 1.9739 4.0352 4.9899 4.5242 7.4122.4345 2.1614.7807 3.8734 2.8084 5.0372 2.0278 1.1637 3.6787.6248 5.7686-.0805 2.3408-.7891 5.2591-1.7724 8.6793.2015 3.4202 1.974 4.0304 4.9912 4.5242 7.4122.4345 2.1615.7807 3.8735 2.8084 5.0372 2.0278 1.1638 3.6787.6249 5.7686-.0804 2.3408-.7892 5.2659-1.7743 8.6793.2015 3.4134 1.9757 4.0342 4.986 4.523 7.4115.4345 2.1614.7807 3.8734 2.8105 5.045.8004.5146 1.055 1.5675.578 2.391-.477.8234-1.517 1.1265-2.3617.6882z"/>
      <path fill="#FFF" fill-rule="nonzero" d="M55.4691 101.6854a3.9498 3.9498 0 0 1-3.5348.5808 2.6012 2.6012 0 0 0-2.3617.2955 2.5882 2.5882 0 0 0-.8588 2.223 3.9789 3.9789 0 0 1-1.423 3.2885 3.9508 3.9508 0 0 1-3.522.5824 2.5922 2.5922 0 0 0-2.362.2984 2.5842 2.5842 0 0 0-.8585 2.22 3.9789 3.9789 0 0 1-1.4213 3.2908 3.9618 3.9618 0 0 1-3.5477.5792 2.5932 2.5932 0 0 0-2.3618.2955.7353.7353 0 1 1-.905-1.1575 3.9689 3.9689 0 0 1 3.5352-.5847 2.5822 2.5822 0 0 0 2.3618-.2955 2.5952 2.5952 0 0 0 .8613-2.2196 3.9658 3.9658 0 0 1 1.419-3.2881 3.9789 3.9789 0 0 1 3.5353-.5847 2.5822 2.5822 0 0 0 2.3618-.2955 2.5952 2.5952 0 0 0 .8612-2.2186 3.9638 3.9638 0 0 1 1.4191-3.2891 3.9789 3.9789 0 0 1 3.5353-.5848 2.5902 2.5902 0 0 0 2.3647-.295.7353.7353 0 0 1 .902 1.159z"/>
      <path fill="#FFF" fill-rule="nonzero" d="M55.4691 101.6854a3.9498 3.9498 0 0 1-3.5348.5808 2.6012 2.6012 0 0 0-2.3617.2955 2.5882 2.5882 0 0 0-.8588 2.223 3.9789 3.9789 0 0 1-1.423 3.2885 3.9508 3.9508 0 0 1-3.522.5824 2.5922 2.5922 0 0 0-2.362.2984 2.5842 2.5842 0 0 0-.8585 2.22 3.9789 3.9789 0 0 1-1.4213 3.2908 3.9618 3.9618 0 0 1-3.5477.5792 2.5932 2.5932 0 0 0-2.3618.2955.7353.7353 0 1 1-.905-1.1575 3.9689 3.9689 0 0 1 3.5352-.5847 2.5822 2.5822 0 0 0 2.3618-.2955 2.5952 2.5952 0 0 0 .8613-2.2196 3.9658 3.9658 0 0 1 1.419-3.2881 3.9789 3.9789 0 0 1 3.5353-.5847 2.5822 2.5822 0 0 0 2.3618-.2955 2.5952 2.5952 0 0 0 .8612-2.2186 3.9638 3.9638 0 0 1 1.4191-3.2891 3.9789 3.9789 0 0 1 3.5353-.5848 2.5902 2.5902 0 0 0 2.3647-.295.7353.7353 0 0 1 .902 1.159z"/>
      <circle cx="2.587" cy="75.8" r="1.606" fill="#FFF" fill-rule="nonzero"/>
      <circle cx="57.466" cy="124.073" r="1.606" fill="#00A991" fill-rule="nonzero"/>
    </g>
    <path fill="#F7AB1D" fill-rule="nonzero" d="M1094.105 32.999l15.877 20.677a1.214 1.214 0 0 0 1.94 0l.818-1.117a.342.342 0 0 0-.375-.538l-8.268-19.846a20.254 20.254 0 0 0 2.567-2.07 1.826 1.826 0 0 0-.22-2.787l-.073-.049c-.7938-.5286-1.861-.354-2.445.4a9.006 9.006 0 0 0-1.051 1.63l-2.3-5.534a2.046 2.046 0 0 1 .212-1.956l9.57-13.792a15.486 15.486 0 0 0 1.174-3.13c.2-1.182 0-3.4-.473-3.766-.473-.366-2.657.163-3.725.718a15.25 15.25 0 0 0-2.608 2.078l-10.131 13.382a2.013 2.013 0 0 1-1.793.815l-5.974-.481a10.164 10.164 0 0 0 1.231-1.508c.5324-.7895.3653-1.856-.383-2.445l-.065-.057a1.826 1.826 0 0 0-2.722.652 19.708 19.708 0 0 0-1.182 3.081l-21.4-1.736a.342.342 0 0 0-.628-.187l-.811 1.109a1.206 1.206 0 0 0 .587 1.857l24.557 8.68a.815.815 0 0 1 .383 1.182l-4.695 6.724a65.433 65.433 0 0 0-4.686 8.314.742.742 0 0 1-.685.416l-9.463-.139a.293.293 0 0 0-.522-.2l-.619.815a1.5 1.5 0 0 0 .7 2.29l7.255 2.718a.734.734 0 0 1 .456.88c-.122.489-.212.921-.269 1.288a.636.636 0 0 0 .921.668c.326-.171.717-.383 1.141-.66a.75.75 0 0 1 1.011.155l4.768 6.1a1.5 1.5 0 0 0 2.388 0l.619-.815a.293.293 0 0 0-.326-.456l-3.065-8.966a.734.734 0 0 1 .2-.766 65.034 65.034 0 0 0 6.417-7.028l4.947-6.52a.815.815 0 0 1 1.239 0"/>
    <g stroke="#F7AB1D" stroke-width="1.33">
      <path d="M922.7704 167.7303l46.3333-39.7073-57.5495-20.2626z"/>
      <path d="M934.8407 180.5084l46.3268-39.6996-57.543-20.2703z"/>
    </g>
    <g fill="#CAD5DF" fill-rule="nonzero" transform="translate(666.932 388.572)">
      <path d="M3.271 1.635c0 .9029-.7318 1.6348-1.6347 1.635C.7335 3.2702.0013 2.5385.001 1.6357.0006.7328.7321.0006 1.635 0a1.635 1.635 0 0 1 1.636 1.635zM11.273 1.635c0 .9029-.7318 1.6348-1.6347 1.635-.9028.0002-1.635-.7315-1.6353-1.6343C8.0026.7328 8.7341.0006 9.637 0a1.635 1.635 0 0 1 1.635 1.635h.001zM19.275 1.635c0 .9029-.7318 1.6348-1.6347 1.635-.9028.0002-1.635-.7315-1.6353-1.6343C16.0046.7328 16.7361.0006 17.639 0c.903 0 1.635.732 1.635 1.635h.001zM27.278 1.635c0 .9029-.7318 1.6348-1.6347 1.635-.9028.0002-1.635-.7315-1.6353-1.6343C24.0076.7328 24.7391.0006 25.642 0c.903 0 1.635.732 1.635 1.635h.001zM35.28 1.635A1.635 1.635 0 1 1 33.649 0c.903 0 1.635.732 1.635 1.635h-.004zM43.282 1.635c0 .9029-.7318 1.6348-1.6347 1.635-.9028.0002-1.635-.7315-1.6353-1.6343C40.0116.7328 40.7431.0006 41.646 0c.903 0 1.635.732 1.635 1.635h.001z"/>
      <circle cx="1.635" cy="9.744" r="1.635"/>
      <path d="M11.273 9.744c0 .903-.732 1.635-1.635 1.635s-1.635-.732-1.635-1.635.732-1.635 1.635-1.635 1.635.732 1.635 1.635zM19.275 9.744c0 .903-.732 1.635-1.635 1.635s-1.635-.732-1.635-1.635.732-1.635 1.635-1.635a1.635 1.635 0 0 1 1.635 1.635z"/>
      <circle cx="25.642" cy="9.744" r="1.635"/>
      <circle cx="33.644" cy="9.744" r="1.635"/>
      <circle cx="41.646" cy="9.744" r="1.635"/>
      <path d="M3.271 17.853c0 .9029-.7318 1.6348-1.6347 1.635-.9028.0002-1.635-.7315-1.6353-1.6343-.0004-.9029.7311-1.6351 1.634-1.6357a1.635 1.635 0 0 1 1.636 1.635zM11.273 17.853a1.635 1.635 0 1 1-1.635-1.635c.903 0 1.635.732 1.635 1.635zM19.275 17.853a1.635 1.635 0 1 1-1.635-1.635c.903 0 1.635.732 1.635 1.635zM27.278 17.853a1.635 1.635 0 1 1-1.635-1.635c.903 0 1.635.732 1.635 1.635zM35.28 17.853a1.635 1.635 0 1 1-1.631-1.635c.903 0 1.635.732 1.635 1.635h-.004zM43.282 17.853c0 .903-.732 1.635-1.635 1.635s-1.635-.732-1.635-1.635.732-1.635 1.635-1.635 1.635.732 1.635 1.635zM3.271 25.962c0 .9029-.7318 1.6348-1.6347 1.635-.9028.0002-1.635-.7315-1.6353-1.6343-.0004-.9029.7311-1.6351 1.634-1.6357a1.635 1.635 0 0 1 1.636 1.635zM11.273 25.962c0 .903-.732 1.635-1.635 1.635s-1.635-.732-1.635-1.635.732-1.635 1.635-1.635a1.635 1.635 0 0 1 1.635 1.635zM19.275 25.962c0 .903-.732 1.635-1.635 1.635s-1.635-.732-1.635-1.635.732-1.635 1.635-1.635a1.635 1.635 0 0 1 1.635 1.635zM27.278 25.962c0 .903-.732 1.635-1.635 1.635s-1.635-.732-1.635-1.635.732-1.635 1.635-1.635a1.635 1.635 0 0 1 1.635 1.635zM35.28 25.962a1.635 1.635 0 1 1-1.631-1.635c.9014.0022 1.631.7336 1.631 1.635zM43.282 25.962c0 .903-.732 1.635-1.635 1.635s-1.635-.732-1.635-1.635.732-1.635 1.635-1.635 1.635.732 1.635 1.635z"/>
      <circle cx="1.635" cy="34.071" r="1.635"/>
      <path d="M11.273 34.071c0 .903-.732 1.635-1.635 1.635s-1.635-.732-1.635-1.635.732-1.635 1.635-1.635a1.635 1.635 0 0 1 1.635 1.635zM19.275 34.071c0 .903-.732 1.635-1.635 1.635s-1.635-.732-1.635-1.635.732-1.635 1.635-1.635a1.635 1.635 0 0 1 1.635 1.635z"/>
      <circle cx="25.642" cy="34.071" r="1.635"/>
      <circle cx="33.644" cy="34.071" r="1.635"/>
      <circle cx="41.646" cy="34.071" r="1.635"/>
    </g>
    <path fill="#FFF" fill-rule="nonzero" d="M247.9742 490.7262l-2.8976 1.811-1.8126-2.9002-3.0358 1.8974 1.8126 2.9002-2.9002 1.8126 1.8974 3.0358 2.9002-1.8126 1.8126 2.9002 3.0358-1.8974-1.8126-2.9002 2.9002-1.8126zM666.932 108.337h-6.337V102h-6.626v6.337h-6.337v6.626h6.337v6.337h6.626v-6.337h6.337z"/>
    <path fill="#00A991" fill-rule="nonzero" d="M1266.722 454.062h-5.062V449h-5.293v5.062h-5.062v5.293h5.062v5.062h5.293v-5.062h5.062zM267.8692 469.3128c-5.4264 3.5268-12.443 3.4373-17.7776-.2268-5.3346-3.6642-7.9365-10.1811-6.5922-16.5118 1.3442-6.3306 6.3699-11.228 12.7331-12.4081 6.3633-1.1802 12.8109 1.5893 16.3359 7.0168 4.8118 7.409 2.7082 17.3156-4.6992 22.13zm-16.4667-8.4876c2.658 4.1851 8.2002 5.4324 12.395 2.7896 4.1947-2.643 5.4621-8.1805 2.8345-12.3848-2.6277-4.2042-8.1607-5.4916-12.3745-2.8792-4.2138 2.6126-5.5212 8.1409-2.924 12.364l.069.1104z"/>
    <path fill="#F9971E" fill-rule="nonzero" d="M816.7741 62.9987c-3.2354.0575-6.1868-1.8398-7.4777-4.807-1.291-2.9673-.6673-6.42 1.5803-8.748 2.2475-2.328 5.6762-3.0728 8.687-1.887 3.0108 1.1859 5.0107 4.0687 5.067 7.3041.077 4.4165-3.4401 8.0595-7.8566 8.138zm-4.1421-7.9703c.0156 2.2036 1.8105 3.9795 4.0141 3.9717 2.2036-.0079 3.9859-1.7965 3.9859-4.0001s-1.7823-3.9922-3.9859-4c-2.2036-.0078-3.9985 1.768-4.0141 3.9716v.0568z"/>
    <g fill="#F7AB1D" fill-rule="nonzero">
      <path d="M1160.0649 482.0633v8.4358h-8.4358v-2.3787l6.0521-.005v-6.0471z"/>
      <path d="M1154.8493 476.8477l-.0036 8.4323-8.4322.0035v-2.3787l6.0486-.0085v-6.0472z"/>
      <path d="M1149.6266 471.625v8.4358h-8.4358v-2.3787l6.0521-.005V471.63z"/>
      <path d="M1144.4074 466.4059v8.4357h-8.4358l-.005-2.3836h6.0572l-.005-6.0521z"/>
    </g>
    <g fill="#00A991" fill-rule="nonzero">
      <path d="M1264.3053 50.5774h9.7411v9.7412H1271.3l-.0056-6.989h-6.9834z"/>
      <path d="M1258.2787 56.6041h9.741v9.7411h-2.7463l-.0057-6.989h-6.9834z"/>
      <path d="M1252.2513 62.6315h9.7411v9.7411h-2.7464l-.0057-6.989h-6.9833z"/>
      <path d="M1246.2246 68.6582h9.7411v9.741l-2.752.0057v-6.9947l-6.989.0057z"/>
    </g>
    <path fill="#F7AB1D" fill-rule="nonzero" d="M294.4033 498.3047c-2.689 2.8324-5.795 2.6925-8.2633 2.5796-2.202-.0936-3.9356-.1713-5.5517 1.4971-1.6161 1.6685-1.4916 3.4166-1.3023 5.6086.1899 2.456.4373 5.5162-2.2977 8.3484-2.735 2.8321-5.8019 2.6926-8.2322 2.579-2.202-.0935-3.9356-.1713-5.5515 1.5092-1.616 1.6804-1.4918 3.4085-1.3025 5.6005.19 2.4561.4374 5.5162-2.2976 8.3484-2.735 2.8322-5.8325 2.7162-8.2942 2.5812-2.202-.0936-3.9596-.171-5.5518 1.497a1.776 1.776 0 1 1-2.5672-2.4535c2.736-2.8332 5.8018-2.7017 8.2631-2.5876 2.2021.1016 3.9358.1793 5.5517-1.4971 1.616-1.6765 1.4918-3.4086 1.3145-5.6008-.1979-2.456-.4453-5.516 2.2897-8.3482 2.735-2.8322 5.8018-2.6927 8.263-2.5876 2.2022.1015 3.9358.1793 5.5518-1.4972 1.616-1.6764 1.4917-3.4085 1.3144-5.6008-.1979-2.4559-.4454-5.523 2.2897-8.3482 2.735-2.8252 5.8017-2.7017 8.263-2.5876 2.2022.1016 3.9358.1793 5.5598-1.4973.693-.6186 1.7456-.5988 2.4147.0456.6691.6444.7287 1.6955.1366 2.4113z"/>
    <path fill="#00A991" fill-rule="nonzero" d="M601.238 81.834c-3.53 3.59-7.53 3.34-10.71 3.14-2.83-.17-5.07-.31-7.19 1.81s-2 4.37-1.81 7.2c.19 3.17.44 7.12-3.15 10.71-3.59 3.59-7.54 3.34-10.67 3.14-2.83-.17-5.07-.31-7.19 1.82s-2 4.36-1.81 7.19c.19 3.17.44 7.12-3.15 10.71-3.59 3.59-7.58 3.37-10.75 3.14-2.83-.17-5.1-.31-7.19 1.81a2.29 2.29 0 1 1-3.24-3.23c3.59-3.59 7.54-3.35 10.71-3.15 2.83.18 5.07.32 7.19-1.81s2-4.36 1.82-7.19c-.2-3.17-.45-7.12 3.14-10.71 3.59-3.59 7.54-3.34 10.71-3.15 2.83.18 5.07.32 7.19-1.81s2-4.36 1.82-7.19c-.2-3.17-.45-7.13 3.14-10.71 3.59-3.58 7.54-3.35 10.71-3.15 2.83.18 5.07.32 7.2-1.81.9056-.822 2.2974-.7873 3.161.0789.8634.8661.8938 2.258.069 3.1611z"/>
    <g fill="#F7AB1D" fill-rule="nonzero">
      <path d="M638.9085 51.4694l1.4923-7.0216 7.021 1.4914-.422 1.9766-5.0365-1.0626-1.0715 5.0302z"/>
      <path d="M642.33 56.7366l1.4923-7.0216 7.021 1.4915-.4204 1.9791-5.0381-1.0652-1.0693 5.0336z"/>
      <path d="M645.7515 62.0038l1.4923-7.0215 7.021 1.4914-.4204 1.9792-5.0381-1.0652-1.0693 5.0336z"/>
      <path d="M649.173 67.271l1.4923-7.0215 7.021 1.4915-.4166 1.985-5.0419-1.071-1.066 5.0386z"/>
    </g>
    <circle cx="685.632" cy="154" r="5" fill="#00A991" fill-rule="nonzero"/>
    <path fill="#F9971E" fill-rule="nonzero" d="M607.8453 159.9987c-4.853.086-9.28-2.76-11.2163-7.211-1.9362-4.4509-1.0005-9.63 2.371-13.1218 3.3713-3.492 8.5143-4.6089 13.0305-2.83 4.516 1.7788 7.5158 6.1031 7.6002 10.9562.1153 6.6248-5.1606 12.0893-11.7854 12.2066zm-6.2127-11.9551c.0237 3.3053 2.716 5.969 6.0214 5.9571 3.3053-.0118 5.9786-2.6947 5.9786-6 0-3.3054-2.6733-5.9883-5.9786-6.0001-3.3054-.0118-5.9977 2.6518-6.0214 5.9571v.0859z"/>
    <path fill="#00A991" fill-rule="nonzero" d="M868.787 120.995c-1.94 1.973-4.138 1.836-5.886 1.726-1.555-.093-2.786-.17-3.952.995s-1.1 2.4-.995 3.957c.1 1.742.242 3.913-1.731 5.886-1.973 1.973-4.144 1.836-5.864 1.726-1.555-.093-2.786-.17-3.952 1s-1.1 2.4-.995 3.952c.1 1.742.242 3.913-1.731 5.886-1.973 1.973-4.166 1.852-5.908 1.726-1.555-.093-2.8-.17-3.952.995a1.259 1.259 0 1 1-1.779-1.777c1.973-1.973 4.144-1.841 5.886-1.731 1.555.1 2.786.176 3.952-.995s1.1-2.4 1-3.952c-.11-1.742-.247-3.913 1.726-5.886 1.973-1.973 4.144-1.836 5.886-1.731 1.555.1 2.786.176 3.952-.995s1.1-2.4 1-3.952c-.11-1.742-.247-3.919 1.726-5.886 1.973-1.967 4.143-1.84 5.885-1.727 1.553.1 2.787.173 3.953-1 .4985-.4468 1.2595-.4254 1.732.0488.4727.4741.4915 1.2352.043 1.7322l.004.002z"/>
    <circle cx="742.632" cy="47" r="7" fill="#00A991" fill-rule="nonzero"/>
    <circle cx="718.632" cy="91" r="5" fill="#F9971E" fill-rule="nonzero"/>
    <g stroke="#F7AB1D" stroke-width=".34">
      <path d="M697.278 28.487L698.684 20l-8.052 3.027z"/>
      <path d="M699.74 28.774l1.406-8.486-8.052 3.026z"/>
    </g>
    <path fill="#FFF" fill-rule="nonzero" d="M903.932 70.322h-7.322V63h-7.656v7.322h-7.322v7.656h7.322V85.3h7.656v-7.322h7.322z"/>
    <circle cx="981.632" cy="72" r="5" fill="#00A991" fill-rule="nonzero"/>
    <circle cx="1030.132" cy="148.5" r="3.5" fill="#F9971E" fill-rule="nonzero"/>
    <path fill="#FFF" fill-rule="nonzero" d="M1026.8095 104.9987c-4.0442.0717-7.7333-2.3-9.3468-6.0091-1.6136-3.709-.8339-8.0249 1.9756-10.9348 2.8094-2.91 7.0952-3.8409 10.8586-2.3586 3.7635 1.4823 6.2633 5.0858 6.3338 9.13.0962 5.5208-4.3004 10.0747-9.8212 10.1725zm-6.1772-9.9547c.024 3.3051 2.7165 5.9684 6.0217 5.9564 3.3052-.012 5.9783-2.6949 5.9783-6 0-3.3053-2.673-5.9881-5.9783-6.0002-3.3052-.012-5.9977 2.6513-6.0217 5.9565v.0873z"/>
    <path fill="#00A991" fill-rule="nonzero" d="M1126.8204 124.9444c-.2958 3.7454-2.702 5.5216-4.6162 6.932-1.6995 1.2603-3.0465 2.2548-3.2422 4.4842-.1958 2.2294.9532 3.457 2.417 4.9806 1.6296 1.7212 3.6664 3.8592 3.3361 7.6334-.3302 3.7743-2.7087 5.526-4.594 6.9134-1.6994 1.2603-3.0463 2.2547-3.2376 4.4895-.1913 2.2348.948 3.4524 2.4143 4.979 1.6296 1.7212 3.6664 3.8592 3.3362 7.6334-.3302 3.7743-2.7122 5.5654-4.6346 6.9553-1.6995 1.2602-3.064 2.2694-3.2422 4.484a1.709 1.709 0 1 1-3.4014-.2918c.3302-3.7743 2.7036-5.5321 4.611-6.9382 1.704-1.2549 3.0516-2.2485 3.2422-4.484.1907-2.2356-.9479-3.4525-2.4089-4.9836-1.635-1.7167-3.6725-3.854-3.3423-7.6283.3302-3.7742 2.7087-5.526 4.611-6.938 1.704-1.255 3.0516-2.2487 3.2422-4.4842.1907-2.2356-.9479-3.4524-2.4089-4.9835-1.635-1.7167-3.6776-3.8602-3.3423-7.6283.3354-3.7681 2.7036-5.532 4.611-6.9381 1.7-1.2567 3.0531-2.2499 3.2491-4.49.1252-.9027.9368-1.5483 1.8446-1.4674.9078.081 1.5923.86 1.5559 1.7706z"/>
    <path fill="#00A991" fill-rule="nonzero" d="M1126.8204 124.9444c-.2958 3.7454-2.702 5.5216-4.6162 6.932-1.6995 1.2603-3.0465 2.2548-3.2422 4.4842-.1958 2.2294.9532 3.457 2.417 4.9806 1.6296 1.7212 3.6664 3.8592 3.3361 7.6334-.3302 3.7743-2.7087 5.526-4.594 6.9134-1.6994 1.2603-3.0463 2.2547-3.2376 4.4895-.1913 2.2348.948 3.4524 2.4143 4.979 1.6296 1.7212 3.6664 3.8592 3.3362 7.6334-.3302 3.7743-2.7122 5.5654-4.6346 6.9553-1.6995 1.2602-3.064 2.2694-3.2422 4.484a1.709 1.709 0 1 1-3.4014-.2918c.3302-3.7743 2.7036-5.5321 4.611-6.9382 1.704-1.2549 3.0516-2.2485 3.2422-4.484.1907-2.2356-.9479-3.4525-2.4089-4.9836-1.635-1.7167-3.6725-3.854-3.3423-7.6283.3302-3.7742 2.7087-5.526 4.611-6.938 1.704-1.255 3.0516-2.2487 3.2422-4.4842.1907-2.2356-.9479-3.4524-2.4089-4.9835-1.635-1.7167-3.6776-3.8602-3.3423-7.6283.3354-3.7681 2.7036-5.532 4.611-6.9381 1.7-1.2567 3.0531-2.2499 3.2491-4.49.1252-.9027.9368-1.5483 1.8446-1.4674.9078.081 1.5923.86 1.5559 1.7706z"/>
    <path fill="#F9971E" fill-rule="nonzero" d="M1087.7964 107.4046c.8482 2.1564-.007 3.7898-.6857 5.0902-.6 1.1559-1.0795 2.0731-.5849 3.3617.4947 1.2886 1.463 1.6584 2.6878 2.1085 1.3683.514 3.0741 1.1498 3.9131 3.3295a5.665 5.665 0 0 1-.677 5.0732c-.6 1.1559-1.0796 2.0731-.5803 3.3638.4992 1.2906 1.4583 1.6563 2.684 2.1068 1.3683.514 3.0742 1.1498 3.9132 3.3295a5.68 5.68 0 0 1-.692 5.107c-.6001 1.156-1.0853 2.086-.585 3.3618a1.054 1.054 0 1 1-1.9604.757 5.691 5.691 0 0 1 .6801-5.0926c.6046-1.1538 1.0833-2.0715.585-3.3617-.4983-1.2903-1.4625-1.6571-2.6898-2.1138-1.3703-.5094-3.077-1.1434-3.9152-3.3249-.8381-2.1815.0073-3.7951.6802-5.0926.6046-1.1539 1.0832-2.0715.5849-3.3618-.4983-1.2902-1.4584-1.6563-2.682-2.1114-1.3704-.5094-3.0816-1.1454-3.9152-3.3249a5.7 5.7 0 0 1 .6802-5.0926c.6045-1.1539 1.0832-2.0715.5865-3.3654a1.054 1.054 0 0 1 1.9665-.751l.006.0037z"/>
    <path fill="#F9971E" fill-rule="nonzero" d="M1087.7964 107.4046c.8482 2.1564-.007 3.7898-.6857 5.0902-.6 1.1559-1.0795 2.0731-.5849 3.3617.4947 1.2886 1.463 1.6584 2.6878 2.1085 1.3683.514 3.0741 1.1498 3.9131 3.3295a5.665 5.665 0 0 1-.677 5.0732c-.6 1.1559-1.0796 2.0731-.5803 3.3638.4992 1.2906 1.4583 1.6563 2.684 2.1068 1.3683.514 3.0742 1.1498 3.9132 3.3295a5.68 5.68 0 0 1-.692 5.107c-.6001 1.156-1.0853 2.086-.585 3.3618a1.054 1.054 0 1 1-1.9604.757 5.691 5.691 0 0 1 .6801-5.0926c.6046-1.1538 1.0833-2.0715.585-3.3617-.4983-1.2903-1.4625-1.6571-2.6898-2.1138-1.3703-.5094-3.077-1.1434-3.9152-3.3249-.8381-2.1815.0073-3.7951.6802-5.0926.6046-1.1539 1.0832-2.0715.5849-3.3618-.4983-1.2902-1.4584-1.6563-2.682-2.1114-1.3704-.5094-3.0816-1.1454-3.9152-3.3249a5.7 5.7 0 0 1 .6802-5.0926c.6045-1.1539 1.0832-2.0715.5865-3.3654a1.054 1.054 0 0 1 1.9665-.751l.006.0037z"/>
    <circle cx="1112.132" cy="82.5" r="5.5" fill="#FFF" fill-rule="nonzero"/>
    <circle cx="1072.632" cy="84" r="3" fill="#00A991" fill-rule="nonzero"/>
    <g transform="matrix(0 -1 1 0 .24 373.767)">
      <g fill="#00A991" fill-rule="nonzero">
        <path d="M194.3932 54.4646l9.2152 1.9583-1.9575 9.2147-2.5986-.5513 1.3998-6.613-6.6059-1.4033z"/>
        <path d="M187.4807 58.9549l9.2152 1.9583-1.9575 9.2147-2.5986-.5513 1.3998-6.6131-6.6059-1.4033z"/>
        <path d="M180.5673 63.4457l9.2152 1.9583-1.9574 9.2147-2.5987-.5513 1.3998-6.6131-6.6058-1.4033z"/>
        <path d="M173.6548 67.936l9.2152 1.9582-1.9575 9.2147-2.6044-.5475 1.4056-6.6169-6.6126-1.3989z"/>
      </g>
      <path fill="#F9971E" fill-rule="nonzero" d="M22.919 28.609h-3.71v-3.714h-3.886v3.714h-3.714v3.886h3.714v3.71h3.886v-3.71h3.71z"/>
      <path fill="#FFF" fill-rule="nonzero" d="M245.7726 138.0349c-2.4265.0427-4.6398-1.3805-5.6077-3.6059-.968-2.2254-.5-4.8148 1.1856-6.5607 1.6857-1.7458 4.2571-2.3043 6.5151-1.415 2.258.8894 3.758 3.0514 3.8003 5.4779.0578 3.3128-2.5806 6.0453-5.8933 6.1037zm-3.1058-5.9773c.012 1.6525 1.3582 2.9842 3.0108 2.9782 1.6526-.006 2.9892-1.3474 2.9892-3s-1.3366-2.994-2.9892-3c-1.6526-.006-2.9988 1.3257-3.0108 2.9782v.0436z"/>
      <path fill="#00A991" fill-rule="nonzero" d="M94.786 11.899a3.254 3.254 0 0 1-2.833.83 2.143 2.143 0 0 0-1.9.479 2.133 2.133 0 0 0-.479 1.9 3.279 3.279 0 0 1-.833 2.833 3.256 3.256 0 0 1-2.822.83 2.136 2.136 0 0 0-1.9.481 2.129 2.129 0 0 0-.479 1.9 3.279 3.279 0 0 1-.833 2.833 3.265 3.265 0 0 1-2.843.83 2.137 2.137 0 0 0-1.9.479.606.606 0 1 1-.857-.854 3.271 3.271 0 0 1 2.828-.831 2.128 2.128 0 0 0 1.9-.479 2.138 2.138 0 0 0 .481-1.9 3.268 3.268 0 0 1 .83-2.833 3.279 3.279 0 0 1 2.835-.83 2.128 2.128 0 0 0 1.9-.479 2.138 2.138 0 0 0 .481-1.9 3.266 3.266 0 0 1 .83-2.833 3.279 3.279 0 0 1 2.836-.834 2.135 2.135 0 0 0 1.9-.479.606.606 0 0 1 .854.857h.004z"/>
      <circle cx="113.913" cy="6.902" r="3.599" fill="#F9971E" fill-rule="nonzero"/>
      <g fill="#F9971E" fill-rule="nonzero">
        <path d="M132.504 52.9906c-2.1648.5977-3.6584-.3894-4.8422-1.179-1.0566-.6978-1.8916-1.2515-3.1848-.9058-1.293.3458-1.7493 1.244-2.3072 2.3803a5.536 5.536 0 0 1-3.61 3.4387 5.5 5.5 0 0 1-4.8266-1.17c-1.0567-.6979-1.8917-1.2516-3.1873-.9015-1.2957.3501-1.7469 1.2397-2.3053 2.3768a5.536 5.536 0 0 1-3.6125 3.443 5.512 5.512 0 0 1-4.8569-1.1875c-1.0567-.6978-1.9038-1.2585-3.1848-.9058a1.023 1.023 0 1 1-.535-1.9693 5.523 5.523 0 0 1 4.8457 1.173c1.0546.7013 1.8892 1.2558 3.1848.9057 1.2956-.35 1.7469-1.2396 2.3096-2.3743a5.518 5.518 0 0 1 3.604-3.4422 5.536 5.536 0 0 1 4.8456 1.173c1.0547.7013 1.8892 1.2559 3.1848.9058 1.2956-.3501 1.7469-1.2397 2.3096-2.3743a5.515 5.515 0 0 1 3.604-3.4422 5.536 5.536 0 0 1 4.8456 1.173c1.0547.7013 1.8892 1.2558 3.1883.9077a1.023 1.023 0 0 1 .5253 1.9742l.0053.0007z"/>
        <path d="M132.504 52.9906c-2.1648.5977-3.6584-.3894-4.8422-1.179-1.0566-.6978-1.8916-1.2515-3.1848-.9058-1.293.3458-1.7493 1.244-2.3072 2.3803a5.536 5.536 0 0 1-3.61 3.4387 5.5 5.5 0 0 1-4.8266-1.17c-1.0567-.6979-1.8917-1.2516-3.1873-.9015-1.2957.3501-1.7469 1.2397-2.3053 2.3768a5.536 5.536 0 0 1-3.6125 3.443 5.512 5.512 0 0 1-4.8569-1.1875c-1.0567-.6978-1.9038-1.2585-3.1848-.9058a1.023 1.023 0 1 1-.535-1.9693 5.523 5.523 0 0 1 4.8457 1.173c1.0546.7013 1.8892 1.2558 3.1848.9057 1.2956-.35 1.7469-1.2396 2.3096-2.3743a5.518 5.518 0 0 1 3.604-3.4422 5.536 5.536 0 0 1 4.8456 1.173c1.0547.7013 1.8892 1.2559 3.1848.9058 1.2956-.3501 1.7469-1.2397 2.3096-2.3743a5.515 5.515 0 0 1 3.604-3.4422 5.536 5.536 0 0 1 4.8456 1.173c1.0547.7013 1.8892 1.2558 3.1883.9077a1.023 1.023 0 0 1 .5253 1.9742l.0053.0007z"/>
      </g>
      <g stroke="#FFF" stroke-width="1.3299">
        <path d="M171.8118 22.5564l-7.596 14.6508 16.4836-.7497z"/>
        <path d="M167.4909 20.5752l-7.5951 14.648 16.4813-.743z"/>
      </g>
      <path fill="#F9971E" fill-rule="nonzero" d="M246.1181 75.1218c-1.6863 2.6454-4.156 3.0112-6.1201 3.3022-1.7463.263-3.1297.4683-4.1468 2.035-1.0172 1.5667-.6526 2.9254-.1701 4.622.5262 1.907 1.1908 4.2823-.5317 6.9354-1.7224 2.653-4.1637 3.0128-6.0956 3.297-1.7463.263-3.1297.4682-4.1456 2.0408-1.016 1.5726-.6534 2.9164-.1713 4.616.5262 1.907 1.1908 4.2825-.5317 6.9356-1.7224 2.653-4.1822 3.0361-6.1455 3.3075-1.7463.263-3.1482.4723-4.1468 2.035a1.4268 1.4268 0 1 1-2.3923-1.549c1.7225-2.653 4.1623-3.0196 6.1188-3.308 1.7476-.2571 3.1311-.4614 4.1469-2.035 1.0157-1.5735.6534-2.9164.1772-4.6173-.533-1.9055-1.1968-4.2811.5257-6.9342 1.7225-2.653 4.1638-3.0128 6.1189-3.308 1.7475-.2572 3.1311-.4615 4.1468-2.035 1.0157-1.5736.6539-2.9145.1792-4.6178-.533-1.9055-1.198-4.287.5257-6.9342 1.7238-2.6472 4.1623-3.0197 6.1189-3.308 1.7475-.2572 3.1311-.4615 4.1537-2.0365.4449-.6196 1.2985-.7797 1.9377-.3633.6392.4163.8378 1.2618.451 1.9192l-.003.0006z"/>
      <path fill="#00A991" fill-rule="nonzero" d="M260.188 102.166h-2.512v-2.511h-2.626v2.511h-2.511v2.626h2.511v2.512h2.626v-2.512h2.512z"/>
      <path fill="#FFF" fill-rule="nonzero" d="M69.1433 35.1515a4.9403 4.9403 0 0 1-4.4236.7265c-1.1198-.206-2.0056-.3714-2.9544.3689-.9487.7402-1.0084 1.644-1.0735 2.7812a4.9773 4.9773 0 0 1-1.7797 4.1156 4.9423 4.9423 0 0 1-4.4058.7288c-1.1197-.206-2.0056-.3714-2.9548.3728a3.2325 3.2325 0 0 0-1.073 2.7772 4.9773 4.9773 0 0 1-1.7798 4.1157 4.9563 4.9563 0 0 1-4.4375.725c-1.1198-.2062-2.0176-.373-2.9544.3687a.9197.9197 0 0 1-1.1323-1.4495 4.9653 4.9653 0 0 1 4.4241-.7305c1.1193.21 2.0052.3754 2.9544-.3688a3.2465 3.2465 0 0 0 1.077-2.7768 4.9613 4.9613 0 0 1 1.7758-4.1162 4.9773 4.9773 0 0 1 4.424-.7305c1.1193.21 2.0052.3754 2.9544-.3688a3.2465 3.2465 0 0 0 1.077-2.7768 4.9583 4.9583 0 0 1 1.7758-4.1162 4.9773 4.9773 0 0 1 4.4241-.7305c1.1193.21 2.0051.3754 2.9583-.3683a.9197.9197 0 1 1 1.1323 1.4495l-.0084.003z"/>
      <path fill="#FFF" fill-rule="nonzero" d="M69.1433 35.1515a4.9403 4.9403 0 0 1-4.4236.7265c-1.1198-.206-2.0056-.3714-2.9544.3689-.9487.7402-1.0084 1.644-1.0735 2.7812a4.9773 4.9773 0 0 1-1.7797 4.1156 4.9423 4.9423 0 0 1-4.4058.7288c-1.1197-.206-2.0056-.3714-2.9548.3728a3.2325 3.2325 0 0 0-1.073 2.7772 4.9773 4.9773 0 0 1-1.7798 4.1157 4.9563 4.9563 0 0 1-4.4375.725c-1.1198-.2062-2.0176-.373-2.9544.3687a.9197.9197 0 0 1-1.1323-1.4495 4.9653 4.9653 0 0 1 4.4241-.7305c1.1193.21 2.0052.3754 2.9544-.3688a3.2465 3.2465 0 0 0 1.077-2.7768 4.9613 4.9613 0 0 1 1.7758-4.1162 4.9773 4.9773 0 0 1 4.424-.7305c1.1193.21 2.0052.3754 2.9544-.3688a3.2465 3.2465 0 0 0 1.077-2.7768 4.9583 4.9583 0 0 1 1.7758-4.1162 4.9773 4.9773 0 0 1 4.4241-.7305c1.1193.21 2.0051.3754 2.9583-.3683a.9197.9197 0 1 1 1.1323 1.4495l-.0084.003z"/>
      <circle cx="2.99" cy="2.77" r="2.009" fill="#FFF" fill-rule="nonzero"/>
      <circle cx="71.641" cy="63.157" r="2.009" fill="#00A991" fill-rule="nonzero"/>
    </g>
    <circle cx="1258.632" cy="126" r="5" fill="#00A991" fill-rule="nonzero"/>
    <circle cx="1290.632" cy="88" r="3" fill="#FFF" fill-rule="nonzero"/>
    <circle cx="1225.632" cy="96" r="3" fill="#F9971E" fill-rule="nonzero"/>
    <circle cx="1201.632" cy="49" r="3" fill="#00A991" fill-rule="nonzero"/>
    <circle cx="1167.632" cy="94" r="3" fill="#00A991" fill-rule="nonzero"/>
    <path fill="#FFF" fill-rule="nonzero" d="M1169.721 67a5 5 0 1 1 4.91-5.087c.0485 2.7604-2.1496 5.0377-4.91 5.087zm-3.0894-4.9775c.012 1.6526 1.3583 2.9842 3.011 2.9782 1.6525-.006 2.989-1.3474 2.989-3s-1.3365-2.994-2.989-3c-1.6527-.006-2.999 1.3256-3.011 2.9782v.0436z"/>
    <path fill="#00A991" fill-rule="nonzero" d="M1170.8048 444.999c-5.5218.0951-10.0753-4.3038-10.1708-9.8256-.0955-5.5218 4.3031-10.0755 9.8249-10.1714 5.5217-.096 10.0758 4.3024 10.172 9.8242a10 10 0 0 1-9.8261 10.1727zm-6.1723-9.9557c.0236 3.3053 2.716 5.969 6.0213 5.9573 3.3054-.0118 5.9787-2.6947 5.9787-6 0-3.3055-2.6733-5.9883-5.9787-6.0002-3.3054-.0117-5.9977 2.652-6.0213 5.9573v.0856z"/>
    <path fill="#FFF" fill-rule="nonzero" d="M1086.973 542.739h-2.741V540h-2.861v2.739h-2.739v2.861h2.739v2.741h2.861V545.6h2.741z"/>
    <g fill="#00A991" fill-rule="nonzero">
      <path d="M1055.0261 575.1462l-5.4353 1.9783-1.9783-5.4353 1.5323-.5577 1.4227 3.8985 3.8964-1.4181z"/>
      <path d="M1057.165 570.5594l-5.4353 1.9783-1.9783-5.4353 1.5322-.5577 1.4227 3.8985 3.8965-1.4182z"/>
      <path d="M1059.3038 565.9726l-5.4353 1.9783-1.9782-5.4353 1.5322-.5577 1.4227 3.8985 3.8964-1.4182z"/>
      <path d="M1061.4431 561.3848l-5.4353 1.9783-1.9783-5.4353 1.5344-.5622 1.4206 3.903 3.8985-1.4227z"/>
    </g>
    <path fill="#F7AB1D" fill-rule="nonzero" d="M1054.582 527.415a4.541 4.541 0 0 1-3.952 1.159 2.99 2.99 0 0 0-2.653.668 2.976 2.976 0 0 0-.669 2.657 4.575 4.575 0 0 1-1.162 3.952 4.543 4.543 0 0 1-3.938 1.159 2.981 2.981 0 0 0-2.653.672 2.971 2.971 0 0 0-.668 2.653 4.575 4.575 0 0 1-1.162 3.952 4.555 4.555 0 0 1-3.967 1.159 2.982 2.982 0 0 0-2.65.668.845.845 0 1 1-1.2-1.19 4.564 4.564 0 0 1 3.952-1.162 2.969 2.969 0 0 0 2.653-.668 2.984 2.984 0 0 0 .672-2.653 4.56 4.56 0 0 1 1.159-3.952 4.575 4.575 0 0 1 3.952-1.165 2.969 2.969 0 0 0 2.653-.668 2.984 2.984 0 0 0 .672-2.653 4.558 4.558 0 0 1 1.159-3.952 4.575 4.575 0 0 1 3.953-1.164 2.979 2.979 0 0 0 2.657-.668.8457.8457 0 0 1 1.192 1.2v-.004z"/>
    <path fill="#00A991" fill-rule="nonzero" d="M1090.8802 431.7163c1.344 4.852-.8725 8.1912-2.6357 10.8451-1.5622 2.3659-2.8035 4.2358-2.0275 7.1318.776 2.896 2.7845 3.917 5.3304 5.1675 2.8403 1.4204 6.386 3.179 7.7001 8.083 1.314 4.904-.8775 8.1998-2.6157 10.8104-1.5622 2.3659-2.8034 4.2358-2.0188 7.1368.7846 2.901 2.7759 3.912 5.3217 5.1625 2.8403 1.4204 6.3861 3.179 7.7001 8.083s-.8715 8.2494-2.6556 10.8797c-1.5623 2.3659-2.8185 4.2617-2.0275 7.1317a2.29 2.29 0 1 1-4.4173 1.191c-1.314-4.904.8688-8.2049 2.627-10.8502 1.571-2.3608 2.8122-4.2307 2.0275-7.1317-.7846-2.901-2.7759-3.912-5.3167-5.1712-2.8453-1.4118-6.3911-3.1702-7.7051-8.0743-1.314-4.904.8774-8.1998 2.627-10.8501 1.5709-2.3609 2.8121-4.2308 2.0275-7.1317-.7847-2.901-2.7759-3.912-5.3167-5.1712-2.8453-1.4118-6.3998-3.1753-7.7052-8.0743-1.3053-4.899.8688-8.2049 2.627-10.8502 1.571-2.3608 2.8122-4.2307 2.0325-7.1403-.259-1.1954.4669-2.3833 1.6488-2.698 1.1819-.3148 2.4025.3548 2.7722 1.5207z"/>
    <circle cx="1238.632" cy="416" r="4" fill="#FFF" fill-rule="nonzero"/>
    <path fill="#FFF" fill-rule="nonzero" d="M1262.7213 362.9999a5 5 0 1 1 4.9106-5.0864c.0481 2.7605-2.1502 5.0375-4.9106 5.0864zm-3.0886-4.9781c.0116 1.6527 1.3577 2.9847 3.0105 2.979 1.6527-.006 2.9895-1.3474 2.9895-3.0001 0-1.6528-1.3368-2.9942-2.9895-3-1.6528-.0059-2.999 1.3262-3.0105 2.9789v.0422z"/>
    <path fill="#00A991" fill-rule="nonzero" d="M1316.49 367.218c-2.042 2.077-4.356 1.932-6.2 1.817-1.637-.1-2.933-.179-4.16 1.047-1.227 1.226-1.157 2.528-1.047 4.165.11 1.834.255 4.119-1.822 6.2-2.077 2.081-4.362 1.932-6.173 1.817-1.637-.1-2.933-.179-4.16 1.053-1.227 1.232-1.157 2.522-1.047 4.16.11 1.834.255 4.119-1.822 6.2-2.077 2.081-4.385 1.95-6.219 1.817-1.637-.1-2.951-.179-4.16 1.047a1.325 1.325 0 1 1-1.87-1.877c2.077-2.077 4.362-1.938 6.2-1.822 1.637.1 2.933.185 4.16-1.047 1.227-1.232 1.157-2.522 1.053-4.16-.116-1.834-.26-4.119 1.817-6.2 2.077-2.081 4.362-1.932 6.2-1.822 1.637.1 2.933.185 4.16-1.047 1.227-1.232 1.157-2.522 1.053-4.16-.116-1.834-.26-4.125 1.817-6.2s4.352-1.931 6.184-1.815c1.637.1 2.933.185 4.165-1.047.5242-.473 1.3273-.452 1.8259.048.4986.5.5176 1.303.0431 1.826h.002z"/>
    <circle cx="1215.132" cy="449.5" r="4.5" fill="#F9971E" fill-rule="nonzero"/>
    <path fill="#FFF" fill-rule="nonzero" d="M516.7391 172.9999c-2.4265.043-4.64-1.38-5.608-3.6055-.9682-2.2255-.5003-4.815 1.1854-6.561 1.6857-1.746 4.2572-2.3044 6.5152-1.415 2.2581.8895 3.758 3.0516 3.8002 5.4782.0576 3.3124-2.5804 6.0446-5.8928 6.1033zm-3.1063-5.9776c.0118 1.6526 1.358 2.9844 3.0107 2.9786 1.6527-.006 2.9893-1.3474 2.9893-3 0-1.6528-1.3366-2.9942-2.9893-3.0001-1.6527-.0059-2.9989 1.326-3.0107 2.9786v.0429z"/>
    <g transform="rotate(48 -328.673 283.935)">
      <g fill="#F9971E" fill-rule="nonzero">
        <path d="M168.1582 93.0115l-1.7722 6.6165-6.617-1.773.5005-1.8652 4.748 1.2679 1.2709-4.7429z"/>
        <path d="M165.1612 87.8205l-1.7722 6.6165-6.617-1.773.5005-1.8651 4.748 1.2678 1.2709-4.7428z"/>
        <path d="M162.1647 82.6304l-1.7722 6.6166-6.617-1.773.5005-1.8652 4.748 1.2678 1.2709-4.7428z"/>
        <path d="M159.1677 77.4395l-1.7722 6.6165-6.617-1.773.4975-1.8704 4.751 1.273 1.2679-4.748z"/>
      </g>
      <path fill="#F9971E" fill-rule="nonzero" d="M17.939 87.792h-2.7v-2.7h-2.827v2.7h-2.7v2.826h2.7v2.7h2.826v-2.7h2.7z"/>
      <path fill="#FFF" fill-rule="nonzero" d="M122.5041 45.7268a5 5 0 1 1 4.9097-5.0858c.0478 2.7599-2.1499 5.0364-4.9097 5.0858zm-3.0895-4.9767c.0124 1.6525 1.3587 2.9837 3.0112 2.9776 1.6524-.0063 2.9888-1.3476 2.9888-3 0-1.6526-1.3364-2.9939-2.9888-3.0001-1.6525-.0062-2.9988 1.325-3.0112 2.9775v.045z"/>
      <g stroke="#F7AB1D" stroke-width="1.3302">
        <path d="M5.704 34.1816l22.3919 10.163-2.3968-24.4702z"/>
        <path d="M3.0918 40.7656l22.388 10.1619-2.393-24.4692z"/>
      </g>
      <path fill="#00A991" fill-rule="nonzero" d="M106.99 54.903c-4.2887-1.1105-5.8577-4.268-7.1043-6.7791-1.115-2.2314-1.994-3.9999-4.5426-4.682-2.5485-.6821-4.2098.3983-6.2827 1.788-2.3319 1.539-5.2313 3.467-9.5461 2.3117-4.3148-1.1555-5.8623-4.2758-7.0868-6.7488-1.1151-2.2314-1.9941-3.9998-4.5487-4.6785-2.5545-.6786-4.202.3938-6.275 1.7835-2.3318 1.539-5.2312 3.4671-9.546 2.3117-4.3148-1.1554-5.9023-4.293-7.1218-6.8094-1.1151-2.2314-2.0071-4.0223-4.5426-4.682a2.015 2.015 0 1 1 1.0366-3.8905c4.3153 1.1563 5.8692 4.2717 7.1113 6.775 1.1081 2.2355 1.9862 4.0044 4.5425 4.682 2.5563.6777 4.2021-.3937 6.2785-1.7773 2.3274-1.547 5.2248-3.4784 9.542-2.3187 4.3173 1.1598 5.8623 4.2757 7.1113 6.775 1.1082 2.2355 1.9863 4.0044 4.5426 4.682 2.5563.6777 4.202-.3937 6.2785-1.7773 2.3273-1.547 5.2326-3.483 9.542-2.3187 4.3095 1.1643 5.8692 4.2717 7.1113 6.775 1.1082 2.2355 1.9863 4.0044 4.547 4.6898 1.0248.3286 1.6105 1.4044 1.3303 2.4434s-1.3273 1.6745-2.3783 1.4434l.001.0017z"/>
      <circle cx="84.132" cy="72.003" r="2.618" fill="#F9971E" fill-rule="nonzero"/>
      <g fill="#F9971E" fill-rule="nonzero">
        <path d="M97.6565 105.5306a4 4 0 0 1-3.5229-.8562 2.632 2.632 0 0 0-2.317-.6588 2.62 2.62 0 0 0-1.6787 1.7317 4.027 4.027 0 0 1-2.6255 2.5014 4 4 0 0 1-3.5116-.8497 2.624 2.624 0 0 0-2.3186-.6562 2.616 2.616 0 0 0-1.6772 1.729 4.027 4.027 0 0 1-2.6273 2.5027 4.01 4.01 0 0 1-3.5342-.8626 2.625 2.625 0 0 0-2.317-.6588.744.744 0 1 1-.3864-1.4367 4.017 4.017 0 0 1 3.5244.8535 2.613 2.613 0 0 0 2.317.6588 2.626 2.626 0 0 0 1.6798-1.7275 4.014 4.014 0 0 1 2.6229-2.503 4.027 4.027 0 0 1 3.5244.8536 2.613 2.613 0 0 0 2.317.6588 2.626 2.626 0 0 0 1.6798-1.7275 4.012 4.012 0 0 1 2.6306-2.5043 4.027 4.027 0 0 1 3.518.8546 2.622 2.622 0 0 0 2.3197.6602.744.744 0 0 1 .382 1.4365l.0008.0005z"/>
        <path d="M97.6565 105.5306a4 4 0 0 1-3.5229-.8562 2.632 2.632 0 0 0-2.317-.6588 2.62 2.62 0 0 0-1.6787 1.7317 4.027 4.027 0 0 1-2.6255 2.5014 4 4 0 0 1-3.5116-.8497 2.624 2.624 0 0 0-2.3186-.6562 2.616 2.616 0 0 0-1.6772 1.729 4.027 4.027 0 0 1-2.6273 2.5027 4.01 4.01 0 0 1-3.5342-.8626 2.625 2.625 0 0 0-2.317-.6588.744.744 0 1 1-.3864-1.4367 4.017 4.017 0 0 1 3.5244.8535 2.613 2.613 0 0 0 2.317.6588 2.626 2.626 0 0 0 1.6798-1.7275 4.014 4.014 0 0 1 2.6229-2.503 4.027 4.027 0 0 1 3.5244.8536 2.613 2.613 0 0 0 2.317.6588 2.626 2.626 0 0 0 1.6798-1.7275 4.012 4.012 0 0 1 2.6306-2.5043 4.027 4.027 0 0 1 3.518.8546 2.622 2.622 0 0 0 2.3197.6602.744.744 0 0 1 .382 1.4365l.0008.0005z"/>
      </g>
      <g stroke="#FFF" stroke-width="1.3299">
        <path d="M126.2502 83.3907l-5.5256 10.6574 11.9906-.5451z"/>
        <path d="M123.1068 81.9498l-5.525 10.6555 11.99-.5432z"/>
      </g>
      <g fill="#FFF" fill-rule="nonzero">
        <path d="M59.3146 2.0874L61.7658.784l1.3033 2.4511-.6918.3678-.9358-1.7584-1.7571.9351z"/>
        <path d="M58.6045 4.4102l2.4511-1.3033 1.3033 2.4512-.6918.3678-.9357-1.7584-1.7572.935z"/>
        <path d="M57.8943 6.7331l2.4511-1.3033 1.3033 2.4512-.6917.3678-.9358-1.7585-1.7572.9352z"/>
        <path d="M57.1838 9.057l2.4512-1.3034 1.3033 2.4512-.6924.3697-.9361-1.7606-1.7568.9373z"/>
      </g>
      <path fill="#00A991" fill-rule="nonzero" d="M174.378 72.289h-1.827v-1.827h-1.91v1.827h-1.827v1.91h1.827v1.827h1.91v-1.827h1.827z"/>
      <path fill="#F9971E" fill-rule="nonzero" d="M186.949 68.1c-3.1022-1.7568-3.664-4.5354-4.1098-6.7467-.402-1.963-.7177-3.5227-2.5555-4.5842-1.8377-1.0614-3.3545-.5668-5.2583.0835-2.133.7106-4.7872 1.6055-7.8996-.19-3.1125-1.7955-3.6657-4.5423-4.1025-6.7198-.402-1.963-.7177-3.5227-2.5622-4.5823-1.8445-1.0597-3.3478-.5686-5.2478.0806-2.133.7106-4.787 1.6055-7.8996-.19-3.1124-1.7955-3.6934-4.5649-4.1169-6.7739-.402-1.963-.7234-3.544-2.5555-4.5842a1.6212 1.6212 0 1 1 1.6173-2.8078c3.1127 1.7964 3.6724 4.5404 4.1164 6.745.3954 1.9648.711 3.5245 2.5555 4.5841 1.8446 1.0597 3.3479.5686 5.2496-.0738 2.131-.7184 4.7853-1.6123 7.8978.1832s3.6656 4.5423 4.1164 6.745c.3953 1.9649.711 3.5245 2.5555 4.5842 1.8445 1.0596 3.3478.5686 5.2496-.0739 2.131-.7183 4.792-1.614 7.8978.1833 3.1057 1.7973 3.6736 4.5412 4.1193 6.7442.3953 1.9648.711 3.5245 2.5583 4.5948.7244.47.9532 1.4253.5204 2.1725-.4327.7472-1.3752 1.024-2.1433.6296l-.003-.0033z"/>
      <path fill="#FFF" fill-rule="nonzero" d="M51.5643 92.552a3.5937 3.5937 0 0 1-3.217.5292 2.3661 2.3661 0 0 0-2.1497.268 2.3551 2.3551 0 0 0-.7805 2.021 3.6207 3.6207 0 0 1-1.295 2.9928 3.5957 3.5957 0 0 1-3.2051.5306 2.3591 2.3591 0 0 0-2.15.271 2.3521 2.3521 0 0 0-.7806 2.021 3.6207 3.6207 0 0 1-1.295 2.9928 3.6017 3.6017 0 0 1-3.228.5278 2.3601 2.3601 0 0 0-2.1497.268.6693.6693 0 1 1-.8243-1.0517 3.6117 3.6117 0 0 1 3.2174-.5321 2.3491 2.3491 0 0 0 2.1497-.2681 2.3611 2.3611 0 0 0 .7834-2.0205 3.6097 3.6097 0 0 1 1.2933-2.986 3.6207 3.6207 0 0 1 3.2173-.5321 2.3491 2.3491 0 0 0 2.1497-.2681 2.3611 2.3611 0 0 0 .7835-2.0206 3.6067 3.6067 0 0 1 1.292-2.9932 3.6207 3.6207 0 0 1 3.216-.5373 2.3571 2.3571 0 0 0 2.1498-.268.6693.6693 0 0 1 .821 1.0543l.0018.0013z"/>
      <path fill="#FFF" fill-rule="nonzero" d="M51.5643 92.552a3.5937 3.5937 0 0 1-3.217.5292 2.3661 2.3661 0 0 0-2.1497.268 2.3551 2.3551 0 0 0-.7805 2.021 3.6207 3.6207 0 0 1-1.295 2.9928 3.5957 3.5957 0 0 1-3.2051.5306 2.3591 2.3591 0 0 0-2.15.271 2.3521 2.3521 0 0 0-.7806 2.021 3.6207 3.6207 0 0 1-1.295 2.9928 3.6017 3.6017 0 0 1-3.228.5278 2.3601 2.3601 0 0 0-2.1497.268.6693.6693 0 1 1-.8243-1.0517 3.6117 3.6117 0 0 1 3.2174-.5321 2.3491 2.3491 0 0 0 2.1497-.2681 2.3611 2.3611 0 0 0 .7834-2.0205 3.6097 3.6097 0 0 1 1.2933-2.986 3.6207 3.6207 0 0 1 3.2173-.5321 2.3491 2.3491 0 0 0 2.1497-.2681 2.3611 2.3611 0 0 0 .7835-2.0206 3.6067 3.6067 0 0 1 1.292-2.9932 3.6207 3.6207 0 0 1 3.216-.5373 2.3571 2.3571 0 0 0 2.1498-.268.6693.6693 0 0 1 .821 1.0543l.0018.0013z"/>
      <circle cx="3.443" cy="68.997" r="1.462" fill="#FFF" fill-rule="nonzero"/>
      <circle cx="53.383" cy="112.926" r="1.462" fill="#00A991" fill-rule="nonzero"/>
    </g>
    <path fill="#00A991" fill-rule="nonzero" d="M222.671 510.938h-4.939V506h-5.162v4.938h-4.938v5.162h4.938v4.938h5.162V516.1h4.938z"/>
    <circle cx="208.132" cy="463.5" r="4.5" fill="#FFF" fill-rule="nonzero"/>
    <path fill="#F9971E" fill-rule="nonzero" d="M114.59 47.692a6.541 6.541 0 0 1-.23-1.656c0-2.806 1.564-4.968 4.738-4.968 2.99 0 4.508 1.932 4.508 4.094 0 2.07-1.012 3.634-3.542 5.152l-4.922 2.944c-5.336 3.22-6.992 7.498-7.038 12.742h22.08v-5.474h-14.306a6.082 6.082 0 0 1 2.576-2.714l5.75-3.5c3.68-2.254 5.8-5.382 5.8-9.246 0-5.2-4.094-9.614-10.764-9.614-6.946 0-10.9 4.738-10.9 9.982a11.268 11.268 0 0 0 .23 2.07l6.02.188zm39.928-11.546H131.84v5.474h15.364S137.222 49.946 135.98 66h6.578c1.334-15.042 9.706-22.632 11.96-24.564v-5.29zm24.7 18.906v-5.428H165.88v5.428h13.338zm19.09-7.36a6.541 6.541 0 0 1-.23-1.656c0-2.806 1.564-4.968 4.738-4.968 2.99 0 4.508 1.932 4.508 4.094 0 2.07-1.012 3.634-3.542 5.152l-4.92 2.944c-5.336 3.22-6.992 7.498-7.038 12.742h22.08v-5.474h-14.306a6.082 6.082 0 0 1 2.576-2.714l5.75-3.5c3.68-2.254 5.8-5.382 5.8-9.246 0-5.2-4.094-9.614-10.764-9.614-6.946 0-10.9 4.738-10.9 9.982a11.268 11.268 0 0 0 .23 2.07l6.018.188zm30.084.69c-2.76-.046-4.37-1.794-4.37-3.91 0-1.978 1.61-3.772 4.37-3.772 2.806 0 4.416 1.794 4.416 3.772.002 2.116-1.608 3.864-4.414 3.91h-.002zm0 13.064c-3.266 0-5.014-2.024-5.014-4.14 0-2.162 1.656-4.232 5.014-4.232 3.358 0 5.06 2.07 5.06 4.232.002 2.116-1.746 4.14-5.058 4.14h-.002zm0 5.244c6.808 0 11.27-3.588 11.27-8.74-.0562-3.2809-2.1482-6.1803-5.244-7.268 2.7677-1.063 4.6082-3.7054 4.646-6.67 0-5.014-4.462-8.556-10.672-8.556-6.21 0-10.67 3.544-10.67 8.556.0454 2.976 1.9064 5.6215 4.692 6.67-3.1094 1.0784-5.2196 3.9776-5.29 7.268 0 5.15 4.462 8.74 11.27 8.74h-.002zm50.094-25.53c-.736-3.68-3.772-8.464-11.684-8.464-6.164 0-11.362 4.416-11.362 10.212 0 4.922 3.358 8.28 8.556 9.338l4.554.92c2.53.506 3.956 1.978 3.956 3.864 0 2.3-1.886 4-5.29 4-4.6 0-6.854-2.9-7.13-6.118l-5.888 1.564c.508 4.648 4.326 10.214 12.974 10.214 7.59 0 11.776-5.06 11.776-10.074 0-4.6-3.174-8.464-9.108-9.614l-4.554-.874c-2.392-.46-3.542-1.886-3.542-3.68 0-2.162 2.024-4.14 5.106-4.14 4.14 0 5.612 2.806 5.934 4.6l5.702-1.748zm9.66 10.948c.2313-2.5965 2.455-4.5574 5.06-4.462 3.5 0 4.968 2.208 5.06 4.462h-10.12zM298.866 58c-.7109 2.2045-2.8429 3.6322-5.152 3.45-2.981.108-5.5071-2.1752-5.7-5.152h16.188c0-.092.092-1.012.092-1.886 0-7.268-4.186-11.73-11.178-11.73-5.8 0-11.132 4.692-11.132 11.914 0 7.636 5.474 12.1 11.684 12.1 5.566 0 9.154-3.266 10.3-7.176L298.866 58zm16.376 16.74V63.792c1.1 1.518 3.4 2.76 6.532 2.76 6.394 0 10.672-5.06 10.672-11.914 0-6.716-3.818-11.776-10.442-11.776-3.4 0-5.934 1.518-6.946 3.266v-2.76h-5.934V74.74h6.118zm11.178-20.056c0 4.048-2.484 6.394-5.612 6.394s-5.658-2.392-5.658-6.394c0-4.002 2.53-6.348 5.658-6.348 3.128 0 5.612 2.346 5.612 6.348zm18.312-18.078h-5.52v3.174a3.26 3.26 0 0 1-3.5 3.588h-1.15V48.8h4.094v10.53c0 4.37 2.76 6.992 7.176 6.992a9.075 9.075 0 0 0 3.45-.552v-5.06a8.879 8.879 0 0 1-1.886.184c-1.748 0-2.668-.644-2.668-2.622V48.8h4.554v-5.428h-4.55v-6.766zm13.984 15.5c.2313-2.5965 2.455-4.5574 5.06-4.462 3.5 0 4.968 2.208 5.06 4.462h-10.12zM369.432 58c-.7109 2.2045-2.8429 3.6322-5.152 3.45-2.981.108-5.5071-2.1752-5.7-5.152h16.192c0-.092.092-1.012.092-1.886 0-7.268-4.186-11.73-11.178-11.73-5.8 0-11.132 4.692-11.132 11.914 0 7.636 5.474 12.1 11.684 12.1 5.566 0 9.154-3.266 10.3-7.176L369.432 58zm16.376 8V52.752a4.142 4.142 0 0 1 4.232-4.462c2.76 0 4 1.84 4 4.278V66h6.072V52.752a4.156 4.156 0 0 1 4.186-4.462c2.806 0 4 1.84 4 4.278V66h5.934V51.326c0-6.072-4-8.6-8.188-8.6a7.863 7.863 0 0 0-7.176 3.772c-1.15-2.438-3.634-3.772-6.716-3.772-2.484 0-5.382 1.2-6.624 3.4v-2.76h-5.842V66h6.122zm40.572 0v-2.76a7.661 7.661 0 0 0 6.714 3.312c6.44 0 10.672-5.106 10.672-11.96 0-6.716-3.818-11.822-10.442-11.822-3.358 0-5.842 1.472-6.854 3.082V32.7h-6.026V66h5.936zm11.27-11.362c0 4.14-2.484 6.44-5.612 6.44-3.082 0-5.658-2.346-5.658-6.44 0-4.14 2.576-6.394 5.658-6.394 3.126 0 5.61 2.256 5.61 6.394h.002zm15.41-2.53c.2313-2.5965 2.455-4.5574 5.06-4.462 3.5 0 4.968 2.208 5.06 4.462h-10.12zM463.776 58c-.7109 2.2045-2.8429 3.6322-5.152 3.45-2.981.108-5.5071-2.1752-5.7-5.152h16.188c0-.092.092-1.012.092-1.886 0-7.268-4.186-11.73-11.178-11.73-5.8 0-11.132 4.692-11.132 11.914 0 7.636 5.474 12.1 11.684 12.1 5.566 0 9.154-3.266 10.3-7.176L463.776 58zm24.056-14.724a13.931 13.931 0 0 0-1.426-.092c-1.932 0-5.06.552-6.44 3.542v-3.358h-5.934V66h6.118V55.65c0-4.876 2.714-6.394 5.842-6.394a9.212 9.212 0 0 1 1.84.184v-6.164z"/>
    <path fill="#FFF" fill-rule="nonzero" d="M363.151 463.178v-13.292h-52.36v13.292h19.18v49.1h13.9v-49.1h19.28zm28.512 5.368a13.216 13.216 0 0 0-3.52-.44c-3.52 0-9.064 1.408-11.352 6.336v-5.9h-12.936v43.736h13.376v-19.1c0-8.712 4.84-11.88 10.208-11.88a18.152 18.152 0 0 1 4.224.44v-13.192zm5.808 31.68c0 6.952 5.544 13.288 15.136 13.288 5.808 0 10.032-2.464 12.32-6.16a21.392 21.392 0 0 0 .444 4.924h12.056a42.977 42.977 0 0 1-.528-6.776v-21.384c0-8.976-5.192-16.9-19.36-16.9-12.848 0-18.656 8.272-19.184 14.52l11.616 2.38c.264-3.256 2.816-6.424 7.48-6.424 4.224 0 6.424 2.2 6.424 4.752 0 1.5-.792 2.64-3.168 2.992l-10.3 1.584c-7.216 1.056-12.936 5.456-12.936 13.2v.004zm18.392 3.608c-3.7 0-5.192-2.2-5.192-4.488 0-3.08 2.112-4.4 4.928-4.84l8.272-1.32v1.936c0 6.772-4.048 8.708-8.008 8.708v.004zm74.1-35.288h-14.08l-9.328 27.192-10.12-27.192h-14.52l17.948 43.732h13.464l16.636-43.732zm15.572 16.632c.4914-4.3806 4.3098-7.6205 8.712-7.392 6.336 0 8.624 4.048 8.8 7.392h-17.512zm18.48 11.352c-1.232 3.432-3.96 5.72-8.8 5.72-5.192 0-9.68-3.52-9.944-8.448h30.448a27.914 27.914 0 0 0 .264-4.136c0-14.08-8.36-22.44-21.912-22.44-11.352 0-21.824 8.976-21.824 23.056 0 14.7 10.736 23.32 22.792 23.32 11.088 0 18.04-6.336 20.152-13.9l-11.176-3.172zm33.968 15.748v-63.712h-13.376v63.712h13.376zm87.12 0v-62.392h-13.992v24.464h-24.9v-24.464h-13.9v62.392h13.9v-24.816h24.9v24.816h13.992zm9.856-12.056c0 6.952 5.544 13.288 15.136 13.288 5.808 0 10.032-2.464 12.32-6.16a21.392 21.392 0 0 0 .44 4.928h12.056a42.9801 42.9801 0 0 1-.528-6.776v-21.384c0-8.976-5.192-16.9-19.36-16.9-12.852.004-18.652 8.276-19.184 14.524l11.616 2.376c.264-3.256 2.816-6.424 7.48-6.424 4.224 0 6.424 2.2 6.424 4.752 0 1.5-.792 2.64-3.168 2.992l-10.3 1.584c-7.212 1.056-12.932 5.456-12.932 13.2zm18.392 3.608c-3.7 0-5.192-2.2-5.192-4.488 0-3.08 2.112-4.4 4.928-4.84l8.272-1.324v1.936c0 6.78-4.048 8.716-8.008 8.716zm52.184-24.288c4.1146-.2177 7.8054 2.5135 8.8 6.512l11.968-3.608c-1.932-7.832-8.976-15.224-21.032-15.224-12.848 0-23.056 9.592-23.056 23.232 0 13.552 10.472 23.144 23.5 23.144 11.7 0 18.92-7.568 20.856-15.224l-11.8-3.608c-1.1532 4.0028-4.8984 6.6947-9.06 6.512-5.54 0-10.208-3.872-10.208-10.824 0-7.04 4.488-10.912 10.032-10.912zm73.216-11h-17.336l-13.288 14.696v-34.672h-13.376v63.712h13.376v-10.736l4.312-4.664 10.296 15.4h16.368l-17.424-25.344 17.072-18.392zm3.08 31.68c0 6.956 5.54 13.288 15.14 13.288 5.808 0 10.032-2.464 12.32-6.16a21.392 21.392 0 0 0 .436 4.928h12.056a42.977 42.977 0 0 1-.528-6.776v-21.384c0-8.976-5.192-16.9-19.36-16.9-12.848 0-18.656 8.272-19.184 14.52l11.616 2.376c.264-3.256 2.816-6.424 7.48-6.424 4.224 0 6.424 2.2 6.424 4.752 0 1.5-.792 2.64-3.168 2.992l-10.3 1.584c-7.212 1.06-12.932 5.46-12.932 13.204zm18.392 3.608c-3.7 0-5.192-2.2-5.192-4.488 0-3.08 2.112-4.4 4.928-4.84l8.272-1.32v1.936c0 6.776-4.048 8.712-8.008 8.712zm47.872-48.052h-11.968v5.632c0 4.048-2.2 7.128-6.776 7.128h-2.2v11.7h7.744v18.744c0 8.712 5.544 14.08 14.608 14.08a15.914 15.914 0 0 0 6.952-1.224V500.75a16.5 16.5 0 0 1-3.52.44c-2.9 0-4.84-.968-4.84-4.576v-16.368h8.536v-11.7h-8.536v-12.768zm28.16 30.8c.264-4.048 2.992-7.04 7.216-7.04 4.84 0 7.128 3.256 7.128 7.568v25.172h13.372v-27.456c0-9.592-5.1-17.424-16.544-17.424-3.872 0-8.448 1.232-11.176 3.96v-22.792h-13.372v63.712h13.376v-25.7zm59.048 14.7c-5.016 0-9.856-3.608-9.856-10.912 0-7.392 4.84-10.824 9.856-10.824 5.1 0 9.856 3.432 9.856 10.824 0 7.392-4.752 10.912-9.856 10.912zm0-34.056c-13.024 0-23.232 9.592-23.232 23.144 0 13.552 10.208 23.232 23.232 23.232 13.112 0 23.232-9.68 23.232-23.232s-10.12-23.144-23.232-23.144zm45.232 19.976c0-4.4 2.816-7.656 7.216-7.656 4.84 0 7.128 3.256 7.128 7.568v25.168h13.376v-27.456c0-9.592-4.928-17.424-15.928-17.424-4.488 0-9.856 2.024-12.232 6.16v-5.016h-12.936v43.736h13.376v-25.08z"/>
  </g>
</svg>
