<svg xmlns="http://www.w3.org/2000/svg" width="50" height="50" viewBox="0 0 50 50">
  <g fill="none" fill-rule="evenodd">
    <circle cx="25" cy="25" r="25" fill="#F5F7F9"/>
    <path fill="#FFF" d="M23.425 17.5385c-1.2656 0-1.8422.3317-2.2781 1.673-.2707.8366-.6469 2.1851-.6469 3.0577v.2885c-2.6121.9555-4.5 3.5192-4.5 6.5192C16 32.8882 19.034 36 22.75 36s6.75-3.1118 6.75-6.923c0-.0974.0035-.1912 0-.2885.2004.1334.3516.3317.4781.5769.1512.2957 1.3992 2.9026 2.1938 4.1827.3023.4904.8191.5769 1.2375.4327.4218-.1443.7207-.7933.5062-1.2981-.675-1.5757-2.162-5.0805-2.4469-5.6827-.2777-.5913-.7347-1.1538-1.4906-1.1538H27.475c-.9246 0-1.3008-.2236-1.5469-1.0962-.246-.8726-.3937-1.6334-.3937-2.3077 0-.8654.3656-1.8281.3656-2.8558 0-1.0024-.9387-2.048-2.475-2.048z"/>
    <path fill="#00826F" fill-rule="nonzero" d="M25.4569 13c-1.242 0-2.2517 1.0349-2.2517 2.3077 0 1.2728 1.0098 2.3077 2.2517 2.3077 1.242 0 2.2516-1.0349 2.2516-2.3077 0-1.2728-1.0097-2.3077-2.2516-2.3077zm-2.0265 5.5385c-1.2665 0-1.8435.3317-2.2798 1.673-.2709.8366-.6473 2.1851-.6473 3.0577v.2885C17.8893 24.5132 16 27.0769 16 30.0769 16 33.8882 19.0362 37 22.755 37c3.7186 0 6.7548-3.1118 6.7548-6.923 0-.0974.0036-.1912 0-.2885.2006.1334.3519.3317.4785.5769.1513.2957 1.4003 2.9026 2.1954 4.1827.3025.4904.8197.5769 1.2384.4327.4221-.1443.7212-.7933.5066-1.2981C33.2532 32.107 31.765 28.6022 31.48 28c-.278-.5913-.7353-1.1538-1.4917-1.1538h-2.505c-.9252 0-1.3017-.2236-1.548-1.0962-.2462-.8726-.394-1.6334-.394-2.3077 0-.8654.366-1.8281.366-2.8558 0-1.0024-.9394-2.048-2.4769-2.048zm-2.7582 6.923c.123.7356.3096 1.3414.5347 2.0193.3554 1.06.7775 2.1346 2.5613 2.1346h3.9122c.0176.1478.0281.3029.0281.4615 0 2.8161-2.2059 5.077-4.9536 5.077-2.7477 0-4.9536-2.2609-4.9536-5.077 0-2.0553 1.168-3.8149 2.8709-4.6154z"/>
  </g>
</svg>
