<svg xmlns="http://www.w3.org/2000/svg" width="70" height="70" viewBox="0 0 70 70">
  <g fill="none" fill-rule="evenodd">
    <circle cx="35" cy="35" r="35" fill="#F5F7F9"/>
    <path fill="#FFF" fill-rule="nonzero" d="M19.695 22.0968h30.0293c.8484 0 1.5015.6585 1.5015 1.514v19.6817c0 .8554-.653 1.514-1.5015 1.514H19.695c-.8484 0-1.5015-.6586-1.5015-1.514V23.6108c0-.8555.6531-1.514 1.5015-1.514z"/>
    <path fill="#00826F" fill-rule="nonzero" d="M19.5699 19c-2.4905 0-4.542 2.0648-4.542 4.5714V43.381c0 1.1711.4605 2.2348 1.1917 3.0476H12C12 48.9536 14.0333 51 16.542 51h36.3354c2.5087 0 4.542-2.0465 4.542-4.5714h-4.2197c.7313-.8128 1.1917-1.8765 1.1917-3.0476V23.5714c0-2.5066-2.0515-4.5714-4.542-4.5714H19.57zm.1251 3.0968h30.0293c.8484 0 1.5015.6585 1.5015 1.514v19.6817c0 .8554-.653 1.514-1.5015 1.514H19.695c-.8484 0-1.5015-.6586-1.5015-1.514V23.6108c0-.8555.6531-1.514 1.5015-1.514zm3.4783 6.1935l-1.883 2.3643c.0837.0685 3.0087 1.4449 4.738 5.7784.5336 1.3369 1.8497 2.1799 3.2667 2.1799 1.1927 0 2.3053-.6083 2.966-1.6178l.3649-.5562c.7458-1.139 2.3895-1.139 3.1353 0l.362.5562c.6636 1.0095 1.7762 1.6178 2.9689 1.6178h.0146c1.411 0 2.7257-.8357 3.2608-2.165 1.7578-4.3655 4.6456-5.7232 4.7293-5.7933l-1.883-2.3643c-.0328.0274-3.4572 2.7093-11.0203 2.7093-7.563 0-10.9874-2.6819-11.0202-2.7093zm6.8912 4.129c.8547 0 1.5484.6937 1.5484 1.5484 0 .8548-.6937 1.5484-1.5484 1.5484s-1.5484-.6936-1.5484-1.5484c0-.8547.6937-1.5483 1.5484-1.5483zm9.2903 0c.8547 0 1.5484.6937 1.5484 1.5484 0 .8548-.6937 1.5484-1.5484 1.5484s-1.5483-.6936-1.5483-1.5484c0-.8547.6936-1.5483 1.5483-1.5483z"/>
  </g>
</svg>
