<svg xmlns="http://www.w3.org/2000/svg" width="50" height="50" viewBox="0 0 50 50">
  <g fill="none" fill-rule="evenodd">
    <circle cx="25" cy="25" r="25" fill="#F5F7F9"/>
    <g fill-rule="nonzero">
      <path fill="#FFF" d="M25 13c-6.6172 0-12 5.3828-12 12s5.3828 12 12 12 12-5.3828 12-12-5.3828-12-12-12z"/>
      <path fill="#00826F" d="M25 13c-6.6172 0-12 5.3828-12 12s5.3828 12 12 12 12-5.3828 12-12-5.3828-12-12-12zm0 2c1.9688 0 3.7969.586 5.3438 1.5625l-.8126.0938.1876 2-1.0626-.4688-.875.75L27.9376 21l2.1563-.6875 2.6874.875-.6874 1.25-1.625-1-1.75.25L27 22.9688l-.9688 3 1.9376 1.5937s1.9882-.3438 2.0937-.3438c.1055 0 .8438 1.8126.8438 1.8126l-1.5938 5C28.0117 34.6523 26.543 35 25 35c-.3164 0-.629-.0352-.9375-.0625l-1.0938-1.9063 1.0626-4L20 26h-3.7188l-.9687-1.9688L18 21.9063 22 20l-.5938-2.6563 1.7188-.375.8125 1.125 3-.5624-.5313-2.3126-2.2187-.1562C24.4531 15.043 24.7265 15 25 15zm-1.125.0625l-1.5625.6563-.75-.125c.7383-.2696 1.504-.4415 2.3125-.5313zm-8.8125 10.7188l.9688 1.125v2.0624l1.875 2.0626h1.1562l2.8438 3.5c-3.7735-1.2227-6.5274-4.6407-6.8438-8.75z"/>
    </g>
  </g>
</svg>
