<svg xmlns="http://www.w3.org/2000/svg" width="70" height="70" viewBox="0 0 70 70">
  <g fill="none" fill-rule="evenodd">
    <circle cx="35" cy="35" r="35" fill="#F5F7F9"/>
    <path fill="#FFF" d="M44.374 26.7344c2.3105 2.575 3.716 5.9786 3.716 9.7106 0 8.033-6.512 14.545-14.545 14.545C25.512 50.99 19 44.478 19 36.445 19 28.412 25.512 21.9 33.545 21.9c3.737 0 7.145 1.4094 9.7211 3.7255a2.0708 2.0708 0 0 1-.1627-.8072c0-1.1476.932-2.0796 2.0796-2.0796 1.1476 0 2.0796.932 2.0796 2.0796 0 1.1477-.932 2.0796-2.0796 2.0796a2.0708 2.0708 0 0 1-.809-.1635z"/>
    <path fill="#00826F" fill-rule="nonzero" d="M45.183 19c-3.2132 0-5.8184 2.6052-5.8184 5.8183 0 2.9994 3.0288 6.9723 4.716 8.952.5805.6807 1.6243.6807 2.2047 0 1.6858-1.9797 4.716-5.9526 4.716-8.952 0-3.2131-2.6051-5.8183-5.8183-5.8183zm-11.6367 2.9092c-4.7434 0-8.9508 2.2939-11.6083 5.8183h-.0284v.037c-2.2851 3.0517-3.4221 7.0102-2.6876 11.2474 1.0226 5.8984 5.723 10.6712 11.614 11.7418 9.206 1.6713 17.2562-5.3908 17.2562-14.2987 0-.1018-.0128-.2008-.0143-.3011-.3447.3869-.6295.6905-.8011.8665l-2.5569 2.6591c-.5033 1.7412-1.4097 3.309-2.5995 4.6138-.3767-1.1695-1.4612-2.02-2.7558-2.02h-1.4545v-2.9091c0-1.6073-1.3019-2.9092-2.9092-2.9092H30.637c-.803 0-1.4546-.6516-1.4546-1.4546 0-.8029.6517-1.4545 1.4546-1.4545.803 0 1.4546-.6517 1.4546-1.4546v-1.4546c0-.803.6517-1.4546 1.4546-1.4546h1.4546c.8567 0 1.621-.3768 2.1534-.966-.4247-1.136-.6988-2.2894-.6988-3.3978 0-.877.132-1.7213.375-2.52-1.0575-.2457-2.154-.3891-3.2842-.3891zm11.6367.8295c1.1476 0 2.0796.932 2.0796 2.0796 0 1.1477-.932 2.0796-2.0796 2.0796-1.1477 0-2.0796-.9319-2.0796-2.0796 0-1.1476.932-2.0796 2.0796-2.0796zm-22.9666 11.114l2.6024 2.6023 4.3637 4.3638v1.4546c0 1.6073 1.3019 2.9091 2.9092 2.9091v2.8098c-5.731-.72-10.182-5.6142-10.182-11.5373 0-.896.1133-1.7645.3067-2.6023z"/>
  </g>
</svg>
