<svg xmlns="http://www.w3.org/2000/svg" width="70" height="70" viewBox="0 0 70 70">
  <g fill="none" fill-rule="evenodd">
    <circle cx="35" cy="35" r="35" fill="#F5F7F9"/>
    <path fill="#FFF" fill-rule="nonzero" d="M31.338 21.6676c6.0646 0 10.6703 4.0691 10.6703 8.6697 0 4.6005-4.6057 8.6697-10.6703 8.6697-1.0837 0-1.7037.4428-2.5843.917-.8805.474-1.8912 1.0628-2.876 1.5838-.8544.4533-1.6672.7972-2.4175 1.042.7295-1.0524 1.4901-2.4383 1.6256-4.3765l.0417-.7502-.6252-.4585c-2.3759-1.662-3.8347-4.064-3.8347-6.6273 0-4.6006 4.6058-8.6697 10.6704-8.6697z"/>
    <path fill="#00826F" fill-rule="nonzero" d="M31.338 19C24.0646 19 18 24.0017 18 30.3373c0 3.2407 1.7714 6.0646 4.2932 8.1278-.2032 1.3077-.7347 2.2925-1.2922 3.001-.3178.4012-.6043.7399-.8753 1.042-.1354.1512-.2657.297-.4168.542-.0781.125-.1927.2604-.25.5418-.0574.2813.0208.7398.25 1.0837l.1668.2918.3334.1667c1.167.5835 2.428.4793 3.5846.1667s2.2716-.8545 3.3345-1.4171c1.0628-.5627 2.0788-1.1515 2.876-1.584.1094-.0625.1823-.0729.2917-.125 2.105 2.8917 5.9552 4.835 10.2536 4.835.0417.0052.0782 0 .125 0 1.735 0 7.336 5.726 10.6704 3.4596.1355-.5315-2.9333-1.8653-3.0844-5.8354 2.6103-1.8444 4.2932-4.5901 4.2932-7.6276 0-4.4964-3.569-8.2164-8.3362-9.545C42.7117 22.5533 37.465 19 31.338 19zm0 2.6676c6.0646 0 10.6703 4.0691 10.6703 8.6697 0 4.6005-4.6057 8.6697-10.6703 8.6697-1.0837 0-1.7037.4428-2.5843.917-.8805.474-1.8912 1.0628-2.876 1.5838-.8544.4533-1.6672.7972-2.4175 1.042.7295-1.0524 1.4901-2.4383 1.6256-4.3765l.0417-.7502-.6252-.4585c-2.3759-1.662-3.8347-4.064-3.8347-6.6273 0-4.6006 4.6058-8.6697 10.6704-8.6697z"/>
  </g>
</svg>
