<svg height="25.054" viewBox="0 0 25.054 25.054" width="25.054" xmlns="http://www.w3.org/2000/svg"><g fill="none"><g stroke="#00a991" stroke-width="3"><path d="m0 0h25.054a0 0 0 0 1 0 0v15.054a10 10 0 0 1 -10 10h-5.054a10 10 0 0 1 -10-10v-15.054a0 0 0 0 1 0 0z" stroke="none"/><path d="m3 1.5h19.054a1.5 1.5 0 0 1 1.5 1.5v12.054a8.5 8.5 0 0 1 -8.5 8.5h-5.054a8.5 8.5 0 0 1 -8.5-8.5v-12.054a1.5 1.5 0 0 1 1.5-1.5z" fill="none"/></g><g transform="translate(3.369 14.473)"><path d="m1.343 0h4.737a1.343 1.343 0 0 1 1.344 1.343v4.737a1.343 1.343 0 0 1 -1.344 1.344h-4.737a1.343 1.343 0 0 1 -1.343-1.344v-4.737a1.343 1.343 0 0 1 1.343-1.343z"/><path d="m2.00000238 2.00000381v3.42356015h3.42363978v-3.42356015zm-.65681982-2h4.7372799c.74181985 0 1.34318018.60135031 1.34318018 1.34317017v4.73721981c0 .74180985-.60136033 1.34317017-1.34318018 1.34317017h-4.7372799c-.74181985 0-1.34318018-.60136032-1.34318018-1.34317017v-4.73721981c0-.74181986.60136033-1.34317017 1.34318018-1.34317017z" fill="#00a991"/></g><g transform="translate(9.197 10.977)"><path d="m1.343 0h4.737a1.343 1.343 0 0 1 1.344 1.343v4.737a1.343 1.343 0 0 1 -1.344 1.344h-4.737a1.343 1.343 0 0 1 -1.343-1.344v-4.737a1.343 1.343 0 0 1 1.343-1.343z"/><path d="m2.00000238 2.00000381v3.42356015h3.42363978v-3.42356015zm-.65681982-2h4.7372799c.74181985 0 1.34318018.60135031 1.34318018 1.34317017v4.73721981c0 .74180985-.60136033 1.34317017-1.34318018 1.34317017h-4.7372799c-.74181985 0-1.34318018-.60136032-1.34318018-1.34317017v-4.73721981c0-.74181986.60136033-1.34317017 1.34318018-1.34317017z" fill="#00a991"/></g><g transform="translate(15.024 14.473)"><path d="m1.343 0h4.737a1.343 1.343 0 0 1 1.344 1.343v4.737a1.343 1.343 0 0 1 -1.344 1.344h-4.737a1.343 1.343 0 0 1 -1.343-1.344v-4.737a1.343 1.343 0 0 1 1.343-1.343z"/><path d="m2.00000238 2.00000381v3.42356015h3.42363978v-3.42356015zm-.65681982-2h4.7372799c.74181985 0 1.34318018.60135031 1.34318018 1.34317017v4.73721981c0 .74180985-.60136033 1.34317017-1.34318018 1.34317017h-4.7372799c-.74181985 0-1.34318018-.60136032-1.34318018-1.34317017v-4.73721981c0-.74181986.60136033-1.34317017 1.34318018-1.34317017z" fill="#00a991"/></g></g></svg>