<svg height="197.547" viewBox="0 0 134.337 197.547" width="134.337" xmlns="http://www.w3.org/2000/svg"><circle cx="69.337" cy="132.547" fill="#f5f7f9" r="65"/><g fill="#e5eaef"><g><path d="m8.628 4.314a4.314 4.314 0 1 1 -4.314-4.314 4.314 4.314 0 0 1 4.314 4.314z"/><path d="m25.118 4.314a4.314 4.314 0 1 1 -4.318-4.314 4.314 4.314 0 0 1 4.314 4.314z" transform="translate(4.62)"/><path d="m41.608 4.314a4.314 4.314 0 1 1 -4.314-4.314 4.314 4.314 0 0 1 4.314 4.314z" transform="translate(9.241)"/><path d="m58.1 4.314a4.314 4.314 0 1 1 -4.316-4.314 4.314 4.314 0 0 1 4.316 4.314z" transform="translate(13.861)"/><path d="m74.588 4.314a4.314 4.314 0 1 1 -4.314-4.314 4.314 4.314 0 0 1 4.314 4.314z" transform="translate(18.481)"/><path d="m91.078 4.314a4.314 4.314 0 1 1 -4.314-4.314 4.314 4.314 0 0 1 4.314 4.314z" transform="translate(23.102)"/><ellipse cx="4.314" cy="25.706" rx="4.314" ry="4.314"/><path d="m25.118 21.024a4.314 4.314 0 1 1 -4.318-4.314 4.314 4.314 0 0 1 4.314 4.314z" transform="translate(4.62 4.682)"/><path d="m41.608 21.024a4.314 4.314 0 1 1 -4.314-4.314 4.314 4.314 0 0 1 4.314 4.314z" transform="translate(9.241 4.682)"/><ellipse cx="67.645" cy="25.706" rx="4.314" ry="4.314"/><ellipse cx="88.755" cy="25.706" rx="4.314" ry="4.314"/><ellipse cx="109.865" cy="25.706" rx="4.314" ry="4.314"/><path d="m8.628 37.734a4.314 4.314 0 1 1 -4.314-4.314 4.314 4.314 0 0 1 4.314 4.314z" transform="translate(0 9.364)"/><path d="m25.118 37.734a4.314 4.314 0 1 1 -4.318-4.314 4.314 4.314 0 0 1 4.318 4.314z" transform="translate(4.62 9.364)"/><path d="m41.608 37.734a4.314 4.314 0 1 1 -4.314-4.314 4.314 4.314 0 0 1 4.314 4.314z" transform="translate(9.241 9.364)"/><path d="m58.1 37.734a4.314 4.314 0 1 1 -4.314-4.314 4.314 4.314 0 0 1 4.314 4.314z" transform="translate(13.861 9.364)"/><path d="m74.588 37.734a4.314 4.314 0 1 1 -4.314-4.314 4.314 4.314 0 0 1 4.314 4.314z" transform="translate(18.481 9.364)"/><path d="m91.078 37.734a4.314 4.314 0 1 1 -4.314-4.314 4.314 4.314 0 0 1 4.314 4.314z" transform="translate(23.102 9.364)"/><path d="m8.628 54.444a4.314 4.314 0 1 1 -4.314-4.314 4.314 4.314 0 0 1 4.314 4.314z" transform="translate(0 14.046)"/><path d="m25.118 54.444a4.314 4.314 0 1 1 -4.318-4.314 4.314 4.314 0 0 1 4.314 4.314z" transform="translate(4.62 14.046)"/><path d="m41.608 54.444a4.314 4.314 0 1 1 -4.314-4.314 4.314 4.314 0 0 1 4.314 4.314z" transform="translate(9.241 14.046)"/><path d="m58.1 54.444a4.314 4.314 0 1 1 -4.314-4.314 4.314 4.314 0 0 1 4.314 4.314z" transform="translate(13.861 14.046)"/><path d="m74.588 54.444a4.314 4.314 0 1 1 -4.314-4.314 4.314 4.314 0 0 1 4.314 4.314z" transform="translate(18.481 14.046)"/><path d="m91.078 54.444a4.314 4.314 0 1 1 -4.314-4.314 4.314 4.314 0 0 1 4.314 4.314z" transform="translate(23.102 14.046)"/><ellipse cx="4.314" cy="89.882" rx="4.314" ry="4.314"/><path d="m25.118 71.154a4.314 4.314 0 1 1 -4.318-4.314 4.314 4.314 0 0 1 4.318 4.314z" transform="translate(4.62 18.728)"/><path d="m41.608 71.154a4.314 4.314 0 1 1 -4.314-4.314 4.314 4.314 0 0 1 4.314 4.314z" transform="translate(9.241 18.728)"/><ellipse cx="67.645" cy="89.882" rx="4.314" ry="4.314"/><ellipse cx="88.755" cy="89.882" rx="4.314" ry="4.314"/><ellipse cx="109.865" cy="89.882" rx="4.314" ry="4.314"/></g><g transform="translate(0 84.614)"><path d="m8.628 4.314a4.314 4.314 0 1 1 -4.314-4.314 4.314 4.314 0 0 1 4.314 4.314z"/><path d="m25.118 4.314a4.314 4.314 0 1 1 -4.318-4.314 4.314 4.314 0 0 1 4.314 4.314z" transform="translate(4.62)"/><path d="m41.608 4.314a4.314 4.314 0 1 1 -4.314-4.314 4.314 4.314 0 0 1 4.314 4.314z" transform="translate(9.241)"/><path d="m58.1 4.314a4.314 4.314 0 1 1 -4.316-4.314 4.314 4.314 0 0 1 4.316 4.314z" transform="translate(13.861)"/><path d="m74.588 4.314a4.314 4.314 0 1 1 -4.314-4.314 4.314 4.314 0 0 1 4.314 4.314z" transform="translate(18.481)"/><path d="m91.078 4.314a4.314 4.314 0 1 1 -4.314-4.314 4.314 4.314 0 0 1 4.314 4.314z" transform="translate(23.102)"/><ellipse cx="4.314" cy="25.706" rx="4.314" ry="4.314"/><path d="m25.118 21.024a4.314 4.314 0 1 1 -4.318-4.314 4.314 4.314 0 0 1 4.314 4.314z" transform="translate(4.62 4.682)"/><path d="m41.608 21.024a4.314 4.314 0 1 1 -4.314-4.314 4.314 4.314 0 0 1 4.314 4.314z" transform="translate(9.241 4.682)"/><ellipse cx="67.645" cy="25.706" rx="4.314" ry="4.314"/><ellipse cx="88.755" cy="25.706" rx="4.314" ry="4.314"/><ellipse cx="109.865" cy="25.706" rx="4.314" ry="4.314"/><path d="m8.628 37.734a4.314 4.314 0 1 1 -4.314-4.314 4.314 4.314 0 0 1 4.314 4.314z" transform="translate(0 9.364)"/><path d="m25.118 37.734a4.314 4.314 0 1 1 -4.318-4.314 4.314 4.314 0 0 1 4.318 4.314z" transform="translate(4.62 9.364)"/><path d="m41.608 37.734a4.314 4.314 0 1 1 -4.314-4.314 4.314 4.314 0 0 1 4.314 4.314z" transform="translate(9.241 9.364)"/><path d="m58.1 37.734a4.314 4.314 0 1 1 -4.314-4.314 4.314 4.314 0 0 1 4.314 4.314z" transform="translate(13.861 9.364)"/><path d="m74.588 37.734a4.314 4.314 0 1 1 -4.314-4.314 4.314 4.314 0 0 1 4.314 4.314z" transform="translate(18.481 9.364)"/><path d="m91.078 37.734a4.314 4.314 0 1 1 -4.314-4.314 4.314 4.314 0 0 1 4.314 4.314z" transform="translate(23.102 9.364)"/><path d="m8.628 54.444a4.314 4.314 0 1 1 -4.314-4.314 4.314 4.314 0 0 1 4.314 4.314z" transform="translate(0 14.046)"/><path d="m25.118 54.444a4.314 4.314 0 1 1 -4.318-4.314 4.314 4.314 0 0 1 4.314 4.314z" transform="translate(4.62 14.046)"/><path d="m41.608 54.444a4.314 4.314 0 1 1 -4.314-4.314 4.314 4.314 0 0 1 4.314 4.314z" transform="translate(9.241 14.046)"/><path d="m58.1 54.444a4.314 4.314 0 1 1 -4.314-4.314 4.314 4.314 0 0 1 4.314 4.314z" transform="translate(13.861 14.046)"/><path d="m74.588 54.444a4.314 4.314 0 1 1 -4.314-4.314 4.314 4.314 0 0 1 4.314 4.314z" transform="translate(18.481 14.046)"/><path d="m91.078 54.444a4.314 4.314 0 1 1 -4.314-4.314 4.314 4.314 0 0 1 4.314 4.314z" transform="translate(23.102 14.046)"/><ellipse cx="4.314" cy="89.882" rx="4.314" ry="4.314"/><path d="m25.118 71.154a4.314 4.314 0 1 1 -4.318-4.314 4.314 4.314 0 0 1 4.318 4.314z" transform="translate(4.62 18.728)"/><path d="m41.608 71.154a4.314 4.314 0 1 1 -4.314-4.314 4.314 4.314 0 0 1 4.314 4.314z" transform="translate(9.241 18.728)"/><ellipse cx="67.645" cy="89.882" rx="4.314" ry="4.314"/><ellipse cx="88.755" cy="89.882" rx="4.314" ry="4.314"/><ellipse cx="109.865" cy="89.882" rx="4.314" ry="4.314"/></g></g></svg>