<svg height="98" viewBox="0 0 122 98" width="122" xmlns="http://www.w3.org/2000/svg"><g fill="none" fill-rule="evenodd" transform="translate(0 -1)"><g fill-rule="nonzero"><path d="m120.187 7.76c-6.223 6.329-13.275 5.888-18.881 5.536-4.989-.3-8.938-.547-12.676 3.191s-3.526 7.7-3.191 12.693c.335 5.589.776 12.552-5.553 18.881s-13.293 5.889-18.812 5.539c-4.989-.3-8.938-.547-12.676 3.209s-3.526 7.687-3.191 12.676c.335 5.589.776 12.552-5.553 18.881s-13.363 5.934-18.954 5.534c-4.989-.3-8.991-.547-12.676 3.191a4.037 4.037 0 1 1 -5.709-5.691c6.329-6.329 13.293-5.906 18.881-5.553 4.989.317 8.938.564 12.676-3.191s3.528-7.692 3.208-12.681c-.353-5.589-.793-12.552 5.536-18.881s13.293-5.888 18.884-5.554c4.989.317 8.938.564 12.676-3.191s3.526-7.687 3.209-12.676c-.353-5.589-.793-12.57 5.536-18.881s13.29-5.906 18.879-5.553c4.989.317 8.938.564 12.693-3.191 1.5965-1.4499 4.0506-1.389 5.5732.1384 1.5225 1.5274 1.5757 3.9817.1208 5.5736z" fill="#f9971e"/><path d="m69.964 86.996c-5.5217.098-10.0776-4.2988-10.1758-9.8206-.0983-5.5218 4.2983-10.0778 9.82-10.1763 5.5219-.0984 10.078 4.298 10.1767 9.8198a10 10 0 0 1 -9.8208 10.177zm-5.1775-9.9628c.0197 2.7544 2.2634 4.9741 5.0178 4.9643 2.7545-.0099 4.9822-2.2455 4.9822-5 0-2.7544-2.2277-4.9901-4.9822-5-2.7544-.0098-4.998 2.21-5.0178 4.9643z" fill="#00a991"/><path d="m63.899 28.703h-3.951v-3.951h-4.131v3.951h-3.951v4.131h3.951v3.951h4.131v-3.951h3.951z" fill="#5f738c"/><path d="m21.625 41.113 4.431 5.769a.339.339 0 0 0 .541 0l.227-.312a.1.1 0 0 0 -.1-.15l-2.31-5.538a5.653 5.653 0 0 0 .717-.578.51.51 0 0 0 -.061-.778l-.02-.014a.507.507 0 0 0 -.682.111 2.514 2.514 0 0 0 -.293.455l-.644-1.542a.571.571 0 0 1 .059-.546l2.671-3.849a4.322 4.322 0 0 0 .328-.873 1.758 1.758 0 0 0 -.133-1.051c-.132-.1-.742.045-1.04.2a4.256 4.256 0 0 0 -.728.58l-2.827 3.735a.562.562 0 0 1 -.5.227l-1.67-.133a2.836 2.836 0 0 0 .343-.421.507.507 0 0 0 -.107-.682l-.018-.016a.51.51 0 0 0 -.76.182 5.5 5.5 0 0 0 -.33.86l-5.968-.485a.1.1 0 0 0 -.175-.052l-.227.309a.337.337 0 0 0 .164.519l6.853 2.422a.227.227 0 0 1 .107.33l-1.31 1.876a18.262 18.262 0 0 0 -1.308 2.32.207.207 0 0 1 -.191.116l-2.641-.039a.082.082 0 0 0 -.146-.055l-.173.227a.419.419 0 0 0 .2.639l2.024.757a.2.2 0 0 1 .127.246c-.034.136-.059.257-.075.359a.177.177 0 0 0 .257.187c.091-.048.2-.107.318-.184a.209.209 0 0 1 .282.043l1.331 1.7a.419.419 0 0 0 .666 0l.173-.227a.082.082 0 0 0 -.091-.127l-.855-2.5a.2.2 0 0 1 .055-.214 18.15 18.15 0 0 0 1.792-1.961l1.381-1.82a.227.227 0 0 1 .346 0" fill="#00a991"/></g><circle cx="19" cy="70" fill="#252a31" r="5"/></g></svg>