<svg height="101.001" viewBox="0 0 125 101.001" width="125" xmlns="http://www.w3.org/2000/svg"><path d="m123.5 7.085c-6.452 6.562-13.764 6.105-19.577 5.74-5.173-.311-9.267-.567-13.143 3.309s-3.656 7.988-3.309 13.161c.347 5.794.8 13.015-5.758 19.577s-13.782 6.105-19.5 5.74c-5.173-.311-9.267-.567-13.143 3.327s-3.656 7.97-3.309 13.143c.347 5.794.8 13.015-5.758 19.577s-13.856 6.16-19.65 5.74c-5.173-.311-9.322-.567-13.143 3.309a4.186 4.186 0 1 1 -5.922-5.9c6.562-6.562 13.782-6.123 19.577-5.758 5.173.329 9.267.585 13.143-3.309s3.656-7.97 3.327-13.143c-.366-5.794-.823-13.015 5.74-19.577s13.782-6.105 19.577-5.758c5.173.329 9.267.585 13.143-3.309s3.656-7.97 3.327-13.143c-.366-5.794-.823-13.033 5.74-19.577s13.782-6.123 19.577-5.758c5.173.329 9.267.585 13.161-3.309a4.186 4.186 0 0 1 5.9 5.922z" fill="#f7ab1d" transform="translate(.076 -.076)"/><circle cx="118.5" cy="36.5" fill="#00a991" r="6.5"/><path d="m6.32 12.426a6.217 6.217 0 1 1 6.106-6.326 6.217 6.217 0 0 1 -6.106 6.326zm-.167-9.526a1.373 1.373 0 1 0 0-.02z" fill="#fff" transform="translate(51.008 19.008)"/></svg>