<svg height="281" viewBox="0 0 395 281" width="395" xmlns="http://www.w3.org/2000/svg"><g fill="none" fill-rule="evenodd" transform="translate(-1)"><path d="m311.799 31.94 15.848 20.64a1.212 1.212 0 0 0 1.936 0l.816-1.114a.342.342 0 0 0 -.374-.537l-8.25-19.811a20.217 20.217 0 0 0 2.563-2.066 1.822 1.822 0 0 0 -.22-2.782l-.073-.049c-.7925-.5281-1.8585-.3534-2.441.4a8.99 8.99 0 0 0 -1.05 1.627l-2.294-5.524a2.042 2.042 0 0 1 .212-1.953l9.553-13.767a15.458 15.458 0 0 0 1.174-3.124c.2-1.18 0-3.393-.472-3.759s-2.652.163-3.718.716a15.222 15.222 0 0 0 -2.61 2.075l-10.108 13.359a2.01 2.01 0 0 1 -1.79.814l-5.963-.48a10.145 10.145 0 0 0 1.228-1.506c.5321-.788.3654-1.8532-.382-2.441l-.065-.059a1.822 1.822 0 0 0 -2.717.651 19.672 19.672 0 0 0 -1.18 3.075l-21.357-1.726a.342.342 0 0 0 -.626-.187l-.814 1.102a1.2 1.2 0 0 0 .586 1.855l24.513 8.665a.814.814 0 0 1 .382 1.18l-4.686 6.712a65.315 65.315 0 0 0 -4.678 8.3.74.74 0 0 1 -.683.415l-9.446-.142a.293.293 0 0 0 -.521-.2l-.618.814a1.5 1.5 0 0 0 .7 2.286l7.241 2.709a.732.732 0 0 1 .456.879c-.122.488-.212.919-.268 1.285a.635.635 0 0 0 .919.667c.325-.171.716-.382 1.139-.659a.748.748 0 0 1 1.009.155l4.759 6.086a1.5 1.5 0 0 0 2.384 0l.618-.814a.293.293 0 0 0 -.325-.456l-3.059-8.949a.732.732 0 0 1 .2-.765 64.915 64.915 0 0 0 6.411-7.013l4.938-6.509a.814.814 0 0 1 1.237 0" fill="#f9971e" fill-rule="nonzero"/><g fill="#00a991" fill-rule="nonzero"><path d="m305.5247 242.2368 14.4974 3.0797-3.0796 14.4974-4.0884-.8685 2.202-10.403-10.3925-2.2077z"/><path d="m294.6496 249.3011 14.4974 3.0797-3.0796 14.4974-4.0884-.8685 2.202-10.403-10.3925-2.2077z"/><path d="m283.7745 256.3654 14.4974 3.0797-3.0797 14.4974-4.0883-.8685 2.202-10.403-10.3925-2.2077z"/><path d="m272.8994 263.4297 14.4974 3.0796-3.0797 14.4974-4.0975-.8624 2.2111-10.4091-10.4025-2.2011z"/></g><path d="m35.766 201.559h-5.842v-5.842h-6.108v5.842h-5.842v6.108h5.842v5.842h6.108v-5.842h5.842z" fill="#f9971e" fill-rule="nonzero"/><path d="m261.072 108.961c-5.5217.098-10.0776-4.2988-10.1758-9.8206-.0983-5.5218 4.2983-10.0778 9.82-10.1763 5.5219-.0984 10.078 4.298 10.1767 9.8198a10 10 0 0 1 -9.8208 10.177zm-7.1775-9.9485c.0276 3.8561 3.1687 6.9637 7.025 6.95 3.8562-.0138 6.975-3.1438 6.975-7s-3.1188-6.9862-6.975-7c-3.8563-.0137-6.9974 3.0939-7.025 6.95z" fill="#fff" fill-rule="nonzero"/><g stroke="#f7ab1d" stroke-width="1.3302"><path d="m9.3044 85.6165 48.4252 21.9795-5.1835-52.9196z"/><path d="m3.6549 99.856 48.4165 21.9771-5.1748-52.9172z"/></g><path d="m221.016 52.586c-6.717 6.831-14.328 6.355-20.378 5.975-5.385-.323-9.647-.59-13.681 3.444s-3.806 8.315-3.444 13.7c.362 6.032.837 13.548-5.994 20.378s-14.347 6.355-20.3 5.975c-5.385-.323-9.647-.59-13.681 3.463s-3.806 8.3-3.444 13.681c.362 6.032.837 13.548-5.994 20.379s-14.423 6.412-20.455 5.975c-5.385-.323-9.7-.59-13.681 3.444a4.357 4.357 0 1 1 -6.165-6.146c6.831-6.831 14.347-6.374 20.378-5.994 5.385.342 9.647.609 13.681-3.444s3.806-8.3 3.463-13.681c-.381-6.032-.856-13.548 5.975-20.379s14.347-6.355 20.378-5.994c5.385.342 9.647.609 13.681-3.444s3.806-8.3 3.463-13.681c-.381-6.032-.856-13.567 5.975-20.379s14.347-6.374 20.379-5.994c5.385.342 9.647.609 13.7-3.444 1.7225-1.5693 4.3748-1.5056 6.02.1446 1.6451 1.6502 1.7007 4.3028.126 6.0204z" fill="#00a991" fill-rule="nonzero"/><circle cx="178.915" cy="167.411" fill="#f9971e" fill-rule="nonzero" r="5.661"/><g fill="#f9971e" fill-rule="nonzero"><path d="m208.1652 239.919c-3.4087.9442-5.7548-.6124-7.619-1.8515-1.6621-1.097-2.9758-1.9698-5.0103-1.4239s-2.7517 1.9562-3.6305 3.7444c-.9984 1.9951-2.2324 4.4846-5.6786 5.4094-3.446.9249-5.7634-.6174-7.5982-1.8395-1.6621-1.097-2.9757-1.9698-5.0137-1.4179-2.038.552-2.7473 1.9484-3.6271 3.7383-.9983 1.9952-2.2324 4.4847-5.6785 5.4095-3.4462.9249-5.7956-.6117-7.6433-1.8655-1.6625-1.0985-2.993-1.982-5.0111-1.4245a1.609 1.609 0 1 1 -.8366-3.103c3.4451-.923 5.767.6114 7.6225 1.8455 1.6586 1.1031 2.9723 1.9759 5.0103 1.424 2.038-.552 2.7482-1.9502 3.6331-3.7349.9914-1.9991 2.2263-4.488 5.6725-5.413 3.446-.9248 5.7634.6175 7.6224 1.8456 1.6587 1.103 2.9723 1.9758 5.0103 1.4239 2.038-.552 2.7483-1.9502 3.6332-3.7348.994-1.9977 2.2322-4.4963 5.6748-5.4151s5.767.6114 7.6225 1.8455c1.6586 1.1031 2.9723 1.9758 5.0163 1.4274.8589-.229 1.7407.2817 1.9696 1.1406.229.8588-.2817 1.7407-1.1406 1.9696z"/><path d="m208.1652 239.919c-3.4087.9442-5.7548-.6124-7.619-1.8515-1.6621-1.097-2.9758-1.9698-5.0103-1.4239s-2.7517 1.9562-3.6305 3.7444c-.9984 1.9951-2.2324 4.4846-5.6786 5.4094-3.446.9249-5.7634-.6174-7.5982-1.8395-1.6621-1.097-2.9757-1.9698-5.0137-1.4179-2.038.552-2.7473 1.9484-3.6271 3.7383-.9983 1.9952-2.2324 4.4847-5.6785 5.4095-3.4462.9249-5.7956-.6117-7.6433-1.8655-1.6625-1.0985-2.993-1.982-5.0111-1.4245a1.609 1.609 0 1 1 -.8366-3.103c3.4451-.923 5.767.6114 7.6225 1.8455 1.6586 1.1031 2.9723 1.9759 5.0103 1.424 2.038-.552 2.7482-1.9502 3.6331-3.7349.9914-1.9991 2.2263-4.488 5.6725-5.413 3.446-.9248 5.7634.6175 7.6224 1.8456 1.6587 1.103 2.9723 1.9758 5.0103 1.4239 2.038-.552 2.7483-1.9502 3.6332-3.7348.994-1.9977 2.2322-4.4963 5.6748-5.4151s5.767.6114 7.6225 1.8455c1.6586 1.1031 2.9723 1.9758 5.0163 1.4274.8589-.229 1.7407.2817 1.9696 1.1406.229.8588-.2817 1.7407-1.1406 1.9696z"/></g><g stroke="#fff" stroke-width="1.3299"><path d="m270.0005 192.0385-11.9498 23.0478 25.932-1.1787z"/><path d="m263.2025 188.9212-11.9486 23.044 25.9308-1.1748z"/></g><g fill-rule="nonzero"><g fill="#fff"><path d="m125.2449 16.211 5.3016-2.8181 2.8184 5.3006-1.4984.7967-2.0217-3.8022-3.8004 2.0191z"/><path d="m123.709 21.2345 5.3017-2.8181 2.8184 5.3006-1.4985.7967-2.0216-3.8022-3.8004 2.019z"/><path d="m122.173 26.2589 5.3015-2.8181 2.8184 5.3006-1.4984.7967-2.0217-3.8022-3.8003 2.0191z"/><path d="m120.6371 31.2823 5.3016-2.818 2.8184 5.3006-1.4984.7967-2.0217-3.8022-3.8018 2.0239z"/></g><path d="m395.3743 72.5607c-4.1383 6.4973-10.2082 7.3967-15.0327 8.11-4.2908.6468-7.688 1.1505-10.1819 4.997-2.494 3.8466-1.6023 7.1786-.4169 11.3538 1.2938 4.6847 2.9254 10.5202-1.3052 17.035-4.2306 6.515-10.2238 7.4001-14.972 8.0972-4.2908.6468-7.688 1.1505-10.1835 5.0137-2.4955 3.8633-1.6056 7.163-.42 11.339 1.2938 4.6848 2.9254 10.5203-1.3052 17.0352-4.2306 6.515-10.2719 7.4573-15.0923 8.1227-4.2908.6468-7.7329 1.16-10.1868 4.9981a3.5046 3.5046 0 1 1 -5.8782-3.8037c4.2311-6.5171 10.2205-7.4158 15.0296-8.1247 4.294-.6312 7.6912-1.1349 10.1867-4.9981 2.4955-3.8633 1.6057-7.163.4357-11.3424-1.3085-4.6816-2.941-10.5169 1.2905-17.032 4.2316-6.5151 10.2238-7.4 15.0296-8.1247 4.294-.6311 7.6912-1.1348 10.1867-4.998 2.4955-3.8633 1.6057-7.163.4357-11.3425-1.3085-4.6816-2.9438-10.5296 1.2905-17.032s10.2126-7.414 15.0216-8.124c4.294-.631 7.6912-1.1348 10.2014-5.0012 1.0935-1.52 3.1887-1.9118 4.7576-.8898 1.569 1.022 2.0573 3.0968 1.109 4.7114z" fill="#f9971e"/><path d="m387.007 153.668h-3.951v-3.951h-4.131v3.951h-3.951v4.131h3.951v3.951h4.131v-3.951h3.951z" fill="#00a991"/><path d="m395.3743 72.5607c-4.1383 6.4973-10.2082 7.3967-15.0327 8.11-4.2908.6468-7.688 1.1505-10.1819 4.997-2.494 3.8466-1.6023 7.1786-.4169 11.3538 1.2938 4.6847 2.9254 10.5202-1.3052 17.035-4.2306 6.515-10.2238 7.4001-14.972 8.0972-4.2908.6468-7.688 1.1505-10.1835 5.0137-2.4955 3.8633-1.6056 7.163-.42 11.339 1.2938 4.6848 2.9254 10.5203-1.3052 17.0352-4.2306 6.515-10.2719 7.4573-15.0923 8.1227-4.2908.6468-7.7329 1.16-10.1868 4.9981a3.5046 3.5046 0 1 1 -5.8782-3.8037c4.2311-6.5171 10.2205-7.4158 15.0296-8.1247 4.294-.6312 7.6912-1.1349 10.1867-4.9981 2.4955-3.8633 1.6057-7.163.4357-11.3424-1.3085-4.6816-2.941-10.5169 1.2905-17.032 4.2316-6.5151 10.2238-7.4 15.0296-8.1247 4.294-.6311 7.6912-1.1348 10.1867-4.998 2.4955-3.8633 1.6057-7.163.4357-11.3425-1.3085-4.6816-2.9438-10.5296 1.2905-17.032s10.2126-7.414 15.0216-8.124c4.294-.631 7.6912-1.1348 10.2014-5.0012 1.0935-1.52 3.1887-1.9118 4.7576-.8898 1.569 1.022 2.0573 3.0968 1.109 4.7114z" fill="#f9971e"/><path d="m108.4848 211.8525c-2.489 1.9793-4.978 1.5142-6.956 1.1402-1.7615-.3243-3.1533-.589-4.6477.5811-1.4945 1.1701-1.5902 2.5887-1.689 4.3778-.1248 2.0007-.273 4.5025-2.8 6.472-2.5271 1.9696-4.985 1.5134-6.9318 1.1472-1.7614-.3242-3.1532-.589-4.6484.5871s-1.59 2.5797-1.6889 4.3688c-.1248 2.0006-.273 4.5024-2.8 6.472-2.5271 1.9696-5.011 1.5283-6.9803 1.1402-1.7615-.3242-3.173-.5914-4.6477.5812a1.4467 1.4467 0 1 1 -1.7818-2.2752c2.5277-1.9746 4.9857-1.5194 6.9573-1.1502 1.7606.3313 3.1532.589 4.6477-.581 1.4945-1.1702 1.59-2.5797 1.6948-4.3681.119-2.0014.267-4.5032 2.7941-6.4728s4.985-1.5134 6.9573-1.15c1.7606.3311 3.1532.589 4.6477-.5812 1.4945-1.1701 1.59-2.5796 1.6948-4.368.119-2.0014.267-4.5032 2.7941-6.4728s4.9855-1.5173 6.9561-1.1482c1.7606.3312 3.1532.589 4.6536-.5804.6313-.4435 1.4994-.3137 1.9733.295.4739.6088.3867 1.4823-.1982 1.9854z" fill="#fff"/><path d="m108.4848 211.8525c-2.489 1.9793-4.978 1.5142-6.956 1.1402-1.7615-.3243-3.1533-.589-4.6477.5811-1.4945 1.1701-1.5902 2.5887-1.689 4.3778-.1248 2.0007-.273 4.5025-2.8 6.472-2.5271 1.9696-4.985 1.5134-6.9318 1.1472-1.7614-.3242-3.1532-.589-4.6484.5871s-1.59 2.5797-1.6889 4.3688c-.1248 2.0006-.273 4.5024-2.8 6.472-2.5271 1.9696-5.011 1.5283-6.9803 1.1402-1.7615-.3242-3.173-.5914-4.6477.5812a1.4467 1.4467 0 1 1 -1.7818-2.2752c2.5277-1.9746 4.9857-1.5194 6.9573-1.1502 1.7606.3313 3.1532.589 4.6477-.581 1.4945-1.1702 1.59-2.5797 1.6948-4.3681.119-2.0014.267-4.5032 2.7941-6.4728s4.985-1.5134 6.9573-1.15c1.7606.3311 3.1532.589 4.6477-.5812 1.4945-1.1701 1.59-2.5796 1.6948-4.368.119-2.0014.267-4.5032 2.7941-6.4728s4.9855-1.5173 6.9561-1.1482c1.7606.3312 3.1532.589 4.6536-.5804.6313-.4435 1.4994-.3137 1.9733.295.4739.6088.3867 1.4823-.1982 1.9854z" fill="#fff"/><circle cx="4.415" cy="160.911" fill="#fff" r="3.161"/><circle cx="112.415" cy="255.911" fill="#00a991" r="3.161"/></g></g></svg>